SplineFontDB: 3.0
FontName: ChangaOne-Regular
FullName: Changa One Regular
FamilyName: Changa One
Weight: Regular
Copyright: Copyright (c) 2011, Eduardo Tunni (http://www.tipo.net.ar), with Reserved Font Name "Changa"
Version: 001.001
ItalicAngle: 0
UnderlinePosition: -50
UnderlineWidth: 50
Ascent: 800
Descent: 200
sfntRevision: 0x000100c5
LayerCount: 2
Layer: 0 1 "Back"  1
Layer: 1 1 "Fore"  0
NeedsXUIDChange: 1
XUID: [1021 288 713564382 16027733]
FSType: 0
OS2Version: 2
OS2_WeightWidthSlopeOnly: 0
OS2_UseTypoMetrics: 1
CreationTime: 1319441673
ModificationTime: 1319466953
PfmFamily: 17
TTFWeight: 400
TTFWidth: 5
LineGap: 0
VLineGap: 0
Panose: 2 0 0 0 0 0 0 0 0 0
OS2TypoAscent: 82
OS2TypoAOffset: 1
OS2TypoDescent: 20
OS2TypoDOffset: 1
OS2TypoLinegap: 0
OS2WinAscent: 0
OS2WinAOffset: 1
OS2WinDescent: 0
OS2WinDOffset: 1
HheadAscent: 0
HheadAOffset: 1
HheadDescent: 0
HheadDOffset: 1
OS2SubXSize: 700
OS2SubYSize: 650
OS2SubXOff: 0
OS2SubYOff: 140
OS2SupXSize: 700
OS2SupYSize: 650
OS2SupXOff: 0
OS2SupYOff: 477
OS2StrikeYSize: 50
OS2StrikeYPos: 250
OS2Vendor: 'pyrs'
OS2CodePages: 20000001.00000000
OS2UnicodeRanges: 800000af.4000204a.00000000.00000000
Lookup: 4 0 1 "'liga' Standard Ligatures in Latin lookup 0"  {"'liga' Standard Ligatures in Latin lookup 0 subtable"  } ['liga' ('latn' <'dflt' > ) ]
Lookup: 257 0 0 "'case' Case-Sensitive Forms in Latin lookup 0"  {"'case' Case-Sensitive Forms in Latin lookup 0 subtable"  } ['case' ('latn' <'dflt' > ) ]
Lookup: 258 0 0 "'kern' Horizontal Kerning in Latin lookup 1"  {"'kern' Horizontal Kerning in Latin lookup 1 per glyph data 0"  "'kern' Horizontal Kerning in Latin lookup 1 per glyph data 1"  "'kern' Horizontal Kerning in Latin lookup 1 kerning class 2"  } ['kern' ('latn' <'dflt' > ) ]
MarkAttachClasses: 1
DEI: 91125
KernClass2: 5+ 7 "'kern' Horizontal Kerning in Latin lookup 1 kerning class 2" 
 50 Adieresis Agrave Aring Atilde Acircumflex A Aacute
 18 Y Yacute Ydieresis
 8 L Lslash
 1 T
 1 W
 18 Y Yacute Ydieresis
 1 T

StartChar: Agrave
Encoding: 192 192 5
Width: 609
Flags: HMW
HStem: 0 21G<-12 199 -12 -12 410 410 410 621> 99 159<258 350 258 387 222 350> 605 20G<150 459 459 459> 664 21G<378 378> 844 20G<215.5 221>
LayerCount: 2
Fore
SplineSet
199 0 m 1,0,-1
 -12 0 l 1,1,-1
 150 625 l 1,2,-1
 459 625 l 1,3,-1
 621 0 l 1,4,-1
 410 0 l 1,5,-1
 387 99 l 1,6,-1
 222 99 l 1,7,-1
 199 0 l 1,0,-1
299 433 m 1,8,-1
 258 258 l 1,9,-1
 350 258 l 1,10,-1
 310 433 l 1,11,-1
 299 433 l 1,8,-1
378 664 m 1,12,-1
 204 699 l 2,13,14
 188 702 188 702 178 711 c 2,15,-1
 133 750 l 1,16,17
 129 756 129 756 129 762.25 c 0,18,19
 129 768.5 129 768.5 138 779 c 2,20,-1
 201 853 l 2,21,22
 210 864 210 864 217 864 c 0,23,24
 224 864 224 864 230 860 c 2,25,-1
 419 721 l 1,26,-1
 378 664 l 1,12,-1
EndSplineSet
EndChar

StartChar: Atilde
Encoding: 195 195 7
Width: 609
Flags: HMW
HStem: 0 21G<-12 199 -12 -12 410 410 410 621> 99 159<258 350 258 387 222 350> 605 20G<150 459 459 459> 667 21G<314 347.5> 825 20G<260.5 294>
LayerCount: 2
Fore
SplineSet
199 0 m 1,0,-1
 -12 0 l 1,1,-1
 150 625 l 1,2,-1
 459 625 l 1,3,-1
 621 0 l 1,4,-1
 410 0 l 1,5,-1
 387 99 l 1,6,-1
 222 99 l 1,7,-1
 199 0 l 1,0,-1
299 433 m 1,8,-1
 258 258 l 1,9,-1
 350 258 l 1,10,-1
 310 433 l 1,11,-1
 299 433 l 1,8,-1
447 840 m 1,12,-1
 497 759 l 1,13,14
 377.874948527 679.270634841 377.874948527 679.270634841 363.304842248 673.13531742 c 0,15,16
 348.734735969 667 348.734735969 667 334.867367984 667 c 0,17,18
 321 667 321 667 312.5 669 c 128,-1,19
 304 671 304 671 294 676.5 c 128,-1,20
 284 682 284 682 278.5 686 c 128,-1,21
 273 690 273 690 260.5 699 c 128,-1,22
 248 708 248 708 243 712 c 1,23,-1
 161 672 l 1,24,-1
 111 753 l 1,25,26
 230.125051473 832.729365159 230.125051473 832.729365159 244.695157752 838.86468258 c 0,27,28
 259.265264031 845 259.265264031 845 273.132632016 845 c 0,29,30
 287 845 287 845 295.5 843 c 128,-1,31
 304 841 304 841 314 835.5 c 128,-1,32
 324 830 324 830 329.5 826 c 128,-1,33
 335 822 335 822 347.5 813 c 128,-1,34
 360 804 360 804 365 800 c 1,35,-1
 447 840 l 1,12,-1
EndSplineSet
EndChar

StartChar: B
Encoding: 66 66 8
Width: 592
Flags: HMW
HStem: 0 147<250 327 327 343.5 250 409> 249 146<250 312 312 327 250 328 250 312> 488 137<250 313 250 250>
VStem: 50 200<147 249 147 395 395 488> 350 191<439 454.5> 369 203<183.5 207 119.5 212.5>
LayerCount: 2
Fore
SplineSet
50 0 m 1,0,-1
 50 625 l 1,1,-1
 374 625 l 2,2,3
 464 625 464 625 502.5 590 c 128,-1,4
 541 555 541 555 541 488 c 0,5,6
 541 421 541 421 516.5 384.5 c 128,-1,7
 492 348 492 348 451 337 c 1,8,-1
 451 331 l 1,9,10
 572 310 572 310 572 166 c 0,11,12
 572 91 572 91 532 45.5 c 128,-1,13
 492 0 492 0 409 0 c 2,14,-1
 50 0 l 1,0,-1
328 249 m 2,15,-1
 250 249 l 1,16,-1
 250 147 l 1,17,-1
 327 147 l 2,18,19
 369 147 369 147 369 198 c 128,-1,20
 369 249 369 249 328 249 c 2,15,-1
313 488 m 2,21,-1
 250 488 l 1,22,-1
 250 395 l 1,23,-1
 312 395 l 2,24,25
 350 395 350 395 350 441.5 c 0,26,27
 350 488 350 488 313 488 c 2,21,-1
EndSplineSet
EndChar

StartChar: C
Encoding: 67 67 9
Width: 500
Flags: HMW
HStem: -15 170<302 340 302 349> 475 165<296.5 337 197 343>
VStem: 20 215<204 420.5>
LayerCount: 2
Fore
SplineSet
465 179 m 1,0,-1
 480 11 l 1,1,2
 417 -15 417 -15 322 -15 c 128,-1,3
 227 -15 227 -15 169.5 5 c 128,-1,4
 112 25 112 25 79 68 c 128,-1,5
 46 111 46 111 33 169 c 128,-1,6
 20 227 20 227 20 312 c 128,-1,7
 20 397 20 397 33 455.5 c 128,-1,8
 46 514 46 514 79 557 c 0,9,10
 142.697674419 640 142.697674419 640 314 640 c 0,11,12
 352 640 352 640 403.5 632.5 c 128,-1,13
 455 625 455 625 480 614 c 1,14,-1
 450 461 l 1,15,16
 385 475 385 475 331 475 c 128,-1,17
 277 475 277 475 256 465 c 128,-1,18
 235 455 235 455 235 425 c 2,19,-1
 235 163 l 1,20,21
 274 155 274 155 314 155 c 0,22,23
 399 155 399 155 465 179 c 1,0,-1
EndSplineSet
EndChar

StartChar: D
Encoding: 68 68 11
Width: 645
Flags: HMW
HStem: 0 160<250 330> 465 160<250 330 330 333 250 250>
VStem: 50 200<160 465 160 625 160 625> 411 214<213 412 412 420.5 204 436.5>
LayerCount: 2
Fore
SplineSet
50 0 m 1,0,-1
 50 625 l 1,1,-1
 330 625 l 2,2,3
 499 625 499 625 562 553 c 128,-1,4
 625 481 625 481 625 312.5 c 0,5,6
 625 144 625 144 562 72 c 128,-1,7
 499 0 499 0 330 0 c 2,8,-1
 50 0 l 1,0,-1
333 465 m 2,9,-1
 250 465 l 1,10,-1
 250 160 l 1,11,-1
 333 160 l 2,12,13
 374 160 374 160 392.5 169.5 c 128,-1,14
 411 179 411 179 411 213 c 2,15,-1
 411 412 l 2,16,17
 411 446 411 446 392.5 455.5 c 128,-1,18
 374 465 374 465 333 465 c 2,9,-1
EndSplineSet
EndChar

StartChar: E
Encoding: 69 69 12
Width: 530
Flags: HMW
HStem: 0 160<250 495 250 495> 236 145<250 450 250 450> 465 160<250 465 250 250>
VStem: 50 200<160 236 160 381 381 465>
LayerCount: 2
Fore
SplineSet
450 236 m 1,0,-1
 250 236 l 1,1,-1
 250 160 l 1,2,-1
 495 160 l 1,3,-1
 495 0 l 1,4,-1
 50 0 l 1,5,-1
 50 625 l 1,6,-1
 490 625 l 1,7,-1
 465 465 l 1,8,-1
 250 465 l 1,9,-1
 250 381 l 1,10,-1
 450 381 l 1,11,-1
 450 236 l 1,0,-1
EndSplineSet
EndChar

StartChar: Ecircumflex
Encoding: 202 202 14
Width: 530
Flags: HMW
HStem: 0 160<250 495 250 495> 236 145<250 450 250 450> 465 160<250 465 250 250> 661 21G<162 162 348 348> 844 20G<231 279 279 282.5>
VStem: 50 200<160 236 160 381 381 465>
LayerCount: 2
Fore
SplineSet
450 236 m 1,0,-1
 250 236 l 1,1,-1
 250 160 l 1,2,-1
 495 160 l 1,3,-1
 495 0 l 1,4,-1
 50 0 l 1,5,-1
 50 625 l 1,6,-1
 490 625 l 1,7,-1
 465 465 l 1,8,-1
 250 465 l 1,9,-1
 250 381 l 1,10,-1
 450 381 l 1,11,-1
 450 236 l 1,0,-1
231 864 m 2,12,-1
 279 864 l 2,13,14
 286 864 286 864 295 855 c 1,15,-1
 408 710 l 1,16,-1
 348 661 l 1,17,-1
 255 724 l 1,18,-1
 162 661 l 1,19,-1
 102 710 l 1,20,-1
 215 855 l 1,21,22
 224 864 224 864 231 864 c 2,12,-1
EndSplineSet
EndChar

StartChar: Egrave
Encoding: 200 200 16
Width: 530
Flags: HMW
HStem: 0 160<250 495 250 495> 236 145<250 450 250 450> 465 160<250 465 250 250> 664 21G<328 328> 844 20G<165.5 171>
VStem: 50 200<160 236 160 381 381 465>
LayerCount: 2
Fore
SplineSet
450 236 m 1,0,-1
 250 236 l 1,1,-1
 250 160 l 1,2,-1
 495 160 l 1,3,-1
 495 0 l 1,4,-1
 50 0 l 1,5,-1
 50 625 l 1,6,-1
 490 625 l 1,7,-1
 465 465 l 1,8,-1
 250 465 l 1,9,-1
 250 381 l 1,10,-1
 450 381 l 1,11,-1
 450 236 l 1,0,-1
328 664 m 1,12,-1
 154 699 l 2,13,14
 138 702 138 702 128 711 c 2,15,-1
 83 750 l 1,16,17
 79 756 79 756 79 762.25 c 0,18,19
 79 768.5 79 768.5 88 779 c 2,20,-1
 151 853 l 2,21,22
 160 864 160 864 167 864 c 0,23,24
 174 864 174 864 180 860 c 2,25,-1
 369 721 l 1,26,-1
 328 664 l 1,12,-1
EndSplineSet
EndChar

StartChar: Eth
Encoding: 208 208 17
Width: 645
Flags: HMW
HStem: 0 160<250 330> 243 135<0 50 0 50 250 268> 465 160<250 330 330 333 250 250>
VStem: 50 200<160 243 160 243 160 243 378 465> 411 214<213 412 412 420.5 204 436.5>
LayerCount: 2
Fore
SplineSet
0 243 m 1,0,-1
 0 341 l 2,1,2
 0 363 0 363 12 370 c 128,-1,3
 24 377 24 377 50 378 c 1,4,-1
 50 625 l 1,5,-1
 330 625 l 2,6,7
 499 625 499 625 562 553 c 128,-1,8
 625 481 625 481 625 312.5 c 0,9,10
 625 144 625 144 562 72 c 128,-1,11
 499 0 499 0 330 0 c 2,12,-1
 50 0 l 1,13,-1
 50 243 l 1,14,-1
 0 243 l 1,0,-1
333 465 m 2,15,-1
 250 465 l 1,16,-1
 250 378 l 1,17,-1
 330 378 l 1,18,-1
 330 281 l 2,19,20
 330 257 330 257 315 250 c 128,-1,21
 300 243 300 243 268 243 c 2,22,-1
 250 243 l 1,23,-1
 250 160 l 1,24,-1
 333 160 l 2,25,26
 374 160 374 160 392.5 169.5 c 128,-1,27
 411 179 411 179 411 213 c 2,28,-1
 411 412 l 2,29,30
 411 446 411 446 392.5 455.5 c 128,-1,31
 374 465 374 465 333 465 c 2,15,-1
EndSplineSet
EndChar

StartChar: Euro
Encoding: 8364 8364 18
Width: 563
Flags: HMW
HStem: -15 160<344 380> 206 82<22 64 15 446 279 439 279 279> 338 82<36 78 293 453 29 78> 475 165<343.5 360 360 393 279 495>
LayerCount: 2
Fore
SplineSet
439 206 m 1,0,-1
 279 206 l 1,1,-1
 277 153 l 1,2,3
 316 145 316 145 356 145 c 0,4,5
 436 145 436 145 503 169 c 1,6,-1
 512 11 l 1,7,8
 448 -15 448 -15 345 -15 c 0,9,10
 201 -15 201 -15 138.5 35 c 128,-1,11
 76 85 76 85 64 206 c 1,12,-1
 15 206 l 1,13,-1
 22 288 l 1,14,-1
 446 288 l 1,15,-1
 439 206 l 1,0,-1
453 338 m 1,16,-1
 29 338 l 1,17,-1
 36 420 l 1,18,-1
 78 420 l 1,19,20
 97 539 97 539 164.5 589.5 c 128,-1,21
 232 640 232 640 375 640 c 0,22,23
 447 640 447 640 523 621 c 1,24,-1
 495 475 l 1,25,-1
 360 475 l 2,26,27
 340 475 340 475 327.5 472.5 c 128,-1,28
 315 470 315 470 304.5 458.5 c 128,-1,29
 294 447 294 447 293 426 c 1,30,-1
 293 420 l 1,31,-1
 460 420 l 1,32,-1
 453 338 l 1,16,-1
EndSplineSet
EndChar

StartChar: F
Encoding: 70 70 19
Width: 470
Flags: HMW
HStem: 0 21G<50 250 50 50> 232 149<250 420 250 420> 465 160<250 435 250 250>
VStem: 50 200<0 232 0 381 381 465>
LayerCount: 2
Fore
SplineSet
420 232 m 1,0,-1
 250 232 l 1,1,-1
 250 0 l 1,2,-1
 50 0 l 1,3,-1
 50 625 l 1,4,-1
 460 625 l 1,5,-1
 435 465 l 1,6,-1
 250 465 l 1,7,-1
 250 381 l 1,8,-1
 420 381 l 1,9,-1
 420 232 l 1,0,-1
EndSplineSet
EndChar

StartChar: G
Encoding: 71 71 20
Width: 600
Flags: HMW
HStem: -15 157<235 301 301 321 235 349> 475 165<311.5 362.5 207.5 368.5>
VStem: 20 215<204 420.5> 319 241<211 364 30 364>
LayerCount: 2
Fore
SplineSet
370 184 m 2,0,-1
 370 211 l 1,1,-1
 319 211 l 1,2,-1
 319 364 l 1,3,-1
 560 364 l 1,4,-1
 560 30 l 1,5,6
 441 -15 441 -15 314 -15 c 0,7,8
 142.697674419 -15 142.697674419 -15 79 68 c 0,9,10
 46 111 46 111 33 169 c 128,-1,11
 20 227 20 227 20 312.5 c 128,-1,12
 20 398 20 398 33.5 455.5 c 128,-1,13
 47 513 47 513 81.5 556.5 c 0,14,15
 147.724137931 640 147.724137931 640 337 640 c 0,16,17
 376 640 376 640 438.5 632 c 128,-1,18
 501 624 501 624 530 614 c 1,19,-1
 500 461 l 1,20,21
 419 475 419 475 353.5 475 c 128,-1,22
 288 475 288 475 261.5 465 c 128,-1,23
 235 455 235 455 235 425 c 2,24,-1
 235 142 l 1,25,-1
 301 142 l 2,26,27
 337 142 337 142 353.5 149.5 c 128,-1,28
 370 157 370 157 370 184 c 2,0,-1
EndSplineSet
EndChar

StartChar: H
Encoding: 72 72 21
Width: 650
Flags: HMW
HStem: 0 21G<50 250 50 50 400 600 400 400> 605 20G<50 250 250 250 400 600 600 600>
VStem: 50 200<0 221 0 404 404 625> 400 200<0 221 221 221 404 625 0 625>
LayerCount: 2
Fore
SplineSet
400 0 m 1,0,-1
 400 221 l 1,1,-1
 250 221 l 1,2,-1
 250 0 l 1,3,-1
 50 0 l 1,4,-1
 50 625 l 1,5,-1
 250 625 l 1,6,-1
 250 404 l 1,7,-1
 400 404 l 1,8,-1
 400 625 l 1,9,-1
 600 625 l 1,10,-1
 600 0 l 1,11,-1
 400 0 l 1,0,-1
EndSplineSet
EndChar

StartChar: I
Encoding: 73 73 22
Width: 300
Flags: HMW
HStem: 0 21G<50 50 50 250> 605 20G<50 250 250 250>
VStem: 50 200<0 625 0 625>
LayerCount: 2
Fore
SplineSet
50 0 m 1,0,-1
 50 625 l 1,1,-1
 250 625 l 1,2,-1
 250 0 l 1,3,-1
 50 0 l 1,0,-1
EndSplineSet
EndChar

StartChar: Icircumflex
Encoding: 206 206 24
Width: 300
Flags: HMW
HStem: 0 21G<50 50 50 250> 605 20G<50 250 250 250> 661 21G<57 57 243 243> 844 20G<126 174 174 177.5>
VStem: 50 200<0 625 0 625>
LayerCount: 2
Fore
SplineSet
50 0 m 1,0,-1
 50 625 l 1,1,-1
 250 625 l 1,2,-1
 250 0 l 1,3,-1
 50 0 l 1,0,-1
126 864 m 2,4,-1
 174 864 l 2,5,6
 181 864 181 864 190 855 c 1,7,-1
 303 710 l 1,8,-1
 243 661 l 1,9,-1
 150 724 l 1,10,-1
 57 661 l 1,11,-1
 -3 710 l 1,12,-1
 110 855 l 1,13,14
 119 864 119 864 126 864 c 2,4,-1
EndSplineSet
EndChar

StartChar: Igrave
Encoding: 204 204 26
Width: 300
Flags: HMW
HStem: 0 21G<50 50 50 250> 605 20G<50 250 250 250> 664 21G<224 224> 844 20G<61.5 67>
VStem: 50 200<0 625 0 625 0 699>
LayerCount: 2
Fore
SplineSet
50 0 m 1,0,-1
 50 625 l 1,1,-1
 250 625 l 1,2,-1
 250 0 l 1,3,-1
 50 0 l 1,0,-1
224 664 m 1,4,-1
 50 699 l 2,5,6
 34 702 34 702 24 711 c 2,7,-1
 -21 750 l 1,8,9
 -25 756 -25 756 -25 762.25 c 0,10,11
 -25 768.5 -25 768.5 -16 779 c 2,12,-1
 47 853 l 2,13,14
 56 864 56 864 63 864 c 0,15,16
 70 864 70 864 76 860 c 2,17,-1
 265 721 l 1,18,-1
 224 664 l 1,4,-1
EndSplineSet
EndChar

StartChar: J
Encoding: 74 74 27
Width: 366
Flags: HMW
HStem: 0 160<20 20 20 83 83 96.5 0 176> 465 160<48 131 48 331>
VStem: 131 200<190 465 465 465>
LayerCount: 2
Fore
SplineSet
20 0 m 1,0,-1
 0 160 l 1,1,-1
 83 160 l 2,2,3
 114 160 114 160 122.5 168.5 c 128,-1,4
 131 177 131 177 131 190 c 2,5,-1
 131 465 l 1,6,-1
 48 465 l 1,7,-1
 48 625 l 1,8,-1
 331 625 l 1,9,-1
 331 165 l 2,10,11
 331 84 331 84 291 42 c 128,-1,12
 251 0 251 0 176 0 c 2,13,-1
 20 0 l 1,0,-1
EndSplineSet
EndChar

StartChar: K
Encoding: 75 75 28
Width: 593
Flags: HMW
HStem: 0 21G<50 250 50 50 367 367 367 583> 605 20G<50 250 250 250 362 578 578 578>
VStem: 50 200<0 272 0 370 370 625>
LayerCount: 2
Fore
SplineSet
250 272 m 1,0,-1
 250 0 l 1,1,-1
 50 0 l 1,2,-1
 50 625 l 1,3,-1
 250 625 l 1,4,-1
 250 370 l 1,5,-1
 254 370 l 1,6,7
 256 400 256 400 264 418 c 2,8,-1
 362 625 l 1,9,-1
 578 625 l 1,10,-1
 428 318 l 1,11,-1
 583 0 l 1,12,-1
 367 0 l 1,13,-1
 264 224 l 2,14,15
 256 242 256 242 254 272 c 1,16,-1
 250 272 l 1,0,-1
EndSplineSet
EndChar

StartChar: L
Encoding: 76 76 29
Width: 455
Flags: HMW
HStem: 0 160<250 450 250 450> 605 20G<50 250 250 250>
VStem: 50 200<160 625 160 625 160 625>
LayerCount: 2
Fore
SplineSet
450 0 m 1,0,-1
 50 0 l 1,1,-1
 50 625 l 1,2,-1
 250 625 l 1,3,-1
 250 160 l 1,4,-1
 450 160 l 1,5,-1
 450 0 l 1,0,-1
EndSplineSet
EndChar

StartChar: Lslash
Encoding: 321 321 30
Width: 455
Flags: HMW
HStem: 0 160<250 450 250 450> 220 21G<0 0> 446 20G<319 319> 605 20G<50 250 250 250>
VStem: 50 200<160 625 160 625 160 625>
LayerCount: 2
Fore
SplineSet
0 220 m 1,0,1
 -33 321 -33 321 -33 328 c 0,2,3
 -33 351 -33 351 17 367 c 2,4,-1
 319 466 l 1,5,6
 351 365 351 365 351 354 c 0,7,8
 351 334 351 334 301 318 c 2,9,-1
 0 220 l 1,0,1
450 0 m 1,10,-1
 50 0 l 1,11,-1
 50 625 l 1,12,-1
 250 625 l 1,13,-1
 250 160 l 1,14,-1
 450 160 l 1,15,-1
 450 0 l 1,10,-1
EndSplineSet
EndChar

StartChar: M
Encoding: 77 77 31
Width: 811
Flags: HMW
HStem: 0 21G<25 234 25 25 329 329 329 482 577 577 577 786> 605 20G<63 324 324 324 487 748 748 748>
VStem: 44 196 571 196
LayerCount: 2
Fore
SplineSet
234 0 m 1,0,-1
 25 0 l 1,1,-1
 63 625 l 1,2,-1
 324 625 l 1,3,-1
 402 307 l 1,4,-1
 409 307 l 1,5,-1
 487 625 l 1,6,-1
 748 625 l 1,7,-1
 786 0 l 1,8,-1
 577 0 l 1,9,-1
 565 303 l 1,10,-1
 558 303 l 1,11,-1
 482 0 l 1,12,-1
 329 0 l 1,13,-1
 252 303 l 1,14,-1
 246 303 l 1,15,-1
 234 0 l 1,0,-1
EndSplineSet
EndChar

StartChar: N
Encoding: 78 78 32
Width: 655
Flags: HMW
HStem: 0 21G<50 250 50 50 417 605 417 417> 605 20G<50 238 238 238 405 605 605 605>
VStem: 50 200<0 270 0 625> 405 200<355 625 0 625>
LayerCount: 2
Fore
SplineSet
417 0 m 1,0,-1
 264 222 l 2,1,2
 256 233 256 233 254 270 c 1,3,-1
 250 270 l 1,4,-1
 250 0 l 1,5,-1
 50 0 l 1,6,-1
 50 625 l 1,7,-1
 238 625 l 1,8,-1
 391 403 l 2,9,10
 399 392 399 392 401 355 c 1,11,-1
 405 355 l 1,12,-1
 405 625 l 1,13,-1
 605 625 l 1,14,-1
 605 0 l 1,15,-1
 417 0 l 1,0,-1
EndSplineSet
EndChar

StartChar: O
Encoding: 79 79 34
Width: 630
Flags: HMW
HStem: -15 171<235 318 318 341 235 431> 469 171<289 312 312 396>
VStem: 20 215<204 416 156 420.5> 396 214<209 420.5 204 469 204 469>
LayerCount: 2
Fore
SplineSet
20 312 m 0,0,1
 20 483 20 483 84 561.5 c 128,-1,2
 148 640 148 640 315 640 c 128,-1,3
 482 640 482 640 546 561.5 c 128,-1,4
 610 483 610 483 610 312 c 0,5,6
 610 227 610 227 596.5 169 c 128,-1,7
 583 111 583 111 550 68 c 128,-1,8
 517 25 517 25 459 5 c 128,-1,9
 401 -15 401 -15 315 -15 c 128,-1,10
 229 -15 229 -15 171 5 c 128,-1,11
 113 25 113 25 80 68 c 128,-1,12
 47 111 47 111 33.5 169 c 128,-1,13
 20 227 20 227 20 312 c 0,0,1
235 416 m 2,14,-1
 235 156 l 1,15,-1
 318 156 l 2,16,17
 359 156 359 156 377.5 165.5 c 128,-1,18
 396 175 396 175 396 209 c 2,19,-1
 396 469 l 1,20,-1
 312 469 l 2,21,22
 272 469 272 469 253.5 459.5 c 128,-1,23
 235 450 235 450 235 416 c 2,14,-1
EndSplineSet
EndChar

StartChar: OE
Encoding: 338 338 35
Width: 856
Flags: HMW
HStem: -15 175 0 160<596 821 596 821 441 821> 236 145<596 776 596 776> 465 160<596 791 596 596> 465 175
VStem: 20 215<204 416 156 420.5> 396 200<202 236 381 465>
LayerCount: 2
Fore
SplineSet
821 0 m 1,0,-1
 441 0 l 1,1,2
 388.5 -15 388.5 -15 308.75 -15 c 0,3,4
 229 -15 229 -15 171 5 c 128,-1,5
 113 25 113 25 80 68 c 128,-1,6
 47 111 47 111 33.5 169 c 128,-1,7
 20 227 20 227 20 312 c 0,8,9
 20 483 20 483 84 561.5 c 128,-1,10
 148 640 148 640 315 640 c 0,11,12
 388.5 640 388.5 640 441 625 c 1,13,-1
 816 625 l 1,14,-1
 791 465 l 1,15,-1
 596 465 l 1,16,-1
 596 381 l 1,17,-1
 776 381 l 1,18,-1
 776 236 l 1,19,-1
 596 236 l 1,20,-1
 596 160 l 1,21,-1
 821 160 l 1,22,-1
 821 0 l 1,0,-1
235 416 m 2,23,-1
 235 156 l 1,24,-1
 318 156 l 2,25,26
 344 156 344 156 358 158.5 c 128,-1,27
 372 161 372 161 383.5 171.5 c 128,-1,28
 395 182 395 182 396 202 c 1,29,-1
 396 469 l 1,30,-1
 312 469 l 2,31,32
 272 469 272 469 253.5 459.5 c 128,-1,33
 235 450 235 450 235 416 c 2,23,-1
EndSplineSet
EndChar

StartChar: Ocircumflex
Encoding: 212 212 37
Width: 630
Flags: HMW
HStem: -15 171<235 318 318 341 235 431> 469 171<289 312 312 396> 661 21G<222 222 408 408> 844 20G<291 339 339 342.5>
VStem: 20 215<204 416 156 420.5> 396 214<209 420.5 204 469 204 469>
LayerCount: 2
Fore
SplineSet
20 312 m 0,0,1
 20 483 20 483 84 561.5 c 128,-1,2
 148 640 148 640 315 640 c 128,-1,3
 482 640 482 640 546 561.5 c 128,-1,4
 610 483 610 483 610 312 c 0,5,6
 610 227 610 227 596.5 169 c 128,-1,7
 583 111 583 111 550 68 c 128,-1,8
 517 25 517 25 459 5 c 128,-1,9
 401 -15 401 -15 315 -15 c 128,-1,10
 229 -15 229 -15 171 5 c 128,-1,11
 113 25 113 25 80 68 c 128,-1,12
 47 111 47 111 33.5 169 c 128,-1,13
 20 227 20 227 20 312 c 0,0,1
235 416 m 2,14,-1
 235 156 l 1,15,-1
 318 156 l 2,16,17
 359 156 359 156 377.5 165.5 c 128,-1,18
 396 175 396 175 396 209 c 2,19,-1
 396 469 l 1,20,-1
 312 469 l 2,21,22
 272 469 272 469 253.5 459.5 c 128,-1,23
 235 450 235 450 235 416 c 2,14,-1
291 864 m 2,24,-1
 339 864 l 2,25,26
 346 864 346 864 355 855 c 1,27,-1
 468 710 l 1,28,-1
 408 661 l 1,29,-1
 315 724 l 1,30,-1
 222 661 l 1,31,-1
 162 710 l 1,32,-1
 275 855 l 1,33,34
 284 864 284 864 291 864 c 2,24,-1
EndSplineSet
EndChar

StartChar: Ograve
Encoding: 210 210 39
Width: 630
Flags: HMW
HStem: -15 171<235 318 318 341 235 431> 469 171<289 312 312 396> 664 21G<388 388> 844 20G<225.5 231>
VStem: 20 215<204 416 156 420.5> 396 214<209 420.5 204 469 204 469>
LayerCount: 2
Fore
SplineSet
20 312 m 0,0,1
 20 483 20 483 84 561.5 c 128,-1,2
 148 640 148 640 315 640 c 128,-1,3
 482 640 482 640 546 561.5 c 128,-1,4
 610 483 610 483 610 312 c 0,5,6
 610 227 610 227 596.5 169 c 128,-1,7
 583 111 583 111 550 68 c 128,-1,8
 517 25 517 25 459 5 c 128,-1,9
 401 -15 401 -15 315 -15 c 128,-1,10
 229 -15 229 -15 171 5 c 128,-1,11
 113 25 113 25 80 68 c 128,-1,12
 47 111 47 111 33.5 169 c 128,-1,13
 20 227 20 227 20 312 c 0,0,1
235 416 m 2,14,-1
 235 156 l 1,15,-1
 318 156 l 2,16,17
 359 156 359 156 377.5 165.5 c 128,-1,18
 396 175 396 175 396 209 c 2,19,-1
 396 469 l 1,20,-1
 312 469 l 2,21,22
 272 469 272 469 253.5 459.5 c 128,-1,23
 235 450 235 450 235 416 c 2,14,-1
388 664 m 1,24,-1
 214 699 l 2,25,26
 198 702 198 702 188 711 c 2,27,-1
 143 750 l 1,28,29
 139 756 139 756 139 762.25 c 0,30,31
 139 768.5 139 768.5 148 779 c 2,32,-1
 211 853 l 2,33,34
 220 864 220 864 227 864 c 0,35,36
 234 864 234 864 240 860 c 2,37,-1
 429 721 l 1,38,-1
 388 664 l 1,24,-1
EndSplineSet
EndChar

StartChar: Oslash
Encoding: 216 216 40
Width: 630
Flags: HMW
HStem: -40 21G<63 134 63 63> -15 171<177 318 235 318 318 341 235 431> 469 171<289 312 312 396> 645 20G<495 566 566 566>
VStem: 20 215<204 416 156 420.5> 396 214<209 420.5 204 469 204 469>
LayerCount: 2
Fore
SplineSet
464 486 m 1,0,-1
 449 486 l 1,1,-1
 256 149 l 1,2,-1
 271 149 l 1,3,-1
 177 -15 l 2,4,5
 172 -25 172 -25 168 -29 c 0,6,7
 157 -40 157 -40 134 -40 c 2,8,-1
 63 -40 l 1,9,-1
 171 149 l 1,10,-1
 185 149 l 1,11,-1
 378 486 l 1,12,-1
 364 486 l 1,13,-1
 452 640 l 2,14,15
 457 650 457 650 461 654 c 0,16,17
 472 665 472 665 495 665 c 2,18,-1
 566 665 l 1,19,-1
 464 486 l 1,0,-1
20 312 m 0,20,21
 20 483 20 483 84 561.5 c 128,-1,22
 148 640 148 640 315 640 c 128,-1,23
 482 640 482 640 546 561.5 c 128,-1,24
 610 483 610 483 610 312 c 0,25,26
 610 227 610 227 596.5 169 c 128,-1,27
 583 111 583 111 550 68 c 128,-1,28
 517 25 517 25 459 5 c 128,-1,29
 401 -15 401 -15 315 -15 c 128,-1,30
 229 -15 229 -15 171 5 c 128,-1,31
 113 25 113 25 80 68 c 128,-1,32
 47 111 47 111 33.5 169 c 128,-1,33
 20 227 20 227 20 312 c 0,20,21
235 416 m 2,34,-1
 235 156 l 1,35,-1
 318 156 l 2,36,37
 359 156 359 156 377.5 165.5 c 128,-1,38
 396 175 396 175 396 209 c 2,39,-1
 396 469 l 1,40,-1
 312 469 l 2,41,42
 272 469 272 469 253.5 459.5 c 128,-1,43
 235 450 235 450 235 416 c 2,34,-1
EndSplineSet
EndChar

StartChar: P
Encoding: 80 80 42
Width: 590
Flags: HMW
HStem: 0 21G<50 250 50 50> 151 160<250 296 296 316 250 380 250 296> 465 160<250 250 250 296>
VStem: 50 200<0 151 0 311 311 465> 365 215<353 423 423 442.5 342.5 625>
LayerCount: 2
Fore
SplineSet
380 151 m 2,0,-1
 250 151 l 1,1,-1
 250 0 l 1,2,-1
 50 0 l 1,3,-1
 50 625 l 1,4,-1
 365 625 l 2,5,6
 580 625 580 625 580 394 c 0,7,8
 580 267.162790698 580 267.162790698 524.5 206.5 c 0,9,10
 503 183 503 183 466 167 c 128,-1,11
 429 151 429 151 380 151 c 2,0,-1
250 465 m 1,12,-1
 250 311 l 1,13,-1
 296 311 l 2,14,15
 332 311 332 311 348.5 318.5 c 128,-1,16
 365 326 365 326 365 353 c 2,17,-1
 365 423 l 2,18,19
 365 450 365 450 348.5 457.5 c 128,-1,20
 332 465 332 465 296 465 c 2,21,-1
 250 465 l 1,12,-1
EndSplineSet
EndChar

StartChar: Q
Encoding: 81 81 43
Width: 630
Flags: HMW
HStem: -50 21G<577 577> 0 156<235 300> 469 171<289 312 312 396>
VStem: 20 215<217.5 416> 396 214<267 420.5 267 469 267 469>
LayerCount: 2
Fore
SplineSet
385 23 m 1,0,-1
 300 0 l 1,1,2
 132.5 0 132.5 0 73.5 86 c 0,3,4
 44 129 44 129 32 182.5 c 128,-1,5
 20 236 20 236 20 312 c 0,6,7
 20 483 20 483 84 561.5 c 128,-1,8
 148 640 148 640 314 640 c 128,-1,9
 480 640 480 640 545 561 c 128,-1,10
 610 482 610 482 610 312 c 0,11,12
 610 185 610 185 557 107 c 1,13,-1
 629 65 l 1,14,-1
 577 -50 l 1,15,-1
 385 -15 l 1,16,-1
 385 23 l 1,0,-1
235 156 m 1,17,-1
 318 156 l 2,18,19
 359 156 359 156 377.5 165.5 c 128,-1,20
 396 175 396 175 396 209 c 2,21,-1
 396 469 l 1,22,-1
 312 469 l 2,23,24
 272 469 272 469 253.5 459.5 c 128,-1,25
 235 450 235 450 235 416 c 2,26,-1
 235 156 l 1,17,-1
EndSplineSet
EndChar

StartChar: R
Encoding: 82 82 44
Width: 615
Flags: HMW
HStem: 0 21G<50 250 50 50 375 595 375 375> 465 160<250 250 250 296>
VStem: 50 200<0 186 0 340 340 465> 365 215<382 423 423 442.5 370 625>
LayerCount: 2
Fore
SplineSet
595 0 m 1,0,-1
 375 0 l 1,1,-1
 293 186 l 1,2,-1
 250 186 l 1,3,-1
 250 0 l 1,4,-1
 50 0 l 1,5,-1
 50 625 l 1,6,-1
 365 625 l 2,7,8
 580 625 580 625 580 406 c 0,9,10
 580 256 580 256 487 208 c 1,11,-1
 595 0 l 1,0,-1
250 465 m 1,12,-1
 250 340 l 1,13,-1
 296 340 l 2,14,15
 332 340 332 340 348.5 347.5 c 128,-1,16
 365 355 365 355 365 382 c 2,17,-1
 365 423 l 2,18,19
 365 450 365 450 348.5 457.5 c 128,-1,20
 332 465 332 465 296 465 c 2,21,-1
 250 465 l 1,12,-1
EndSplineSet
EndChar

StartChar: S
Encoding: 83 83 45
Width: 577
Flags: HMW
HStem: -15 168<224.5 254 204.5 338.5> 470 170<314.5 331 194 361>
LayerCount: 2
Fore
SplineSet
25 11 m 1,0,-1
 53 176 l 1,1,2
 145 153 145 153 218.5 153 c 0,3,4
 292 153 292 153 337 159 c 1,5,-1
 337 209 l 1,6,-1
 247 217 l 2,7,8
 125 228 125 228 79.5 275.5 c 128,-1,9
 34 323 34 323 34 416 c 0,10,11
 34 544 34 544 89.5 592 c 128,-1,12
 145 640 145 640 278 640 c 0,13,14
 411 640 411 640 518 615 c 1,15,-1
 493 455 l 1,16,17
 400 470 400 470 344 470 c 0,18,19
 288 470 288 470 249 465 c 1,20,-1
 249 416 l 1,21,-1
 321 409 l 2,22,23
 452 396 452 396 502 346.5 c 128,-1,24
 552 297 552 297 552 209 c 0,25,26
 552 146 552 146 535 102.5 c 128,-1,27
 518 59 518 59 494.5 36.5 c 128,-1,28
 471 14 471 14 428 2 c 128,-1,29
 385 -10 385 -10 352.5 -12.5 c 128,-1,30
 320 -15 320 -15 266 -15 c 0,31,32
 136 -15 136 -15 25 11 c 1,0,-1
EndSplineSet
EndChar

StartChar: T
Encoding: 84 84 47
Width: 500
Flags: HMW
HStem: 0 21G<150 350 150 150> 465 160<5 150 5 495 350 495 350 350>
VStem: 150 200<0 465 0 465>
LayerCount: 2
Fore
SplineSet
495 465 m 1,0,-1
 350 465 l 1,1,-1
 350 0 l 1,2,-1
 150 0 l 1,3,-1
 150 465 l 1,4,-1
 5 465 l 1,5,-1
 5 625 l 1,6,-1
 495 625 l 1,7,-1
 495 465 l 1,0,-1
EndSplineSet
EndChar

StartChar: Thorn
Encoding: 222 222 48
Width: 590
Flags: HMW
HStem: 0 21G<50 250 50 50> 76 160<250 296 296 316 250 380 250 296> 390 160<250 365 250 296> 605 20G<50 250 250 250>
VStem: 50 200<0 76 0 236 236 390 550 625> 365 215<278 348 348 367.5 267.5 550>
LayerCount: 2
Fore
SplineSet
380 76 m 2,0,-1
 250 76 l 1,1,-1
 250 0 l 1,2,-1
 50 0 l 1,3,-1
 50 625 l 1,4,-1
 250 625 l 1,5,-1
 250 550 l 1,6,-1
 365 550 l 2,7,8
 580 550 580 550 580 319 c 0,9,10
 580 192.162790698 580 192.162790698 524.5 131.5 c 0,11,12
 503 108 503 108 466 92 c 128,-1,13
 429 76 429 76 380 76 c 2,0,-1
250 390 m 1,14,-1
 250 236 l 1,15,-1
 296 236 l 2,16,17
 332 236 332 236 348.5 243.5 c 128,-1,18
 365 251 365 251 365 278 c 2,19,-1
 365 348 l 2,20,21
 365 375 365 375 348.5 382.5 c 128,-1,22
 332 390 332 390 296 390 c 2,23,-1
 250 390 l 1,14,-1
EndSplineSet
EndChar

StartChar: U
Encoding: 85 85 49
Width: 607
Flags: HMW
HStem: -15 171<235 306 306 329 235 413> 605 20G<35 235 235 235 372 572 572 572>
VStem: 35 200<274 625 156 625> 372 200<209 274 274 625>
LayerCount: 2
Fore
SplineSet
235 625 m 1,0,-1
 235 156 l 1,1,-1
 306 156 l 2,2,3
 344 156 344 156 358 165.5 c 128,-1,4
 372 175 372 175 372 209 c 2,5,-1
 372 625 l 1,6,-1
 572 625 l 1,7,-1
 572 274 l 2,8,9
 572 189 572 189 561 137 c 128,-1,10
 550 85 550 85 520 49 c 128,-1,11
 490 13 490 13 438 -1 c 128,-1,12
 386 -15 386 -15 303 -15 c 128,-1,13
 220 -15 220 -15 168.5 -1 c 128,-1,14
 117 13 117 13 87 49 c 128,-1,15
 57 85 57 85 46 137 c 128,-1,16
 35 189 35 189 35 274 c 2,17,-1
 35 625 l 1,18,-1
 235 625 l 1,0,-1
EndSplineSet
EndChar

StartChar: Uacute
Encoding: 218 218 50
Width: 617
Flags: HMW
HStem: -15 171<240 311 311 334 240 418> 605 20G<40 240 240 240 377 577 577 577> 649 21G<205 205> 829 20G<362 367.5>
VStem: 40 200<274 625 156 625> 377 200<209 274 274 625>
LayerCount: 2
Fore
SplineSet
240 625 m 1,0,-1
 240 156 l 1,1,-1
 311 156 l 2,2,3
 349 156 349 156 363 165.5 c 128,-1,4
 377 175 377 175 377 209 c 2,5,-1
 377 625 l 1,6,-1
 577 625 l 1,7,-1
 577 274 l 2,8,9
 577 189 577 189 566 137 c 128,-1,10
 555 85 555 85 525 49 c 128,-1,11
 495 13 495 13 443 -1 c 128,-1,12
 391 -15 391 -15 308 -15 c 128,-1,13
 225 -15 225 -15 173.5 -1 c 128,-1,14
 122 13 122 13 92 49 c 128,-1,15
 62 85 62 85 51 137 c 128,-1,16
 40 189 40 189 40 274 c 2,17,-1
 40 625 l 1,18,-1
 240 625 l 1,0,-1
379 684 m 2,19,-1
 205 649 l 1,20,-1
 164 706 l 1,21,-1
 353 845 l 2,22,23
 359 849 359 849 366 849 c 0,24,25
 373 849 373 849 382 838 c 2,26,-1
 445 764 l 2,27,28
 454 753.5 454 753.5 454 747.25 c 0,29,30
 454 741 454 741 451.5 737.5 c 0,31,32
 449 734 449 734 405 696 c 0,33,34
 395 687 395 687 379 684 c 2,19,-1
EndSplineSet
EndChar

StartChar: Ucircumflex
Encoding: 219 219 51
Width: 617
Flags: HMW
HStem: -15 171<240 311 311 334 240 418> 605 20G<40 240 240 240 377 577 577 577> 661 21G<215 215 401 401> 844 20G<284 332 332 335.5>
VStem: 40 200<274 625 156 625> 377 200<209 274 274 625>
LayerCount: 2
Fore
SplineSet
240 625 m 1,0,-1
 240 156 l 1,1,-1
 311 156 l 2,2,3
 349 156 349 156 363 165.5 c 128,-1,4
 377 175 377 175 377 209 c 2,5,-1
 377 625 l 1,6,-1
 577 625 l 1,7,-1
 577 274 l 2,8,9
 577 189 577 189 566 137 c 128,-1,10
 555 85 555 85 525 49 c 128,-1,11
 495 13 495 13 443 -1 c 128,-1,12
 391 -15 391 -15 308 -15 c 128,-1,13
 225 -15 225 -15 173.5 -1 c 128,-1,14
 122 13 122 13 92 49 c 128,-1,15
 62 85 62 85 51 137 c 128,-1,16
 40 189 40 189 40 274 c 2,17,-1
 40 625 l 1,18,-1
 240 625 l 1,0,-1
284 864 m 2,19,-1
 332 864 l 2,20,21
 339 864 339 864 348 855 c 1,22,-1
 461 710 l 1,23,-1
 401 661 l 1,24,-1
 308 724 l 1,25,-1
 215 661 l 1,26,-1
 155 710 l 1,27,-1
 268 855 l 1,28,29
 277 864 277 864 284 864 c 2,19,-1
EndSplineSet
EndChar

StartChar: Udieresis
Encoding: 220 220 52
Width: 617
Flags: HMW
HStem: -15 171<240 311 311 334 240 418> 605 20G<40 240 240 240 377 577 577 577> 676 156<166.5 231 385.5 450>
VStem: 40 200<274 625 156 625> 119 159<725 781> 338 159<725 781> 377 200<209 274 274 625>
LayerCount: 2
Fore
SplineSet
240 625 m 1,0,-1
 240 156 l 1,1,-1
 311 156 l 2,2,3
 349 156 349 156 363 165.5 c 128,-1,4
 377 175 377 175 377 209 c 2,5,-1
 377 625 l 1,6,-1
 577 625 l 1,7,-1
 577 274 l 2,8,9
 577 189 577 189 566 137 c 128,-1,10
 555 85 555 85 525 49 c 128,-1,11
 495 13 495 13 443 -1 c 128,-1,12
 391 -15 391 -15 308 -15 c 128,-1,13
 225 -15 225 -15 173.5 -1 c 128,-1,14
 122 13 122 13 92 49 c 128,-1,15
 62 85 62 85 51 137 c 128,-1,16
 40 189 40 189 40 274 c 2,17,-1
 40 625 l 1,18,-1
 240 625 l 1,0,-1
135.5 693 m 128,-1,20
 119 710 119 710 119 753.5 c 128,-1,21
 119 797 119 797 135.5 814.5 c 128,-1,22
 152 832 152 832 198.5 832 c 128,-1,23
 245 832 245 832 261.5 814.5 c 128,-1,24
 278 797 278 797 278 753.5 c 128,-1,25
 278 710 278 710 262 693 c 128,-1,26
 246 676 246 676 199 676 c 128,-1,19
 152 676 152 676 135.5 693 c 128,-1,20
354.5 693 m 128,-1,28
 338 710 338 710 338 753.5 c 128,-1,29
 338 797 338 797 354.5 814.5 c 128,-1,30
 371 832 371 832 417.5 832 c 128,-1,31
 464 832 464 832 480.5 814.5 c 128,-1,32
 497 797 497 797 497 753.5 c 128,-1,33
 497 710 497 710 481 693 c 128,-1,34
 465 676 465 676 418 676 c 128,-1,27
 371 676 371 676 354.5 693 c 128,-1,28
EndSplineSet
EndChar

StartChar: Ugrave
Encoding: 217 217 53
Width: 617
Flags: HMW
HStem: -15 171<240 311 311 334 240 418> 605 20G<40 240 240 240 377 577 577 577> 664 21G<382 382> 844 20G<219.5 225>
VStem: 40 200<274 625 156 625> 377 200<209 274 274 625>
LayerCount: 2
Fore
SplineSet
240 625 m 1,0,-1
 240 156 l 1,1,-1
 311 156 l 2,2,3
 349 156 349 156 363 165.5 c 128,-1,4
 377 175 377 175 377 209 c 2,5,-1
 377 625 l 1,6,-1
 577 625 l 1,7,-1
 577 274 l 2,8,9
 577 189 577 189 566 137 c 128,-1,10
 555 85 555 85 525 49 c 128,-1,11
 495 13 495 13 443 -1 c 128,-1,12
 391 -15 391 -15 308 -15 c 128,-1,13
 225 -15 225 -15 173.5 -1 c 128,-1,14
 122 13 122 13 92 49 c 128,-1,15
 62 85 62 85 51 137 c 128,-1,16
 40 189 40 189 40 274 c 2,17,-1
 40 625 l 1,18,-1
 240 625 l 1,0,-1
382 664 m 1,19,-1
 208 699 l 2,20,21
 192 702 192 702 182 711 c 2,22,-1
 137 750 l 1,23,24
 133 756 133 756 133 762.25 c 0,25,26
 133 768.5 133 768.5 142 779 c 2,27,-1
 205 853 l 2,28,29
 214 864 214 864 221 864 c 0,30,31
 228 864 228 864 234 860 c 2,32,-1
 423 721 l 1,33,-1
 382 664 l 1,19,-1
EndSplineSet
EndChar

StartChar: V
Encoding: 86 86 54
Width: 602
Flags: HMW
HStem: 0 21G<155 447 155 155> 605 20G<0 211 211 211 391 602 602 602>
LayerCount: 2
Fore
SplineSet
391 625 m 1,0,-1
 602 625 l 1,1,-1
 447 0 l 1,2,-1
 155 0 l 1,3,-1
 0 625 l 1,4,-1
 211 625 l 1,5,-1
 296 228 l 1,6,-1
 305 228 l 1,7,-1
 391 625 l 1,0,-1
EndSplineSet
EndChar

StartChar: W
Encoding: 87 87 55
Width: 821
Flags: HMW
HStem: 0 21G<98 359 98 98 462 723 462 462> 605 20G<0 209 209 209 334 487 487 487 612 821 821 821>
LayerCount: 2
Fore
SplineSet
612 625 m 1,0,-1
 821 625 l 1,1,-1
 723 0 l 1,2,-1
 462 0 l 1,3,-1
 416 230 l 1,4,-1
 404 230 l 1,5,-1
 359 0 l 1,6,-1
 98 0 l 1,7,-1
 0 625 l 1,8,-1
 209 625 l 1,9,-1
 256 276 l 1,10,-1
 262 276 l 1,11,-1
 334 625 l 1,12,-1
 487 625 l 1,13,-1
 558 276 l 1,14,-1
 564 276 l 1,15,-1
 612 625 l 1,0,-1
EndSplineSet
EndChar

StartChar: X
Encoding: 88 88 56
Width: 592
Flags: HMW
HStem: 0 21G<0 212 0 0 370 592 370 370> 605 20G<0 227 227 227 375 592 592 592>
LayerCount: 2
Fore
SplineSet
227 625 m 1,0,-1
 296 458 l 1,1,-1
 306 458 l 1,2,-1
 375 625 l 1,3,-1
 592 625 l 1,4,-1
 453 323 l 1,5,-1
 592 0 l 1,6,-1
 370 0 l 1,7,-1
 295 180 l 1,8,-1
 286 180 l 1,9,-1
 212 0 l 1,10,-1
 0 0 l 1,11,-1
 136 317 l 1,12,-1
 0 625 l 1,13,-1
 227 625 l 1,0,-1
EndSplineSet
EndChar

StartChar: Y
Encoding: 89 89 57
Width: 560
Flags: HMW
HStem: 0 21G<180 380 180 180> 605 20G<0 221 221 221 339 560 560 560>
VStem: 180 200<0 170 0 170>
LayerCount: 2
Fore
SplineSet
221 625 m 1,0,-1
 276 405 l 1,1,-1
 283 405 l 1,2,-1
 339 625 l 1,3,-1
 560 625 l 1,4,-1
 380 170 l 1,5,-1
 380 0 l 1,6,-1
 180 0 l 1,7,-1
 180 170 l 1,8,-1
 0 625 l 1,9,-1
 221 625 l 1,0,-1
EndSplineSet
EndChar

StartChar: Ydieresis
Encoding: 376 376 59
Width: 560
Flags: HMW
HStem: 0 21G<180 380 180 180> 605 20G<0 221 221 221 339 560 560 560> 676 156<138.5 203 357.5 422>
VStem: 91 159<725 781> 180 200<0 170 0 170> 310 159<725 781>
LayerCount: 2
Fore
SplineSet
221 625 m 1,0,-1
 276 405 l 1,1,-1
 283 405 l 1,2,-1
 339 625 l 1,3,-1
 560 625 l 1,4,-1
 380 170 l 1,5,-1
 380 0 l 1,6,-1
 180 0 l 1,7,-1
 180 170 l 1,8,-1
 0 625 l 1,9,-1
 221 625 l 1,0,-1
107.5 693 m 128,-1,11
 91 710 91 710 91 753.5 c 128,-1,12
 91 797 91 797 107.5 814.5 c 128,-1,13
 124 832 124 832 170.5 832 c 128,-1,14
 217 832 217 832 233.5 814.5 c 128,-1,15
 250 797 250 797 250 753.5 c 128,-1,16
 250 710 250 710 234 693 c 128,-1,17
 218 676 218 676 171 676 c 128,-1,10
 124 676 124 676 107.5 693 c 128,-1,11
326.5 693 m 128,-1,19
 310 710 310 710 310 753.5 c 128,-1,20
 310 797 310 797 326.5 814.5 c 128,-1,21
 343 832 343 832 389.5 832 c 128,-1,22
 436 832 436 832 452.5 814.5 c 128,-1,23
 469 797 469 797 469 753.5 c 128,-1,24
 469 710 469 710 453 693 c 128,-1,25
 437 676 437 676 390 676 c 128,-1,18
 343 676 343 676 326.5 693 c 128,-1,19
EndSplineSet
EndChar

StartChar: Z
Encoding: 90 90 60
Width: 589
Flags: HMW
HStem: 0 160<310 564 310 564> 465 160<68 278 68 68>
LayerCount: 2
Fore
SplineSet
564 0 m 1,0,-1
 25 0 l 1,1,-1
 25 125 l 1,2,-1
 281 459 l 1,3,-1
 278 465 l 1,4,-1
 68 465 l 1,5,-1
 50 625 l 1,6,-1
 560 625 l 1,7,-1
 560 500 l 1,8,-1
 307 166 l 1,9,-1
 310 160 l 1,10,-1
 564 160 l 1,11,-1
 564 0 l 1,0,-1
EndSplineSet
EndChar

StartChar: a
Encoding: 97 97 62
Width: 567
Flags: HMW
HStem: -15 146<217 220.5> 0 21G<427 527 427 427> 214 116<266 327 287 327 287 327> 368 147<248.5 283.5>
VStem: 15 202<131 172 131 218> 327 200<167 214 214 214 330 350 0 366 0 366>
LayerCount: 2
Fore
SplineSet
287 515 m 0,0,1
 527 515 527 515 527 350 c 2,2,-1
 527 0 l 1,3,-1
 427 0 l 1,4,-1
 370 57 l 1,5,6
 341 23 341 23 291 4 c 128,-1,7
 241 -15 241 -15 196.5 -15 c 128,-1,8
 152 -15 152 -15 125 -8 c 128,-1,9
 98 -1 98 -1 71.5 16 c 0,10,11
 15 52.2452830189 15 52.2452830189 15 150 c 0,12,13
 15 330 15 330 287 330 c 2,14,-1
 327 330 l 1,15,-1
 327 366 l 1,16,17
 295 368 295 368 274 368 c 0,18,19
 161 368 161 368 80 341 c 1,20,-1
 56 484 l 1,21,22
 156 515 156 515 287 515 c 0,0,1
217 172 m 2,23,-1
 217 131 l 1,24,-1
 258 131 l 2,25,26
 302 131 302 131 314.5 141 c 128,-1,27
 327 151 327 151 327 167 c 2,28,-1
 327 214 l 1,29,-1
 286 214 l 2,30,31
 250 214 250 214 233.5 206.5 c 128,-1,32
 217 199 217 199 217 172 c 2,23,-1
EndSplineSet
EndChar

StartChar: acircumflex
Encoding: 226 226 64
Width: 567
Flags: HMW
HStem: -15 146<217 220.5> 0 21G<427 527 427 427> 214 116<266 327 287 327 287 327> 368 147<248.5 283.5> 537 21G<187 187 373 373> 720 20G<256 304 304 307.5>
VStem: 15 202<131 172 131 218> 327 200<167 214 214 214 330 350 0 366 0 366>
LayerCount: 2
Fore
SplineSet
287 515 m 0,0,1
 527 515 527 515 527 350 c 2,2,-1
 527 0 l 1,3,-1
 427 0 l 1,4,-1
 370 57 l 1,5,6
 341 23 341 23 291 4 c 128,-1,7
 241 -15 241 -15 196.5 -15 c 128,-1,8
 152 -15 152 -15 125 -8 c 128,-1,9
 98 -1 98 -1 71.5 16 c 0,10,11
 15 52.2452830189 15 52.2452830189 15 150 c 0,12,13
 15 330 15 330 287 330 c 2,14,-1
 327 330 l 1,15,-1
 327 366 l 1,16,17
 295 368 295 368 274 368 c 0,18,19
 161 368 161 368 80 341 c 1,20,-1
 56 484 l 1,21,22
 156 515 156 515 287 515 c 0,0,1
217 172 m 2,23,-1
 217 131 l 1,24,-1
 258 131 l 2,25,26
 302 131 302 131 314.5 141 c 128,-1,27
 327 151 327 151 327 167 c 2,28,-1
 327 214 l 1,29,-1
 286 214 l 2,30,31
 250 214 250 214 233.5 206.5 c 128,-1,32
 217 199 217 199 217 172 c 2,23,-1
256 740 m 2,33,-1
 304 740 l 2,34,35
 311 740 311 740 320 731 c 1,36,-1
 433 586 l 1,37,-1
 373 537 l 1,38,-1
 280 600 l 1,39,-1
 187 537 l 1,40,-1
 127 586 l 1,41,-1
 240 731 l 1,42,43
 249 740 249 740 256 740 c 2,33,-1
EndSplineSet
EndChar

StartChar: acute
Encoding: 180 180 65
Width: 429
Flags: HMW
HStem: 539 21G<111 111> 719 20G<268 273.5>
LayerCount: 2
Fore
SplineSet
285 574 m 2,0,-1
 111 539 l 1,1,-1
 70 596 l 1,2,-1
 259 735 l 2,3,4
 265 739 265 739 272 739 c 0,5,6
 279 739 279 739 288 728 c 2,7,-1
 351 654 l 2,8,9
 360 643.5 360 643.5 360 637.25 c 0,10,11
 360 631 360 631 357.5 627.5 c 0,12,13
 355 624 355 624 311 586 c 0,14,15
 301 577 301 577 285 574 c 2,0,-1
EndSplineSet
EndChar

StartChar: ae
Encoding: 230 230 67
Width: 852
Flags: HMW
HStem: -15 147<577 615.5> 170 116<527 568 568 588 527 643> 214 116<266 327 287 327 287 327> 368 147<248.5 283.5>
VStem: 15 202<131 172 131 218> 327 200<167 170 135 214 135 214 135 366 135 366> 637 185<328 369 369 369>
LayerCount: 2
Fore
SplineSet
56 484 m 1,0,1
 156 515 156 515 268.5 515 c 128,-1,2
 381 515 381 515 438 490 c 1,3,4
 491 515 491 515 577 515 c 0,5,6
 716 515 716 515 769 477 c 128,-1,7
 822 439 822 439 822 335 c 0,8,9
 822 247 822 247 758.5 208.5 c 128,-1,10
 695 170 695 170 527 170 c 1,11,-1
 527 135 l 1,12,13
 557 132 557 132 587 132 c 0,14,15
 685 132 685 132 775 162 c 1,16,-1
 799 15 l 1,17,18
 687 -15 687 -15 577 -15 c 0,19,20
 430 -15 430 -15 373 60 c 1,21,22
 313 -15 313 -15 198 -15 c 0,23,24
 107 -15 107 -15 61 23.5 c 128,-1,25
 15 62 15 62 15 150 c 0,26,27
 15 330 15 330 287 330 c 2,28,-1
 327 330 l 1,29,-1
 327 366 l 1,30,31
 295 368 295 368 274 368 c 0,32,33
 161 368 161 368 80 341 c 1,34,-1
 56 484 l 1,0,1
527 327 m 2,35,-1
 527 286 l 1,36,-1
 568 286 l 2,37,38
 604 286 604 286 620.5 293.5 c 128,-1,39
 637 301 637 301 637 328 c 2,40,-1
 637 369 l 1,41,-1
 596 369 l 2,42,43
 560 369 560 369 543.5 361.5 c 128,-1,44
 527 354 527 354 527 327 c 2,35,-1
217 172 m 2,45,-1
 217 131 l 1,46,-1
 258 131 l 2,47,48
 292 131 292 131 308.5 137.5 c 128,-1,49
 325 144 325 144 327 167 c 1,50,-1
 327 214 l 1,51,-1
 286 214 l 2,52,53
 250 214 250 214 233.5 206.5 c 128,-1,54
 217 199 217 199 217 172 c 2,45,-1
EndSplineSet
EndChar

StartChar: agrave
Encoding: 224 224 68
Width: 567
Flags: HMW
HStem: -15 146<217 220.5> 0 21G<427 527 427 427> 214 116<266 327 287 327 287 327> 368 147<248.5 283.5> 539 21G<354 354> 719 20G<191.5 197>
VStem: 15 202<131 172 131 218> 327 200<167 214 214 214 330 350 0 366 0 366>
LayerCount: 2
Fore
SplineSet
287 515 m 0,0,1
 527 515 527 515 527 350 c 2,2,-1
 527 0 l 1,3,-1
 427 0 l 1,4,-1
 370 57 l 1,5,6
 341 23 341 23 291 4 c 128,-1,7
 241 -15 241 -15 196.5 -15 c 128,-1,8
 152 -15 152 -15 125 -8 c 128,-1,9
 98 -1 98 -1 71.5 16 c 0,10,11
 15 52.2452830189 15 52.2452830189 15 150 c 0,12,13
 15 330 15 330 287 330 c 2,14,-1
 327 330 l 1,15,-1
 327 366 l 1,16,17
 295 368 295 368 274 368 c 0,18,19
 161 368 161 368 80 341 c 1,20,-1
 56 484 l 1,21,22
 156 515 156 515 287 515 c 0,0,1
217 172 m 2,23,-1
 217 131 l 1,24,-1
 258 131 l 2,25,26
 302 131 302 131 314.5 141 c 128,-1,27
 327 151 327 151 327 167 c 2,28,-1
 327 214 l 1,29,-1
 286 214 l 2,30,31
 250 214 250 214 233.5 206.5 c 128,-1,32
 217 199 217 199 217 172 c 2,23,-1
354 539 m 1,33,-1
 180 574 l 2,34,35
 164 577 164 577 154 586 c 2,36,-1
 109 625 l 1,37,38
 105 631 105 631 105 637.25 c 128,-1,39
 105 643.5 105 643.5 114 654 c 2,40,-1
 177 728 l 2,41,42
 186 739 186 739 193 739 c 128,-1,43
 200 739 200 739 206 735 c 2,44,-1
 395 596 l 1,45,-1
 354 539 l 1,33,-1
EndSplineSet
EndChar

StartChar: ampersand
Encoding: 38 38 69
Width: 664
Flags: HMW
HStem: -115 21G<439 439> -15 21G<171 250.5> 242 140<287 374 287 654 562 632 562 562> 457 168<216 348 216 437>
VStem: 45 242<185.5 201 201 221> 84 203<396 415>
LayerCount: 2
Fore
SplineSet
439 -115 m 1,0,-1
 414 21 l 1,1,2
 293 -15 293 -15 220 -15 c 0,3,4
 45 -15 45 -15 45 180 c 0,5,6
 45 345 45 345 169 363 c 1,7,-1
 169 367 l 1,8,-1
 84 396 l 1,9,10
 84 529 84 529 131.5 577 c 128,-1,11
 179 625 179 625 272.5 625 c 0,12,13
 366 625 366 625 466 604 c 1,14,-1
 437 457 l 1,15,-1
 348 457 l 2,16,17
 315 457 315 457 301 448.5 c 128,-1,18
 287 440 287 440 287 415 c 2,19,-1
 287 382 l 1,20,-1
 654 382 l 1,21,-1
 632 242 l 1,22,-1
 562 242 l 1,23,-1
 562 -100 l 1,24,-1
 439 -115 l 1,0,-1
335 156 m 0,25,26
 364 156 364 156 389 160 c 1,27,-1
 374 242 l 1,28,-1
 287 242 l 1,29,-1
 287 201 l 2,30,31
 287 156 287 156 335 156 c 0,25,26
EndSplineSet
EndChar

StartChar: asterisk
Encoding: 42 42 71
Width: 536
Flags: HMW
HStem: 204 21G<343 351> 205 21G<181.5 189> 645 20G<228 304 304 318.5>
LayerCount: 2
Fore
SplineSet
341 580 m 1,0,-1
 312 491 l 1,1,-1
 387 548 l 1,2,-1
 441 564 l 2,3,4
 449 566 449 566 452 566 c 0,5,6
 470 566 470 566 479 538 c 2,7,-1
 502 467 l 2,8,9
 506 455 506 455 506 446 c 0,10,11
 506 427 506 427 489 422 c 2,12,-1
 433 406 l 1,13,-1
 338 406 l 1,14,-1
 416 351 l 1,15,-1
 449 304 l 2,16,17
 455 294 455 294 455 285 c 0,18,19
 455 276 455 276 435 260 c 1,20,-1
 375 216 l 2,21,22
 360 204 360 204 348 204 c 0,23,24
 336 204 336 204 328 215 c 1,25,-1
 286 263 l 1,26,-1
 264 345 l 1,27,-1
 238 262 l 1,28,-1
 204 216 l 2,29,30
 196 205 196 205 184.5 205 c 0,31,32
 173 205 173 205 158 216 c 2,33,-1
 97 260 l 2,34,35
 76 275 76 275 76 285.75 c 0,36,37
 76 296.5 76 296.5 82 304 c 2,38,-1
 117 351 l 1,39,-1
 190 404 l 1,40,-1
 99 404 l 1,41,-1
 44 422 l 2,42,43
 26 427 26 427 26 446 c 0,44,45
 26 455 26 455 30 466 c 2,46,-1
 53 538 l 2,47,48
 63 567 63 567 80 567 c 0,49,50
 84 567 84 567 90 565 c 2,51,-1
 146 547 l 1,52,-1
 220 492 l 1,53,-1
 191 580 l 1,54,-1
 191 638 l 2,55,56
 191 665 191 665 228 665 c 2,57,-1
 304 665 l 2,58,59
 341 665 341 665 341 638 c 2,60,-1
 341 580 l 1,0,-1
EndSplineSet
EndChar

StartChar: at
Encoding: 64 64 72
Width: 867
Flags: HMW
HStem: -165 115<472 492.5> -9 21G<446.5 521.5> 0 21G<717 817 717 717> 433 167<417 497.5>
VStem: 40 215<176 259 259 290 25 393.5> 331 206<131 187 131 227> 617 200<167 229 229 229 350 407 0 423 0 423>
LayerCount: 2
Fore
SplineSet
537 187 m 2,0,-1
 537 131 l 1,1,-1
 548 131 l 2,2,3
 582 131 582 131 598.5 137.5 c 128,-1,4
 615 144 615 144 617 167 c 1,5,-1
 617 229 l 1,6,-1
 606 229 l 2,7,8
 570 229 570 229 553.5 221.5 c 128,-1,9
 537 214 537 214 537 187 c 2,0,-1
40 176 m 2,10,-1
 40 259 l 2,11,12
 40 481.444444444 40 481.444444444 210 557 c 0,13,14
 306.75 600 306.75 600 475.875 600 c 128,-1,15
 645 600 645 600 731 553 c 128,-1,16
 817 506 817 506 817 407 c 2,17,-1
 817 0 l 1,18,-1
 717 0 l 1,19,-1
 660 63 l 1,20,21
 600 -9 600 -9 484 -9 c 0,22,23
 331 -9 331 -9 331 159 c 0,24,25
 331 350 331 350 577 350 c 2,26,-1
 617 350 l 1,27,-1
 617 423 l 1,28,29
 565 433 565 433 498.5 433 c 128,-1,30
 432 433 432 433 406.5 431.5 c 128,-1,31
 381 430 381 430 349 422 c 128,-1,32
 317 414 317 414 299 399.5 c 128,-1,33
 281 385 281 385 268 357 c 128,-1,34
 255 329 255 329 255 290 c 2,35,-1
 255 93 l 2,36,37
 255 54 255 54 268 26 c 128,-1,38
 281 -2 281 -2 299 -16.5 c 128,-1,39
 317 -31 317 -31 349 -39 c 0,40,41
 393 -50 393 -50 472 -50 c 2,42,-1
 660 -50 l 1,43,-1
 660 -144 l 1,44,45
 555 -165 555 -165 469.5 -165 c 128,-1,46
 384 -165 384 -165 324 -155.5 c 128,-1,47
 264 -146 264 -146 210 -122 c 128,-1,48
 156 -98 156 -98 119.5 -60 c 0,49,50
 40 22.7671232877 40 22.7671232877 40 176 c 2,10,-1
EndSplineSet
EndChar

StartChar: atilde
Encoding: 227 227 73
Width: 567
Flags: HMW
HStem: -15 146<217 220.5> 0 21G<427 527 427 427> 214 116<266 327 287 327 287 327> 368 147<248.5 283.5> 543 21G<291 324.5> 701 20G<237.5 271>
VStem: 15 202<131 172 131 218> 327 200<167 214 214 214 330 350 0 366 0 366>
LayerCount: 2
Fore
SplineSet
287 515 m 0,0,1
 527 515 527 515 527 350 c 2,2,-1
 527 0 l 1,3,-1
 427 0 l 1,4,-1
 370 57 l 1,5,6
 341 23 341 23 291 4 c 128,-1,7
 241 -15 241 -15 196.5 -15 c 128,-1,8
 152 -15 152 -15 125 -8 c 128,-1,9
 98 -1 98 -1 71.5 16 c 0,10,11
 15 52.2452830189 15 52.2452830189 15 150 c 0,12,13
 15 330 15 330 287 330 c 2,14,-1
 327 330 l 1,15,-1
 327 366 l 1,16,17
 295 368 295 368 274 368 c 0,18,19
 161 368 161 368 80 341 c 1,20,-1
 56 484 l 1,21,22
 156 515 156 515 287 515 c 0,0,1
217 172 m 2,23,-1
 217 131 l 1,24,-1
 258 131 l 2,25,26
 302 131 302 131 314.5 141 c 128,-1,27
 327 151 327 151 327 167 c 2,28,-1
 327 214 l 1,29,-1
 286 214 l 2,30,31
 250 214 250 214 233.5 206.5 c 128,-1,32
 217 199 217 199 217 172 c 2,23,-1
424 716 m 1,33,-1
 474 635 l 1,34,35
 354.874948527 555.270634841 354.874948527 555.270634841 340.304842248 549.13531742 c 128,-1,36
 325.734735969 543 325.734735969 543 311.867367984 543 c 128,-1,37
 298 543 298 543 289.5 545 c 128,-1,38
 281 547 281 547 271 552.5 c 128,-1,39
 261 558 261 558 255.5 562 c 128,-1,40
 250 566 250 566 237.5 575 c 128,-1,41
 225 584 225 584 220 588 c 1,42,-1
 138 548 l 1,43,-1
 88 629 l 1,44,45
 207.125051473 708.729365159 207.125051473 708.729365159 221.695157752 714.86468258 c 128,-1,46
 236.265264031 721 236.265264031 721 250.132632016 721 c 128,-1,47
 264 721 264 721 272.5 719 c 128,-1,48
 281 717 281 717 291 711.5 c 128,-1,49
 301 706 301 706 306.5 702 c 128,-1,50
 312 698 312 698 324.5 689 c 128,-1,51
 337 680 337 680 342 676 c 1,52,-1
 424 716 l 1,33,-1
EndSplineSet
EndChar

StartChar: b
Encoding: 98 98 74
Width: 595
Flags: HMW
HStem: -15 146<270.5 281 281 301 250 389> 369 146<300 435.5 329.5 350> 645 20G<250 250>
VStem: 50 200<131 332 499 650 650 650> 350 215<173 312.5 152.5 369 152.5 369>
LayerCount: 2
Fore
SplineSet
50 25 m 1,0,-1
 50 650 l 1,1,-1
 250 665 l 1,2,-1
 250 499 l 1,3,4
 288 515 288 515 349.5 515 c 128,-1,5
 411 515 411 515 455 492 c 128,-1,6
 499 469 499 469 522 429 c 0,7,8
 565 354.217391304 565 354.217391304 565 250 c 0,9,10
 565 109 565 109 500 47 c 128,-1,11
 435 -15 435 -15 303 -15 c 128,-1,12
 171 -15 171 -15 50 25 c 1,0,-1
250 332 m 1,13,-1
 250 131 l 1,14,-1
 281 131 l 2,15,16
 317 131 317 131 333.5 138.5 c 128,-1,17
 350 146 350 146 350 173 c 2,18,-1
 350 369 l 1,19,-1
 319 369 l 2,20,21
 297 369 297 369 284 367 c 128,-1,22
 271 365 271 365 261 356.5 c 128,-1,23
 251 348 251 348 250 332 c 1,13,-1
EndSplineSet
EndChar

StartChar: backslash
Encoding: 92 92 75
Width: 503
Flags: HMW
HStem: -40 21G<418 432 432 503> 645 20G<0 71 71 85>
LayerCount: 2
Fore
SplineSet
389 -15 m 2,0,-1
 0 665 l 1,1,-1
 71 665 l 2,2,3
 90 665 90 665 98 659.5 c 128,-1,4
 106 654 106 654 114 640 c 2,5,-1
 503 -40 l 1,6,-1
 432 -40 l 2,7,8
 413 -40 413 -40 405 -34.5 c 128,-1,9
 397 -29 397 -29 389 -15 c 2,0,-1
EndSplineSet
EndChar

StartChar: bar
Encoding: 124 124 76
Width: 420
Flags: HMW
HStem: -180 21G<150 150 150 270> 684 20G<150 270 270 270>
VStem: 150 120<-180 704 -180 704>
LayerCount: 2
Fore
SplineSet
150 -180 m 1,0,-1
 150 704 l 1,1,-1
 270 704 l 1,2,-1
 270 -180 l 1,3,-1
 150 -180 l 1,0,-1
EndSplineSet
Position2: "'case' Case-Sensitive Forms in Latin lookup 0 subtable" dx=0 dy=70 dh=0 dv=0
EndChar

StartChar: braceleft
Encoding: 123 123 77
Width: 339
Flags: HMW
HStem: -146 21G<235 300> 590 20G<235 300>
VStem: 57 184
LayerCount: 2
Fore
SplineSet
241 102 m 1,0,-1
 226 8 l 1,1,-1
 309 1 l 1,2,-1
 300 -146 l 1,3,4
 169.428571429 -146 169.428571429 -146 125.5 -131 c 0,5,6
 73.4640316206 -113.231620553 73.4640316206 -113.231620553 59 -83.5 c 0,7,8
 50 -65 50 -65 50 -41 c 1,9,-1
 65 159 l 1,10,-1
 0 175 l 1,11,-1
 0 287 l 1,12,-1
 65 303 l 1,13,-1
 50 505 l 1,14,15
 50 555.297297297 50 555.297297297 86.5 577 c 0,16,17
 125.278246206 600.057335582 125.278246206 600.057335582 167.639123103 604.028667791 c 0,18,19
 231.333333333 610 231.333333333 610 300 610 c 1,20,-1
 309 463 l 1,21,22
 306 463 306 463 226 456 c 1,23,-1
 241 360 l 1,24,25
 241 270 241 270 185 237 c 1,26,-1
 185 225 l 1,27,28
 241 192 241 192 241 102 c 1,0,-1
EndSplineSet
Position2: "'case' Case-Sensitive Forms in Latin lookup 0 subtable" dx=0 dy=70 dh=0 dv=0
EndChar

StartChar: braceright
Encoding: 125 125 78
Width: 339
Flags: HMW
HStem: -146 21G<39 104> 590 20G<39 104>
VStem: 34 247 98 183
LayerCount: 2
Fore
SplineSet
113 8 m 1,0,-1
 98 102 l 1,1,2
 98 192 98 192 154 225 c 1,3,-1
 154 237 l 1,4,5
 98 270 98 270 98 360 c 1,6,-1
 113 456 l 1,7,8
 33 463 33 463 30 463 c 1,9,-1
 39 610 l 1,10,11
 169.571428571 610 169.571428571 610 213.5 595 c 0,12,13
 265.535968379 577.231620553 265.535968379 577.231620553 280 547.5 c 0,14,15
 289 529 289 529 289 505 c 1,16,-1
 274 303 l 1,17,-1
 339 287 l 1,18,-1
 339 175 l 1,19,-1
 274 159 l 1,20,-1
 289 -41 l 1,21,22
 289 -91.2972972973 289 -91.2972972973 252.5 -113 c 0,23,24
 213.721753794 -136.057335582 213.721753794 -136.057335582 171.360876897 -140.028667791 c 0,25,26
 107.666666667 -146 107.666666667 -146 39 -146 c 1,27,-1
 30 1 l 1,28,-1
 113 8 l 1,0,-1
EndSplineSet
Position2: "'case' Case-Sensitive Forms in Latin lookup 0 subtable" dx=0 dy=70 dh=0 dv=0
EndChar

StartChar: bracketleft
Encoding: 91 91 79
Width: 339
Flags: HMW
HStem: -146 21G<235 300> 590 20G<235 300>
VStem: 50 176<8 456 8 505 8 555>
LayerCount: 2
Fore
SplineSet
50 -41 m 2,0,-1
 50 505 l 2,1,2
 50 555.297297297 50 555.297297297 86.5 577 c 0,3,4
 125.278246206 600.057335582 125.278246206 600.057335582 167.639123103 604.028667791 c 0,5,6
 231.333333333 610 231.333333333 610 300 610 c 1,7,-1
 309 463 l 1,8,9
 306 463 306 463 226 456 c 1,10,-1
 226 8 l 1,11,-1
 309 1 l 1,12,-1
 300 -146 l 1,13,14
 169.428571429 -146 169.428571429 -146 125.5 -131 c 0,15,16
 73.4640316206 -113.231620553 73.4640316206 -113.231620553 59 -83.5 c 0,17,18
 50 -65 50 -65 50 -41 c 2,0,-1
EndSplineSet
Position2: "'case' Case-Sensitive Forms in Latin lookup 0 subtable" dx=0 dy=70 dh=0 dv=0
EndChar

StartChar: bracketright
Encoding: 93 93 80
Width: 339
Flags: HMW
HStem: -146 21G<39 104> 590 20G<39 104>
VStem: 113 176<8 456 456 456>
LayerCount: 2
Fore
SplineSet
289 505 m 2,0,-1
 289 -41 l 2,1,2
 289 -91.2972972973 289 -91.2972972973 252.5 -113 c 0,3,4
 213.721753794 -136.057335582 213.721753794 -136.057335582 171.360876897 -140.028667791 c 0,5,6
 107.666666667 -146 107.666666667 -146 39 -146 c 1,7,-1
 30 1 l 1,8,-1
 113 8 l 1,9,-1
 113 456 l 1,10,11
 33 463 33 463 30 463 c 1,12,-1
 39 610 l 1,13,14
 169.571428571 610 169.571428571 610 213.5 595 c 0,15,16
 265.535968379 577.231620553 265.535968379 577.231620553 280 547.5 c 0,17,18
 289 529 289 529 289 505 c 2,0,-1
EndSplineSet
Position2: "'case' Case-Sensitive Forms in Latin lookup 0 subtable" dx=0 dy=70 dh=0 dv=0
EndChar

StartChar: breve
Encoding: 728 728 81
Width: 385
Flags: HMW
HStem: 550 99<178 206 178 229.5> 684 20G<127 127 257 257>
LayerCount: 2
Fore
SplineSet
127 704 m 1,0,1
 133 678 133 678 151.5 663.5 c 128,-1,2
 170 649 170 649 192 649 c 128,-1,3
 214 649 214 649 232.5 663.5 c 128,-1,4
 251 678 251 678 257 704 c 1,5,-1
 363 689 l 1,6,7
 347 622 347 622 299.5 586 c 128,-1,8
 252 550 252 550 192 550 c 128,-1,9
 132 550 132 550 84 586 c 128,-1,10
 36 622 36 622 21 689 c 1,11,-1
 127 704 l 1,0,1
EndSplineSet
EndChar

StartChar: brokenbar
Encoding: 166 166 82
Width: 420
Flags: HMW
HStem: -180 21G<150 150 150 270> 684 20G<150 270 270 270>
VStem: 150 120<-180 156 -180 156 368 704>
LayerCount: 2
Fore
SplineSet
150 368 m 1,0,-1
 150 704 l 1,1,-1
 270 704 l 1,2,-1
 270 368 l 1,3,-1
 150 368 l 1,0,-1
150 -180 m 1,4,-1
 150 156 l 1,5,-1
 270 156 l 1,6,-1
 270 -180 l 1,7,-1
 150 -180 l 1,4,-1
EndSplineSet
Position2: "'case' Case-Sensitive Forms in Latin lookup 0 subtable" dx=0 dy=70 dh=0 dv=0
EndChar

StartChar: bullet
Encoding: 8226 8226 83
Width: 342
Flags: HMW
HStem: 112 21G<114 229> 368 20G<114 229>
LayerCount: 2
Fore
SplineSet
30 249 m 128,-1,1
 30 326 30 326 59 357 c 128,-1,2
 88 388 88 388 171.5 388 c 0,3,4
 255 388 255 388 283.5 357 c 128,-1,5
 312 326 312 326 312 249 c 128,-1,6
 312 172 312 172 283.5 142 c 128,-1,7
 255 112 255 112 171.5 112 c 0,8,9
 88 112 88 112 59 142 c 128,-1,0
 30 172 30 172 30 249 c 128,-1,1
EndSplineSet
Position2: "'case' Case-Sensitive Forms in Latin lookup 0 subtable" dx=0 dy=70 dh=0 dv=0
EndChar

StartChar: c
Encoding: 99 99 84
Width: 459
Flags: HMW
HStem: -15 146<299.5 323> 369 146<295 313.5 200 332.5>
VStem: 30 215<162.5 316 137 337.5>
LayerCount: 2
Fore
SplineSet
417 150 m 1,0,-1
 429 6 l 1,1,2
 377 -15 377 -15 295 -15 c 0,3,4
 155 -15 155 -15 92.5 50.5 c 128,-1,5
 30 116 30 116 30 250 c 128,-1,6
 30 384 30 384 92.5 449.5 c 128,-1,7
 155 515 155 515 295 515 c 0,8,9
 382 515 382 515 429 494 c 1,10,-1
 405 358 l 1,11,12
 352 369 352 369 321 369 c 0,13,14
 245 369 245 369 245 316 c 2,15,-1
 245 137 l 1,16,17
 274 131 274 131 319.5 131 c 0,18,19
 365 131 365 131 417 150 c 1,0,-1
EndSplineSet
EndChar

StartChar: caron
Encoding: 711 711 85
Width: 385
Flags: HMW
HStem: 537 21G<164.5 168 168 216> 720 20G<99 99 285 285>
LayerCount: 2
Fore
SplineSet
216 537 m 2,0,-1
 168 537 l 2,1,2
 161 537 161 537 152 546 c 1,3,-1
 39 691 l 1,4,-1
 99 740 l 1,5,-1
 192 677 l 1,6,-1
 285 740 l 1,7,-1
 345 691 l 1,8,-1
 232 546 l 1,9,10
 223 537 223 537 216 537 c 2,0,-1
EndSplineSet
EndChar

StartChar: cedilla
Encoding: 184 184 87
Width: 469
Flags: HMW
HStem: -165 21G<207 260> 1 20G<194 255 255 255>
VStem: 194 139<-103 21 -103 21>
LayerCount: 2
Fore
SplineSet
194 -26 m 2,0,-1
 194 21 l 1,1,-1
 255 21 l 1,2,3
 291 8 291 8 312 -20.5 c 128,-1,4
 333 -49 333 -49 333 -83 c 0,5,6
 333 -117 333 -117 304.5 -141 c 128,-1,7
 276 -165 276 -165 226.5 -165 c 0,8,9
 177 -165 177 -165 117 -146 c 1,10,-1
 128 -58 l 1,11,-1
 161 -58 l 2,12,13
 182 -58 182 -58 188 -52.5 c 128,-1,14
 194 -47 194 -47 194 -26 c 2,0,-1
EndSplineSet
EndChar

StartChar: cent
Encoding: 162 162 88
Width: 459
Flags: HMW
HStem: -64 21G<164 293 164 164> 580 20G<191 319 319 319>
VStem: 39 212
LayerCount: 2
Fore
SplineSet
39 245 m 0,0,1
 39 464 39 464 187 504 c 1,2,-1
 191 600 l 1,3,-1
 319 600 l 1,4,-1
 315 513 l 1,5,6
 372 508 372 508 419 496 c 1,7,-1
 391 351 l 1,8,-1
 321 351 l 2,9,10
 301 351 301 351 289 348.5 c 128,-1,11
 277 346 277 346 266 334.5 c 128,-1,12
 255 323 255 323 254 302 c 2,13,-1
 248 189 l 1,14,15
 274 186 274 186 313.5 186 c 0,16,17
 353 186 353 186 401 201 c 1,18,-1
 407 56 l 1,19,20
 357 36 357 36 297 35 c 1,21,-1
 293 -64 l 1,22,-1
 164 -64 l 1,23,-1
 168 44 l 1,24,25
 99 60 99 60 69 107 c 128,-1,26
 39 154 39 154 39 245 c 0,0,1
EndSplineSet
EndChar

StartChar: circumflex
Encoding: 710 710 89
Width: 385
Flags: HMW
HStem: 537 21G<99 99 285 285> 720 20G<168 216 216 219.5>
LayerCount: 2
Fore
SplineSet
168 740 m 2,0,-1
 216 740 l 2,1,2
 223 740 223 740 232 731 c 1,3,-1
 345 586 l 1,4,-1
 285 537 l 1,5,-1
 192 600 l 1,6,-1
 99 537 l 1,7,-1
 39 586 l 1,8,-1
 152 731 l 1,9,10
 161 740 161 740 168 740 c 2,0,-1
EndSplineSet
EndChar

StartChar: colon
Encoding: 58 58 90
Width: 277
Flags: HMW
HStem: -6 21G<94.5 183> 486 20G<94.5 183>
VStem: 30 217<61 137 361 437>
LayerCount: 2
Fore
SplineSet
30 99 m 128,-1,1
 30 158 30 158 52 182 c 128,-1,2
 74 206 74 206 138.5 206 c 0,3,4
 203 206 203 206 225 182 c 128,-1,5
 247 158 247 158 247 99 c 128,-1,6
 247 40 247 40 225 17 c 128,-1,7
 203 -6 203 -6 138.5 -6 c 0,8,9
 74 -6 74 -6 52 17 c 128,-1,0
 30 40 30 40 30 99 c 128,-1,1
30 399 m 128,-1,11
 30 458 30 458 52 482 c 128,-1,12
 74 506 74 506 138.5 506 c 0,13,14
 203 506 203 506 225 482 c 128,-1,15
 247 458 247 458 247 399 c 128,-1,16
 247 340 247 340 225 317 c 128,-1,17
 203 294 203 294 138.5 294 c 0,18,19
 74 294 74 294 52 317 c 128,-1,10
 30 340 30 340 30 399 c 128,-1,11
EndSplineSet
EndChar

StartChar: comma
Encoding: 44 44 91
Width: 277
Flags: HMW
HStem: -151 21G<146 146> 186 20G<94.5 183>
VStem: 30 217<87 90 90 99 87 137>
LayerCount: 2
Fore
SplineSet
247 99 m 2,0,-1
 247 87 l 1,1,2
 244.071038251 43.0655737705 244.071038251 43.0655737705 222 0.5 c 0,3,4
 215 -13 215 -13 214 -15 c 2,5,-1
 146 -151 l 1,6,-1
 57 -122 l 1,7,-1
 90 22 l 1,8,9
 55 28 55 28 42.5 45.5 c 128,-1,10
 30 63 30 63 30 110.5 c 128,-1,11
 30 158 30 158 52 182 c 128,-1,12
 74 206 74 206 138.5 206 c 128,-1,13
 203 206 203 206 225 182 c 128,-1,14
 247 158 247 158 247 99 c 2,0,-1
EndSplineSet
EndChar

StartChar: copyright
Encoding: 169 169 92
Width: 563
Flags: HMW
HStem: 179 21G<191.5 372> 503 85<287.5 305 237.5 308> 616 20G<209.5 354> 662 20G<191.5 372>
VStem: 30 231<364 484 364 513.5> 153 108<379 483>
LayerCount: 2
Fore
SplineSet
261 364 m 1,0,-1
 294 361 l 1,1,2
 334 361 334 361 368 375 c 1,3,-1
 376 288 l 1,4,5
 341 274 341 274 294 274 c 0,6,7
 213 274 213 274 183 311 c 128,-1,8
 153 348 153 348 153 431 c 128,-1,9
 153 514 153 514 183 551 c 128,-1,10
 213 588 213 588 294 588 c 0,11,12
 346 588 346 588 376 574 c 1,13,-1
 361 496 l 1,14,15
 332 503 332 503 305.5 503 c 128,-1,16
 279 503 279 503 270 499 c 128,-1,17
 261 495 261 495 261 484 c 2,18,-1
 261 364 l 1,0,-1
30 431 m 128,-1,20
 30 558 30 558 89.5 620 c 128,-1,21
 149 682 149 682 281.5 682 c 128,-1,22
 414 682 414 682 473.5 620 c 128,-1,23
 533 558 533 558 533 431 c 128,-1,24
 533 304 533 304 473.5 241.5 c 128,-1,25
 414 179 414 179 281.5 179 c 128,-1,26
 149 179 149 179 89.5 241.5 c 128,-1,19
 30 304 30 304 30 431 c 128,-1,20
80 431 m 128,-1,28
 80 316 80 316 126 270.5 c 128,-1,29
 172 225 172 225 282 225 c 128,-1,30
 392 225 392 225 437.5 270.5 c 128,-1,31
 483 316 483 316 483 431 c 128,-1,32
 483 546 483 546 437.5 591 c 128,-1,33
 392 636 392 636 282 636 c 128,-1,34
 172 636 172 636 126 591 c 128,-1,27
 80 546 80 546 80 431 c 128,-1,28
EndSplineSet
EndChar

StartChar: d
Encoding: 100 100 93
Width: 595
Flags: HMW
HStem: -15 146<245 276 276 284.5> 0 21G<445 545 445 445> 369 131<294 314 314 345> 645 20G<545 545>
VStem: 30 215<187.5 301.5> 345 200<167 369 369 369 500 650 650 650>
LayerCount: 2
Fore
SplineSet
545 0 m 1,0,-1
 445 0 l 1,1,-1
 402 42 l 1,2,3
 358 -15 358 -15 245 -15 c 0,4,5
 184 -15 184 -15 140 8 c 128,-1,6
 96 31 96 31 73 71 c 0,7,8
 30 145.782608696 30 145.782608696 30 250 c 0,9,10
 30 377.465116279 30 377.465116279 85.5 442 c 0,11,12
 107 467 107 467 144 483.5 c 128,-1,13
 181 500 181 500 230 500 c 2,14,-1
 345 500 l 1,15,-1
 345 650 l 1,16,-1
 545 665 l 1,17,-1
 545 0 l 1,0,-1
245 327 m 2,18,-1
 245 131 l 1,19,-1
 276 131 l 2,20,21
 310 131 310 131 326.5 137.5 c 128,-1,22
 343 144 343 144 345 167 c 1,23,-1
 345 369 l 1,24,-1
 314 369 l 2,25,26
 278 369 278 369 261.5 361.5 c 128,-1,27
 245 354 245 354 245 327 c 2,18,-1
EndSplineSet
EndChar

StartChar: dagger
Encoding: 8224 8224 94
Width: 540
Flags: HMW
HStem: -50 21G<160 380 160 160> 645 20G<160 380 380 380>
VStem: 175 189
LayerCount: 2
Fore
SplineSet
510 330 m 1,0,-1
 348 350 l 1,1,-1
 380 -50 l 1,2,-1
 160 -50 l 1,3,-1
 191 350 l 1,4,-1
 30 330 l 1,5,-1
 30 520 l 1,6,-1
 185 500 l 1,7,-1
 160 665 l 1,8,-1
 380 665 l 1,9,-1
 355 497 l 1,10,-1
 510 520 l 1,11,-1
 510 330 l 1,0,-1
EndSplineSet
EndChar

StartChar: daggerdbl
Encoding: 8225 8225 95
Width: 540
Flags: HMW
HStem: -50 21G<160 380 160 160> 645 20G<160 380 380 380>
LayerCount: 2
Fore
SplineSet
510 330 m 1,0,-1
 351 350 l 1,1,-1
 347 307 l 1,2,-1
 351 264 l 1,3,-1
 510 285 l 1,4,-1
 510 95 l 1,5,-1
 364 116 l 1,6,-1
 380 -50 l 1,7,-1
 160 -50 l 1,8,-1
 175 116 l 1,9,-1
 30 95 l 1,10,-1
 30 285 l 1,11,-1
 189 265 l 1,12,-1
 193 307 l 1,13,-1
 189 350 l 1,14,-1
 30 330 l 1,15,-1
 30 520 l 1,16,-1
 175 499 l 1,17,-1
 160 665 l 1,18,-1
 380 665 l 1,19,-1
 364 499 l 1,20,-1
 510 520 l 1,21,-1
 510 330 l 1,0,-1
EndSplineSet
EndChar

StartChar: degree
Encoding: 176 176 96
Width: 407
Flags: HMW
HStem: 357 104<141.5 203 203 221.5 140 266> 600 104<187.5 208 208 265>
VStem: 30 110<473.5 562 461 588> 265 112<500 588 473.5 600 473.5 600>
LayerCount: 2
Fore
SplineSet
30 531 m 128,-1,1
 30 619 30 619 71 661.5 c 128,-1,2
 112 704 112 704 203.5 704 c 0,3,4
 295 704 295 704 336 661 c 128,-1,5
 377 618 377 618 377 530.5 c 0,6,7
 377 443 377 443 336 400 c 128,-1,8
 295 357 295 357 203.5 357 c 0,9,10
 112 357 112 357 71 400 c 128,-1,0
 30 443 30 443 30 531 c 128,-1,1
140 562 m 2,11,-1
 140 461 l 1,12,-1
 203 461 l 2,13,14
 226 461 226 461 236.5 462.5 c 128,-1,15
 247 464 247 464 256 473 c 128,-1,16
 265 482 265 482 265 500 c 2,17,-1
 265 600 l 1,18,-1
 208 600 l 2,19,20
 183 600 183 600 171 598.5 c 128,-1,21
 159 597 159 597 149.5 588.5 c 128,-1,22
 140 580 140 580 140 562 c 2,11,-1
EndSplineSet
EndChar

StartChar: dieresis
Encoding: 168 168 97
Width: 430
Flags: HMW
HStem: 552 156<73.5 138 292.5 357>
VStem: 26 159<601 657> 245 159<601 657>
LayerCount: 2
Fore
SplineSet
42.5 569 m 128,-1,1
 26 586 26 586 26 629.5 c 128,-1,2
 26 673 26 673 42.5 690.5 c 128,-1,3
 59 708 59 708 105.5 708 c 128,-1,4
 152 708 152 708 168.5 690.5 c 128,-1,5
 185 673 185 673 185 629.5 c 128,-1,6
 185 586 185 586 169 569 c 128,-1,7
 153 552 153 552 106 552 c 128,-1,0
 59 552 59 552 42.5 569 c 128,-1,1
261.5 569 m 128,-1,9
 245 586 245 586 245 629.5 c 128,-1,10
 245 673 245 673 261.5 690.5 c 128,-1,11
 278 708 278 708 324.5 708 c 128,-1,12
 371 708 371 708 387.5 690.5 c 128,-1,13
 404 673 404 673 404 629.5 c 128,-1,14
 404 586 404 586 388 569 c 128,-1,15
 372 552 372 552 325 552 c 128,-1,8
 278 552 278 552 261.5 569 c 128,-1,9
EndSplineSet
EndChar

StartChar: divide
Encoding: 247 247 98
Width: 600
Flags: HMW
HStem: 48 147<243 338 258 338> 240 144<72 527 72 527> 428 147<243 338 258 338>
VStem: 219 158<77 167 69 175 457 547>
LayerCount: 2
Fore
SplineSet
72 240 m 1,0,-1
 72 384 l 1,1,-1
 527 384 l 1,2,-1
 527 240 l 1,3,-1
 72 240 l 1,0,-1
377 547 m 2,4,-1
 377 457 l 2,5,6
 377 428 377 428 338 428 c 2,7,-1
 258 428 l 2,8,9
 219 428 219 428 219 457 c 2,10,-1
 219 547 l 2,11,12
 219 575 219 575 258 575 c 2,13,-1
 338 575 l 2,14,15
 377 575 377 575 377 547 c 2,4,-1
377 167 m 2,16,-1
 377 77 l 2,17,18
 377 48 377 48 338 48 c 2,19,-1
 258 48 l 2,20,21
 219 48 219 48 219 77 c 2,22,-1
 219 167 l 2,23,24
 219 195 219 195 258 195 c 2,25,-1
 338 195 l 2,26,27
 377 195 377 195 377 167 c 2,16,-1
EndSplineSet
EndChar

StartChar: dollar
Encoding: 36 36 99
Width: 551
Flags: HMW
HStem: -100 21G<192 321 192 192> 1 161<196 249.5 209.5 324> 698 20G<225 352 352 352>
VStem: 223 127
LayerCount: 2
Fore
SplineSet
225 718 m 1,0,-1
 352 718 l 1,1,-1
 349 638 l 1,2,3
 429 633 429 633 489 622 c 1,4,-1
 460 467 l 1,5,-1
 310 467 l 2,6,7
 275 467 275 467 263.5 456 c 128,-1,8
 252 445 252 445 251 414 c 1,9,-1
 314 407 l 2,10,11
 429 394 429 394 472.5 348 c 128,-1,12
 516 302 516 302 516 229 c 128,-1,13
 516 156 516 156 501 112.5 c 128,-1,14
 486 69 486 69 457.5 46.5 c 0,15,16
 407.221088435 6.80612244898 407.221088435 6.80612244898 324 1 c 1,17,-1
 321 -100 l 1,18,-1
 192 -100 l 1,19,-1
 196 1 l 1,20,21
 101 8 101 8 35 25 c 1,22,-1
 64 184 l 1,23,24
 147 162 147 162 238 162 c 0,25,26
 276 162 276 162 309 166 c 1,27,-1
 309 208 l 1,28,-1
 247 215 l 1,29,30
 127 227 127 227 87 285 c 0,31,32
 52 335.75 52 335.75 52 418 c 0,33,34
 52 526 52 526 96.5 575 c 128,-1,35
 141 624 141 624 222 635 c 1,36,-1
 225 718 l 1,0,-1
EndSplineSet
EndChar

StartChar: dotaccent
Encoding: 729 729 100
Width: 265
Flags: HMW
HStem: 537 21G<94 171.5> 709 20G<94 171.5>
VStem: 37 191<596.5 667>
LayerCount: 2
Fore
SplineSet
56.5 557 m 128,-1,1
 37 577 37 577 37 631.5 c 128,-1,2
 37 686 37 686 56.5 707.5 c 128,-1,3
 76 729 76 729 132.5 729 c 128,-1,4
 189 729 189 729 208.5 707.5 c 128,-1,5
 228 686 228 686 228 631.5 c 128,-1,6
 228 577 228 577 209 557 c 128,-1,7
 190 537 190 537 133 537 c 128,-1,0
 76 537 76 537 56.5 557 c 128,-1,1
EndSplineSet
EndChar

StartChar: dotlessi
Encoding: 305 305 101
Width: 300
Flags: HMW
HStem: 0 21G<50 50 50 250> 480 20G<250 250>
VStem: 50 200<0 475 475 475>
LayerCount: 2
Fore
SplineSet
50 0 m 1,0,-1
 50 475 l 1,1,-1
 250 500 l 1,2,-1
 250 0 l 1,3,-1
 50 0 l 1,0,-1
EndSplineSet
EndChar

StartChar: e
Encoding: 101 101 102
Width: 565
Flags: HMW
HStem: -15 21G<200 333.5> 170 116<245 286 286 306 245 361> 369 146<294 314 314 355>
VStem: 30 215<162.5 170 135 286 286 327 135 337.5> 355 185<328 369 369 369>
LayerCount: 2
Fore
SplineSet
245 170 m 1,0,-1
 245 135 l 1,1,2
 275 132 275 132 305 132 c 0,3,4
 398 132 398 132 493 162 c 1,5,-1
 517 15 l 1,6,7
 405 -15 405 -15 295 -15 c 0,8,9
 155 -15 155 -15 92.5 50.5 c 128,-1,10
 30 116 30 116 30 250 c 128,-1,11
 30 384 30 384 92.5 449.5 c 128,-1,12
 155 515 155 515 294.5 515 c 0,13,14
 434 515 434 515 487 477 c 128,-1,15
 540 439 540 439 540 335 c 0,16,17
 540 247 540 247 476.5 208.5 c 128,-1,18
 413 170 413 170 245 170 c 1,0,-1
245 327 m 2,19,-1
 245 286 l 1,20,-1
 286 286 l 2,21,22
 322 286 322 286 338.5 293.5 c 128,-1,23
 355 301 355 301 355 328 c 2,24,-1
 355 369 l 1,25,-1
 314 369 l 2,26,27
 278 369 278 369 261.5 361.5 c 128,-1,28
 245 354 245 354 245 327 c 2,19,-1
EndSplineSet
EndChar

StartChar: ecircumflex
Encoding: 234 234 104
Width: 565
Flags: HMW
HStem: -15 21G<200 333.5> 170 116<245 286 286 306 245 361> 369 146<294 314 314 355> 537 21G<191 191 377 377> 720 20G<260 308 308 311.5>
VStem: 30 215<162.5 170 135 286 286 327 135 337.5> 355 185<328 369 369 369>
LayerCount: 2
Fore
SplineSet
245 170 m 1,0,-1
 245 135 l 1,1,2
 275 132 275 132 305 132 c 0,3,4
 398 132 398 132 493 162 c 1,5,-1
 517 15 l 1,6,7
 405 -15 405 -15 295 -15 c 0,8,9
 155 -15 155 -15 92.5 50.5 c 128,-1,10
 30 116 30 116 30 250 c 128,-1,11
 30 384 30 384 92.5 449.5 c 128,-1,12
 155 515 155 515 294.5 515 c 0,13,14
 434 515 434 515 487 477 c 128,-1,15
 540 439 540 439 540 335 c 0,16,17
 540 247 540 247 476.5 208.5 c 128,-1,18
 413 170 413 170 245 170 c 1,0,-1
245 327 m 2,19,-1
 245 286 l 1,20,-1
 286 286 l 2,21,22
 322 286 322 286 338.5 293.5 c 128,-1,23
 355 301 355 301 355 328 c 2,24,-1
 355 369 l 1,25,-1
 314 369 l 2,26,27
 278 369 278 369 261.5 361.5 c 128,-1,28
 245 354 245 354 245 327 c 2,19,-1
260 740 m 2,29,-1
 308 740 l 2,30,31
 315 740 315 740 324 731 c 1,32,-1
 437 586 l 1,33,-1
 377 537 l 1,34,-1
 284 600 l 1,35,-1
 191 537 l 1,36,-1
 131 586 l 1,37,-1
 244 731 l 1,38,39
 253 740 253 740 260 740 c 2,29,-1
EndSplineSet
EndChar

StartChar: egrave
Encoding: 232 232 106
Width: 565
Flags: HMW
HStem: -15 21G<200 333.5> 170 116<245 286 286 306 245 361> 369 146<294 314 314 355> 539 21G<353 353> 719 20G<190.5 196>
VStem: 30 215<162.5 170 135 286 286 327 135 337.5> 355 185<328 369 369 369>
LayerCount: 2
Fore
SplineSet
245 170 m 1,0,-1
 245 135 l 1,1,2
 275 132 275 132 305 132 c 0,3,4
 398 132 398 132 493 162 c 1,5,-1
 517 15 l 1,6,7
 405 -15 405 -15 295 -15 c 0,8,9
 155 -15 155 -15 92.5 50.5 c 128,-1,10
 30 116 30 116 30 250 c 128,-1,11
 30 384 30 384 92.5 449.5 c 128,-1,12
 155 515 155 515 294.5 515 c 0,13,14
 434 515 434 515 487 477 c 128,-1,15
 540 439 540 439 540 335 c 0,16,17
 540 247 540 247 476.5 208.5 c 128,-1,18
 413 170 413 170 245 170 c 1,0,-1
245 327 m 2,19,-1
 245 286 l 1,20,-1
 286 286 l 2,21,22
 322 286 322 286 338.5 293.5 c 128,-1,23
 355 301 355 301 355 328 c 2,24,-1
 355 369 l 1,25,-1
 314 369 l 2,26,27
 278 369 278 369 261.5 361.5 c 128,-1,28
 245 354 245 354 245 327 c 2,19,-1
353 539 m 1,29,-1
 179 574 l 2,30,31
 163 577 163 577 153 586 c 2,32,-1
 108 625 l 1,33,34
 104 631 104 631 104 637.25 c 0,35,36
 104 643.5 104 643.5 113 654 c 2,37,-1
 176 728 l 2,38,39
 185 739 185 739 192 739 c 0,40,41
 199 739 199 739 205 735 c 2,42,-1
 394 596 l 1,43,-1
 353 539 l 1,29,-1
EndSplineSet
EndChar

StartChar: eight
Encoding: 56 56 107
Width: 600
Flags: HMW
HStem: -15 151<250 291 291 311 250 373.5> 484 156<289 309 309 350>
VStem: 35 215<136 200.5> 56 194<428 442> 350 194<428 484 484 484> 350 215<178 200.5 100 201 100 201 100 484>
LayerCount: 2
Fore
SplineSet
300 640 m 128,-1,1
 368 640 368 640 420 624.5 c 128,-1,2
 472 609 472 609 508 567 c 128,-1,3
 544 525 544 525 544 459 c 0,4,5
 544 364 544 364 477 315 c 1,6,-1
 477 308 l 1,7,8
 515 290 515 290 540 252 c 128,-1,9
 565 214 565 214 565 171 c 0,10,11
 565 -15 565 -15 300 -15 c 128,-1,12
 35 -15 35 -15 35 171 c 0,13,14
 35 214 35 214 60 252 c 128,-1,15
 85 290 85 290 123 308 c 1,16,-1
 123 315 l 1,17,18
 56 362 56 362 56 459 c 0,19,20
 56 525 56 525 92 567 c 128,-1,21
 128 609 128 609 180 624.5 c 128,-1,0
 232 640 232 640 300 640 c 128,-1,1
350 201 m 1,22,-1
 281 234 l 2,23,24
 267 240 267 240 261 240 c 0,25,26
 250 240 250 240 250 223 c 2,27,-1
 250 136 l 1,28,-1
 291 136 l 2,29,30
 324 136 324 136 337 143.5 c 128,-1,31
 350 151 350 151 350 178 c 2,32,-1
 350 201 l 1,22,-1
250 423 m 1,33,-1
 315 389 l 2,34,35
 323 385 323 385 330 385 c 0,36,37
 350 385 350 385 350 403 c 2,38,-1
 350 484 l 1,39,-1
 309 484 l 2,40,41
 276 484 276 484 263 476.5 c 128,-1,42
 250 469 250 469 250 442 c 2,43,-1
 250 423 l 1,33,-1
EndSplineSet
EndChar

StartChar: ellipsis
Encoding: 8230 8230 108
Width: 877
Flags: HMW
HStem: -6 21G<94.5 183 394.5 483 694.5 783> 186 20G<94.5 183 394.5 483 694.5 783>
VStem: 30 217<61 137> 330 217<61 137> 630 217<61 137>
CounterMasks: 1 38
LayerCount: 2
Fore
SplineSet
30 99 m 128,-1,1
 30 158 30 158 52 182 c 128,-1,2
 74 206 74 206 138.5 206 c 0,3,4
 203 206 203 206 225 182 c 128,-1,5
 247 158 247 158 247 99 c 128,-1,6
 247 40 247 40 225 17 c 128,-1,7
 203 -6 203 -6 138.5 -6 c 0,8,9
 74 -6 74 -6 52 17 c 128,-1,0
 30 40 30 40 30 99 c 128,-1,1
330 99 m 128,-1,11
 330 158 330 158 352 182 c 128,-1,12
 374 206 374 206 438.5 206 c 0,13,14
 503 206 503 206 525 182 c 128,-1,15
 547 158 547 158 547 99 c 128,-1,16
 547 40 547 40 525 17 c 128,-1,17
 503 -6 503 -6 438.5 -6 c 0,18,19
 374 -6 374 -6 352 17 c 128,-1,10
 330 40 330 40 330 99 c 128,-1,11
630 99 m 128,-1,21
 630 158 630 158 652 182 c 128,-1,22
 674 206 674 206 738.5 206 c 0,23,24
 803 206 803 206 825 182 c 128,-1,25
 847 158 847 158 847 99 c 128,-1,26
 847 40 847 40 825 17 c 128,-1,27
 803 -6 803 -6 738.5 -6 c 0,28,29
 674 -6 674 -6 652 17 c 128,-1,20
 630 40 630 40 630 99 c 128,-1,21
EndSplineSet
EndChar

StartChar: emdash
Encoding: 8212 8212 109
Width: 854
Flags: HMW
HStem: 200 150<25 829 94 760>
LayerCount: 2
Fore
SplineSet
25 200 m 1,0,-1
 25 308 l 2,1,2
 25 335 25 335 41.5 342.5 c 128,-1,3
 58 350 58 350 94 350 c 2,4,-1
 829 350 l 1,5,-1
 829 242 l 2,6,7
 829 215 829 215 812.5 207.5 c 128,-1,8
 796 200 796 200 760 200 c 2,9,-1
 25 200 l 1,0,-1
EndSplineSet
Position2: "'case' Case-Sensitive Forms in Latin lookup 0 subtable" dx=0 dy=70 dh=0 dv=0
EndChar

StartChar: endash
Encoding: 8211 8211 110
Width: 595
Flags: HMW
HStem: 200 150<25 570 94 501>
LayerCount: 2
Fore
SplineSet
25 200 m 1,0,-1
 25 308 l 2,1,2
 25 335 25 335 41.5 342.5 c 128,-1,3
 58 350 58 350 94 350 c 2,4,-1
 570 350 l 1,5,-1
 570 242 l 2,6,7
 570 215 570 215 553.5 207.5 c 128,-1,8
 537 200 537 200 501 200 c 2,9,-1
 25 200 l 1,0,-1
EndSplineSet
Position2: "'case' Case-Sensitive Forms in Latin lookup 0 subtable" dx=0 dy=70 dh=0 dv=0
EndChar

StartChar: equal
Encoding: 61 61 111
Width: 600
Flags: HMW
HStem: 121 144<72 527 72 527> 359 144<72 527 72 527>
LayerCount: 2
Fore
SplineSet
72 121 m 1,0,-1
 72 265 l 1,1,-1
 527 265 l 1,2,-1
 527 121 l 1,3,-1
 72 121 l 1,0,-1
72 359 m 1,4,-1
 72 503 l 1,5,-1
 527 503 l 1,6,-1
 527 359 l 1,7,-1
 72 359 l 1,4,-1
EndSplineSet
EndChar

StartChar: eth
Encoding: 240 240 112
Width: 590
Flags: HMW
HStem: -15 146<245 276 276 296 245 390> 226 138<294 314 314 322 245 345> 645 20G<334 334>
VStem: 30 215<131 184 131 219.5> 345 215<173 226 226 226>
LayerCount: 2
Fore
SplineSet
334 665 m 1,0,-1
 388 599 l 1,1,-1
 495 634 l 1,2,-1
 510 581 l 1,3,4
 510 566 510 566 502.5 559.5 c 128,-1,5
 495 553 495 553 473 546 c 2,6,-1
 436 534 l 1,7,8
 560 352 560 352 560 215 c 0,9,10
 560 107 560 107 496 46 c 128,-1,11
 432 -15 432 -15 298 -15 c 128,-1,12
 164 -15 164 -15 97 39.5 c 128,-1,13
 30 94 30 94 30 171 c 128,-1,14
 30 248 30 248 89.5 306 c 128,-1,15
 149 364 149 364 245 364 c 2,16,-1
 322 364 l 1,17,-1
 260 476 l 1,18,-1
 158 443 l 1,19,-1
 143 496 l 1,20,21
 143 511 143 511 150.5 517.5 c 128,-1,22
 158 524 158 524 180 531 c 2,23,-1
 222 545 l 1,24,-1
 163 652 l 1,25,-1
 334 665 l 1,0,-1
245 184 m 2,26,-1
 245 131 l 1,27,-1
 276 131 l 2,28,29
 312 131 312 131 328.5 138.5 c 128,-1,30
 345 146 345 146 345 173 c 2,31,-1
 345 226 l 1,32,-1
 314 226 l 2,33,34
 278 226 278 226 261.5 218.5 c 128,-1,35
 245 211 245 211 245 184 c 2,26,-1
EndSplineSet
EndChar

StartChar: exclam
Encoding: 33 33 113
Width: 330
Flags: HMW
HStem: -7 156<119 210.5> 605 20G<87 243 243 258>
VStem: 53 212 65 200
LayerCount: 2
Fore
SplineSet
250 170 m 1,0,-1
 80 170 l 1,1,-1
 50 598 l 1,2,3
 50 625 50 625 87 625 c 2,4,-1
 243 625 l 2,5,6
 280 625 280 625 280 598 c 1,7,-1
 250 170 l 1,0,-1
53 70 m 128,-1,9
 53 113 53 113 76 131 c 128,-1,10
 99 149 99 149 165 149 c 128,-1,11
 231 149 231 149 253.5 131 c 128,-1,12
 276 113 276 113 276 70 c 128,-1,13
 276 27 276 27 253.5 10 c 128,-1,14
 231 -7 231 -7 164.5 -7 c 0,15,16
 98 -7 98 -7 75.5 10 c 128,-1,8
 53 27 53 27 53 70 c 128,-1,9
EndSplineSet
EndChar

StartChar: exclamdown
Encoding: 161 161 114
Width: 330
Flags: HMW
HStem: 0 21G<72 87 87 243> 476 156<119 210.5>
VStem: 53 223<527.5 582.5> 65 200
LayerCount: 2
Fore
SplineSet
80 455 m 1,0,-1
 250 455 l 1,1,-1
 280 27 l 1,2,3
 280 0 280 0 243 0 c 2,4,-1
 87 0 l 2,5,6
 50 0 50 0 50 27 c 1,7,-1
 80 455 l 1,0,-1
53 555 m 128,-1,9
 53 598 53 598 75.5 615 c 128,-1,10
 98 632 98 632 164.5 632 c 0,11,12
 231 632 231 632 253.5 615 c 128,-1,13
 276 598 276 598 276 555 c 128,-1,14
 276 512 276 512 253.5 494 c 128,-1,15
 231 476 231 476 165 476 c 128,-1,16
 99 476 99 476 76 494 c 128,-1,8
 53 512 53 512 53 555 c 128,-1,9
EndSplineSet
EndChar

StartChar: f
Encoding: 102 102 115
Width: 358
Flags: HMW
HStem: 0 21G<80 280 80 80> 370 130<30 80 30 80 280 340> 655 20G<208.5 279>
VStem: 80 200<0 370 0 370 0 500>
LayerCount: 2
Fore
SplineSet
280 542 m 1,0,-1
 280 500 l 1,1,-1
 340 500 l 1,2,-1
 340 370 l 1,3,-1
 280 370 l 1,4,-1
 280 0 l 1,5,-1
 80 0 l 1,6,-1
 80 370 l 1,7,-1
 30 370 l 1,8,-1
 30 500 l 1,9,-1
 80 500 l 1,10,-1
 87 560 l 2,11,12
 101 675 101 675 263 675 c 0,13,14
 305 675 305 675 373 665 c 1,15,-1
 362 534 l 1,16,-1
 280 542 l 1,0,-1
EndSplineSet
EndChar

StartChar: fi
Encoding: 64257 64257 116
Width: 620
Flags: HMW
HStem: 0 21G<70 270 70 70 370 570 370 370> 370 130<20 70 20 70 270 370> 537 138
VStem: 70 200<0 370 0 370 0 500> 370 200<0 370 370 370>
LayerCount: 2
Fore
SplineSet
370 0 m 1,0,-1
 370 370 l 1,1,-1
 270 370 l 1,2,-1
 270 0 l 1,3,-1
 70 0 l 1,4,-1
 70 370 l 1,5,-1
 20 370 l 1,6,-1
 20 500 l 1,7,-1
 70 500 l 1,8,-1
 77 560 l 2,9,10
 91 675 91 675 253 675 c 0,11,12
 329 675 329 675 414 650 c 1,13,-1
 383 533 l 1,14,-1
 270 542 l 1,15,-1
 270 500 l 1,16,-1
 404 500 l 1,17,-1
 570 525 l 1,18,-1
 570 0 l 1,19,-1
 370 0 l 1,0,-1
EndSplineSet
Ligature2: "'liga' Standard Ligatures in Latin lookup 0 subtable" f i
EndChar

StartChar: five
Encoding: 53 53 117
Width: 600
Flags: HMW
HStem: -15 168<241.5 276.5 228.5 355.5> 460 165
LayerCount: 2
Fore
SplineSet
42 11 m 1,0,-1
 70 176 l 1,1,2
 165 153 165 153 236.25 153 c 0,3,4
 307.5 153 307.5 153 354 159 c 1,5,-1
 354 209 l 1,6,-1
 279 217 l 2,7,8
 155 230 155 230 110.5 259.5 c 128,-1,9
 66 289 66 289 66 365 c 0,10,11
 66 376 66 376 76 625 c 1,12,-1
 531 625 l 1,13,-1
 516 453 l 1,14,-1
 279 467 l 1,15,-1
 279 416 l 1,16,-1
 338 409 l 2,17,18
 469 393 469 393 519 344.5 c 128,-1,19
 569 296 569 296 569 209 c 0,20,21
 569 146 569 146 552 102.5 c 128,-1,22
 535 59 535 59 511.5 36.5 c 128,-1,23
 488 14 488 14 445 2 c 128,-1,24
 402 -10 402 -10 369.5 -12.5 c 128,-1,25
 337 -15 337 -15 283 -15 c 0,26,27
 153 -15 153 -15 42 11 c 1,0,-1
EndSplineSet
EndChar

StartChar: fl
Encoding: 64258 64258 118
Width: 642
Flags: HMW
HStem: -11 21G<558 623> 0 21G<70 270 70 70> 370 130<20 70 20 70 270 330> 537 138
VStem: 70 200<0 370 0 370 0 500> 383 200<143 533 533 533>
LayerCount: 2
Fore
SplineSet
270 542 m 1,0,-1
 270 500 l 1,1,-1
 330 500 l 1,2,-1
 330 370 l 1,3,-1
 270 370 l 1,4,-1
 270 0 l 1,5,-1
 70 0 l 1,6,-1
 70 370 l 1,7,-1
 20 370 l 1,8,-1
 20 500 l 1,9,-1
 70 500 l 1,10,-1
 77 560 l 2,11,12
 91 675 91 675 253 675 c 0,13,14
 329 675 329 675 414 650 c 1,15,-1
 583 665 l 1,16,-1
 583 143 l 1,17,18
 614 137 614 137 632 136 c 1,19,-1
 623 -11 l 1,20,21
 494.714285714 -11 494.714285714 -11 454 4 c 0,22,23
 403.494077834 22.6074450085 403.494077834 22.6074450085 391 51.5 c 0,24,25
 383 70 383 70 383 94 c 2,26,-1
 383 533 l 1,27,-1
 270 542 l 1,0,-1
EndSplineSet
Ligature2: "'liga' Standard Ligatures in Latin lookup 0 subtable" f l
EndChar

StartChar: florin
Encoding: 402 402 119
Width: 479
Flags: HMW
HStem: -165 21G<11 156 11 11> 262 107<45 121 45 126 326 429> 477 164<247.5 402 247.5 449>
VStem: 116 200 129 198
LayerCount: 2
Fore
SplineSet
329 428 m 2,0,-1
 326 369 l 1,1,-1
 439 369 l 1,2,-1
 429 262 l 1,3,-1
 322 262 l 1,4,-1
 311 0 l 1,5,6
 303 -165 303 -165 156 -165 c 2,7,-1
 11 -165 l 1,8,-1
 11 -35 l 1,9,-1
 63 -25 l 2,10,11
 86 -21 86 -21 98 -12.5 c 128,-1,12
 110 -4 110 -4 111 15 c 2,13,-1
 121 262 l 1,14,-1
 45 262 l 1,15,-1
 45 369 l 1,16,-1
 126 369 l 1,17,-1
 129 443 l 2,18,19
 133 543 133 543 176 592 c 128,-1,20
 219 641 219 641 308 641 c 0,21,22
 397 641 397 641 479 622 c 1,23,-1
 449 477 l 1,24,-1
 402 477 l 2,25,26
 367 477 367 477 348.5 468 c 128,-1,27
 330 459 330 459 329 428 c 2,0,-1
EndSplineSet
EndChar

StartChar: four
Encoding: 52 52 120
Width: 600
Flags: HMW
HStem: 0 21G<324 324 324 524> 100 172<225 324 225 324 524 589> 605 20G<170 524 524 524>
VStem: 324 200<0 100 0 100 272 475 475 475>
LayerCount: 2
Fore
SplineSet
324 0 m 1,0,-1
 324 100 l 1,1,-1
 16 100 l 1,2,-1
 16 225 l 1,3,-1
 170 625 l 1,4,-1
 524 625 l 1,5,-1
 524 272 l 1,6,-1
 589 272 l 1,7,-1
 589 100 l 1,8,-1
 524 100 l 1,9,-1
 524 0 l 1,10,-1
 324 0 l 1,0,-1
314 475 m 1,11,-1
 225 272 l 1,12,-1
 324 272 l 1,13,-1
 324 475 l 1,14,-1
 314 475 l 1,11,-1
EndSplineSet
EndChar

StartChar: fraction
Encoding: 8260 8260 121
Width: 503
Flags: HMW
HStem: -40 21G<70 121 70 70> 645 20G<382 433 433 433>
LayerCount: 2
Fore
SplineSet
433 665 m 1,0,-1
 164 -15 l 2,1,2
 159 -25 159 -25 155 -29 c 0,3,4
 144 -40 144 -40 121 -40 c 2,5,-1
 70 -40 l 1,6,-1
 339 640 l 2,7,8
 344 650 344 650 348 654 c 0,9,10
 359 665 359 665 382 665 c 2,11,-1
 433 665 l 1,0,-1
EndSplineSet
EndChar

StartChar: g
Encoding: 103 103 122
Width: 536
Flags: HMW
HStem: -165 150<215 256.5 215 310> 382 133<252 272 272 281.5 176.5 303> 556 20G<438 438>
VStem: 15 188<277 340 275 395.5> 303 196<317 336 267 382 267 382> 303 209
LayerCount: 2
Fore
SplineSet
23 -135 m 1,0,-1
 49 14 l 1,1,2
 134 -15 134 -15 248 -15 c 0,3,4
 282 -15 282 -15 296 -13 c 1,5,-1
 296 22 l 1,6,7
 207 22 207 22 179.5 29.5 c 128,-1,8
 152 37 152 37 143.5 44.5 c 128,-1,9
 135 52 135 52 133.5 57 c 128,-1,10
 132 62 132 62 132 71 c 1,11,-1
 162 157 l 1,12,13
 90 170 90 170 52.5 211 c 128,-1,14
 15 252 15 252 15 339.5 c 128,-1,15
 15 427 15 427 74 471 c 128,-1,16
 133 515 133 515 266 515 c 0,17,18
 314 515 314 515 351 509 c 1,19,-1
 438 576 l 1,20,-1
 543 475 l 1,21,-1
 486 408 l 1,22,23
 499 373 499 373 499 318 c 0,24,25
 499 239 499 239 459.5 200.5 c 128,-1,26
 420 162 420 162 319 154 c 1,27,-1
 315 130 l 1,28,29
 423 124 423 124 467.5 97.5 c 128,-1,30
 512 71 512 71 512 0 c 0,31,32
 512 -121.25 512 -121.25 395 -150.5 c 0,33,34
 337 -165 337 -165 238.5 -165 c 128,-1,35
 140 -165 140 -165 23 -135 c 1,0,-1
203 340 m 2,36,-1
 203 275 l 1,37,-1
 234 275 l 2,38,39
 270 275 270 275 286.5 282.5 c 128,-1,40
 303 290 303 290 303 317 c 2,41,-1
 303 382 l 1,42,-1
 272 382 l 2,43,44
 236 382 236 382 219.5 374.5 c 128,-1,45
 203 367 203 367 203 340 c 2,36,-1
EndSplineSet
EndChar

StartChar: germandbls
Encoding: 223 223 123
Width: 672
Flags: HMW
HStem: -15 145<418 421.5 397.5 494.5> 0 21G<70 270 70 70> 480 20G<20 70 70 70> 519 156<300 324>
VStem: 20 250<370 500 500 500> 70 200<0 370 370 370 500 500> 355 197<459.5 585>
LayerCount: 2
Fore
SplineSet
20 370 m 1,0,-1
 20 500 l 1,1,-1
 70 500 l 1,2,-1
 77 560 l 2,3,4
 84.9391745112 635.422157857 84.9391745112 635.422157857 158.5 657 c 0,5,6
 219.863636364 675 219.863636364 675 330 675 c 0,7,8
 552 675 552 675 552 515 c 0,9,10
 552 483 552 483 532 427.5 c 128,-1,11
 512 372 512 372 470 314 c 1,12,13
 563 314 563 314 602.5 271.5 c 128,-1,14
 642 229 642 229 642 151 c 0,15,16
 642 -15 642 -15 444 -15 c 0,17,18
 340 -15 340 -15 306 -1 c 1,19,-1
 326 141 l 1,20,21
 370 130 370 130 409.5 130 c 128,-1,22
 449 130 449 130 450 134 c 1,23,-1
 450 166 l 1,24,25
 380 166 380 166 346 190 c 128,-1,26
 312 214 312 214 312 270 c 0,27,28
 312 309 312 309 333.5 381 c 128,-1,29
 355 453 355 453 355 474 c 0,30,31
 355 519 355 519 305 519 c 0,32,33
 289 519 289 519 270 515 c 1,34,-1
 270 0 l 1,35,-1
 70 0 l 1,36,-1
 70 370 l 1,37,-1
 20 370 l 1,0,-1
EndSplineSet
EndChar

StartChar: grave
Encoding: 96 96 124
Width: 429
Flags: HMW
HStem: 539 21G<288 288> 719 20G<125.5 131>
LayerCount: 2
Fore
SplineSet
288 539 m 1,0,-1
 114 574 l 2,1,2
 98 577 98 577 88 586 c 2,3,-1
 43 625 l 1,4,5
 39 631 39 631 39 637.25 c 0,6,7
 39 643.5 39 643.5 48 654 c 2,8,-1
 111 728 l 2,9,10
 120 739 120 739 127 739 c 0,11,12
 134 739 134 739 140 735 c 2,13,-1
 329 596 l 1,14,-1
 288 539 l 1,0,-1
EndSplineSet
EndChar

StartChar: greater
Encoding: 62 62 125
Width: 600
Flags: HMW
HStem: 37 21G<174 174> 567 20G<174 174>
LayerCount: 2
Fore
SplineSet
174 37 m 1,0,-1
 107 171 l 1,1,-1
 354 308 l 1,2,-1
 354 315 l 1,3,-1
 107 453 l 1,4,-1
 174 587 l 1,5,-1
 499 403 l 1,6,-1
 499 221 l 1,7,-1
 174 37 l 1,0,-1
EndSplineSet
EndChar

StartChar: guillemotleft
Encoding: 171 171 126
Width: 575
Flags: HMW
HStem: 25 21G<219 219 469 469> 455 20G<219 219 469 469>
LayerCount: 2
Fore
SplineSet
25 300 m 1,0,-1
 219 475 l 1,1,-1
 300 424 l 1,2,-1
 200 250 l 1,3,-1
 300 76 l 1,4,-1
 219 25 l 1,5,-1
 25 200 l 1,6,-1
 25 300 l 1,0,-1
275 300 m 1,7,-1
 469 475 l 1,8,-1
 550 424 l 1,9,-1
 450 250 l 1,10,-1
 550 76 l 1,11,-1
 469 25 l 1,12,-1
 275 200 l 1,13,-1
 275 300 l 1,7,-1
EndSplineSet
Position2: "'case' Case-Sensitive Forms in Latin lookup 0 subtable" dx=0 dy=70 dh=0 dv=0
EndChar

StartChar: guillemotright
Encoding: 187 187 127
Width: 575
Flags: HMW
HStem: 25 21G<106 106 356 356> 455 20G<106 106 356 356>
LayerCount: 2
Fore
SplineSet
356 475 m 1,0,-1
 550 300 l 1,1,-1
 550 200 l 1,2,-1
 356 25 l 1,3,-1
 275 76 l 1,4,-1
 375 250 l 1,5,-1
 275 424 l 1,6,-1
 356 475 l 1,0,-1
106 475 m 1,7,-1
 300 300 l 1,8,-1
 300 200 l 1,9,-1
 106 25 l 1,10,-1
 25 76 l 1,11,-1
 125 250 l 1,12,-1
 25 424 l 1,13,-1
 106 475 l 1,7,-1
EndSplineSet
Position2: "'case' Case-Sensitive Forms in Latin lookup 0 subtable" dx=0 dy=70 dh=0 dv=0
EndChar

StartChar: guilsinglleft
Encoding: 8249 8249 128
Width: 325
Flags: HMW
HStem: 25 21G<219 219> 455 20G<219 219>
LayerCount: 2
Fore
SplineSet
25 300 m 1,0,-1
 219 475 l 1,1,-1
 300 424 l 1,2,-1
 200 250 l 1,3,-1
 300 76 l 1,4,-1
 219 25 l 1,5,-1
 25 200 l 1,6,-1
 25 300 l 1,0,-1
EndSplineSet
Position2: "'case' Case-Sensitive Forms in Latin lookup 0 subtable" dx=0 dy=70 dh=0 dv=0
EndChar

StartChar: guilsinglright
Encoding: 8250 8250 129
Width: 325
Flags: HMW
HStem: 25 21G<106 106> 455 20G<106 106>
LayerCount: 2
Fore
SplineSet
106 475 m 1,0,-1
 300 300 l 1,1,-1
 300 200 l 1,2,-1
 106 25 l 1,3,-1
 25 76 l 1,4,-1
 125 250 l 1,5,-1
 25 424 l 1,6,-1
 106 475 l 1,0,-1
EndSplineSet
Position2: "'case' Case-Sensitive Forms in Latin lookup 0 subtable" dx=0 dy=70 dh=0 dv=0
EndChar

StartChar: h
Encoding: 104 104 130
Width: 595
Flags: HMW
HStem: 0 21G<50 250 50 50 350 350 350 550> 350 165<299 447 319 447> 645 20G<250 250>
VStem: 50 200<0 308 0 482 482 650 650 650> 350 200<0 350 350 350>
LayerCount: 2
Fore
SplineSet
250 308 m 2,0,-1
 250 0 l 1,1,-1
 50 0 l 1,2,-1
 50 650 l 1,3,-1
 250 665 l 1,4,-1
 250 482 l 1,5,6
 314 515 314 515 392 515 c 0,7,8
 470 515 470 515 510 484.5 c 128,-1,9
 550 454 550 454 550 400 c 2,10,-1
 550 0 l 1,11,-1
 350 0 l 1,12,-1
 350 350 l 1,13,-1
 319 350 l 2,14,15
 283 350 283 350 266.5 342.5 c 128,-1,16
 250 335 250 335 250 308 c 2,0,-1
EndSplineSet
EndChar

StartChar: hungarumlaut
Encoding: 733 733 131
Width: 599
Flags: HMW
HStem: 530 21G<88 88 351 351> 721 20G<204 206.5 467 469.5>
LayerCount: 2
Fore
SplineSet
88 530 m 1,0,-1
 48 589 l 1,1,-1
 188 729 l 1,2,3
 197 740 197 740 203.5 740.5 c 0,4,5
 210 741 210 741 222 729 c 1,6,-1
 285 655 l 2,7,8
 292 647 292 647 292 638 c 0,9,10
 292 629 292 629 283 620 c 2,11,-1
 242 582 l 2,12,13
 233 573 233 573 209 566 c 2,14,-1
 88 530 l 1,0,-1
351 530 m 1,15,-1
 311 589 l 1,16,-1
 451 729 l 1,17,18
 460 740 460 740 466.5 740.5 c 0,19,20
 473 741 473 741 485 729 c 1,21,-1
 548 655 l 2,22,23
 555 647 555 647 555 638 c 0,24,25
 555 629 555 629 546 620 c 2,26,-1
 505 582 l 2,27,28
 496 573 496 573 472 566 c 2,29,-1
 351 530 l 1,15,-1
EndSplineSet
EndChar

StartChar: hyphen
Encoding: 45 45 132
Width: 350
Flags: HMW
HStem: 200 150<25 325 94 256>
LayerCount: 2
Fore
SplineSet
25 200 m 1,0,-1
 25 308 l 2,1,2
 25 335 25 335 41.5 342.5 c 128,-1,3
 58 350 58 350 94 350 c 2,4,-1
 325 350 l 1,5,-1
 325 242 l 2,6,7
 325 215 325 215 308.5 207.5 c 128,-1,8
 292 200 292 200 256 200 c 2,9,-1
 25 200 l 1,0,-1
EndSplineSet
Position2: "'case' Case-Sensitive Forms in Latin lookup 0 subtable" dx=0 dy=70 dh=0 dv=0
EndChar

StartChar: i
Encoding: 105 105 133
Width: 300
Flags: HMW
HStem: 0 21G<50 50 50 250> 515 160<105 196.5>
VStem: 50 200<0 475 475 475> 50 212<0 623 475 623>
LayerCount: 2
Fore
SplineSet
50 0 m 1,0,-1
 50 475 l 1,1,-1
 250 500 l 1,2,-1
 250 0 l 1,3,-1
 50 0 l 1,0,-1
39 594 m 128,-1,5
 39 639 39 639 61.5 657 c 128,-1,6
 84 675 84 675 150.5 675 c 0,7,8
 217 675 217 675 239.5 657 c 128,-1,9
 262 639 262 639 262 594 c 128,-1,10
 262 549 262 549 239.5 532 c 128,-1,11
 217 515 217 515 150.5 515 c 0,12,13
 84 515 84 515 61.5 532 c 128,-1,4
 39 549 39 549 39 594 c 128,-1,5
EndSplineSet
EndChar

StartChar: icircumflex
Encoding: 238 238 135
Width: 300
Flags: HMW
HStem: 0 21G<50 50 50 250> 480 20G<250 250> 537 21G<54 54 240 240> 720 20G<123 171 171 174.5>
VStem: 50 200<0 475 475 475>
LayerCount: 2
Fore
SplineSet
50 0 m 1,0,-1
 50 475 l 1,1,-1
 250 500 l 1,2,-1
 250 0 l 1,3,-1
 50 0 l 1,0,-1
123 740 m 2,4,-1
 171 740 l 2,5,6
 178 740 178 740 187 731 c 1,7,-1
 300 586 l 1,8,-1
 240 537 l 1,9,-1
 147 600 l 1,10,-1
 54 537 l 1,11,-1
 -6 586 l 1,12,-1
 107 731 l 1,13,14
 116 740 116 740 123 740 c 2,4,-1
EndSplineSet
EndChar

StartChar: igrave
Encoding: 236 236 137
Width: 300
Flags: HMW
HStem: 0 21G<50 50 50 250> 480 20G<250 250> 539 21G<221 221> 719 20G<58.5 64>
VStem: 50 200<0 475 475 475>
LayerCount: 2
Fore
SplineSet
50 0 m 1,0,-1
 50 475 l 1,1,-1
 250 500 l 1,2,-1
 250 0 l 1,3,-1
 50 0 l 1,0,-1
221 539 m 1,4,-1
 47 574 l 2,5,6
 31 577 31 577 21 586 c 2,7,-1
 -24 625 l 1,8,9
 -28 631 -28 631 -28 637.25 c 0,10,11
 -28 643.5 -28 643.5 -19 654 c 2,12,-1
 44 728 l 2,13,14
 53 739 53 739 60 739 c 0,15,16
 67 739 67 739 73 735 c 2,17,-1
 262 596 l 1,18,-1
 221 539 l 1,4,-1
EndSplineSet
EndChar

StartChar: j
Encoding: 106 106 138
Width: 300
Flags: HMW
HStem: -165 21G<-50 -50 -50 95> 515 160<105 196.5>
VStem: 50 200<15 475 475 475> 50 212<15 623 475 623>
LayerCount: 2
Fore
SplineSet
-50 -165 m 1,0,-1
 -50 -35 l 1,1,-1
 2 -25 l 2,2,3
 32.8450704225 -18.8309859155 32.8450704225 -18.8309859155 41.4225352113 -8.41549295775 c 128,-1,4
 50 2 50 2 50 15 c 2,5,-1
 50 475 l 1,6,-1
 250 500 l 1,7,-1
 250 0 l 2,8,9
 250 -81 250 -81 210 -123 c 128,-1,10
 170 -165 170 -165 95 -165 c 2,11,-1
 -50 -165 l 1,0,-1
39 594 m 128,-1,13
 39 639 39 639 61.5 657 c 128,-1,14
 84 675 84 675 150.5 675 c 128,-1,15
 217 675 217 675 239.5 657 c 128,-1,16
 262 639 262 639 262 594 c 128,-1,17
 262 549 262 549 239.5 532 c 128,-1,18
 217 515 217 515 150.5 515 c 128,-1,19
 84 515 84 515 61.5 532 c 128,-1,12
 39 549 39 549 39 594 c 128,-1,13
EndSplineSet
EndChar

StartChar: k
Encoding: 107 107 139
Width: 560
Flags: HMW
HStem: 0 21G<50 250 50 50 334 550 334 334> 480 20G<329 545 545 545> 645 20G<250 250>
VStem: 50 200<0 198 0 335 335 650 650 650>
LayerCount: 2
Fore
SplineSet
334 0 m 1,0,-1
 257 198 l 1,1,-1
 250 198 l 1,2,-1
 250 0 l 1,3,-1
 50 0 l 1,4,-1
 50 650 l 1,5,-1
 250 665 l 1,6,-1
 250 335 l 1,7,-1
 257 335 l 1,8,-1
 329 500 l 1,9,-1
 545 500 l 1,10,-1
 429 262 l 1,11,-1
 550 0 l 1,12,-1
 334 0 l 1,0,-1
EndSplineSet
EndChar

StartChar: l
Encoding: 108 108 140
Width: 309
Flags: HMW
HStem: -11 21G<225 290> 645 20G<250 250>
VStem: 50 200<143 650 650 650>
LayerCount: 2
Fore
SplineSet
250 665 m 1,0,-1
 250 143 l 1,1,2
 282 137 282 137 299 136 c 1,3,-1
 290 -11 l 1,4,5
 161.714285714 -11 161.714285714 -11 121 4 c 0,6,7
 70.4940778342 22.6074450085 70.4940778342 22.6074450085 58 51.5 c 0,8,9
 50 70 50 70 50 94 c 2,10,-1
 50 650 l 1,11,-1
 250 665 l 1,0,-1
EndSplineSet
EndChar

StartChar: less
Encoding: 60 60 141
Width: 600
Flags: HMW
HStem: 37 21G<432 432> 567 20G<432 432>
LayerCount: 2
Fore
SplineSet
432 587 m 1,0,-1
 499 453 l 1,1,-1
 252 315 l 1,2,-1
 252 308 l 1,3,-1
 499 171 l 1,4,-1
 432 37 l 1,5,-1
 107 221 l 1,6,-1
 107 403 l 1,7,-1
 432 587 l 1,0,-1
EndSplineSet
EndChar

StartChar: logicalnot
Encoding: 172 172 142
Width: 600
Flags: HMW
HStem: 100 21G<393 527 393 393> 240 144<72 527 72 393>
VStem: 393 134<100 240 240 240>
LayerCount: 2
Fore
SplineSet
72 240 m 1,0,-1
 72 384 l 1,1,-1
 527 384 l 1,2,-1
 527 100 l 1,3,-1
 393 100 l 1,4,-1
 393 240 l 1,5,-1
 72 240 l 1,0,-1
EndSplineSet
EndChar

StartChar: lslash
Encoding: 322 322 143
Width: 309
Flags: HMW
HStem: -11 21G<225 290> 220 21G<0 0> 446 20G<319 319> 645 20G<250 250>
VStem: 50 200<143 650 650 650>
LayerCount: 2
Fore
SplineSet
0 220 m 1,0,1
 -33 321 -33 321 -33 328 c 0,2,3
 -33 351 -33 351 17 367 c 2,4,-1
 319 466 l 1,5,6
 351 365 351 365 351 354 c 0,7,8
 351 334 351 334 301 318 c 2,9,-1
 0 220 l 1,0,1
250 665 m 1,10,-1
 250 143 l 1,11,12
 282 137 282 137 299 136 c 1,13,-1
 290 -11 l 1,14,15
 161.714285714 -11 161.714285714 -11 121 4 c 0,16,17
 70.4940778342 22.6074450085 70.4940778342 22.6074450085 58 51.5 c 0,18,19
 50 70 50 70 50 94 c 2,20,-1
 50 650 l 1,21,-1
 250 665 l 1,10,-1
EndSplineSet
EndChar

StartChar: m
Encoding: 109 109 144
Width: 854
Flags: HMW
HStem: 0 21G<50 250 50 50 330 330 330 530 610 610 610 810> 350 165<297.5 391 325 330> 480 20G<50 150 150 150>
VStem: 50 200<0 304 0 500 0 500> 330 200<0 310 0 350 0 350> 610 200<0 350 350 350>
CounterMasks: 1 1c
LayerCount: 2
Fore
SplineSet
330 350 m 1,0,-1
 316 350 l 2,1,2
 293 350 293 350 281.5 348 c 128,-1,3
 270 346 270 346 260 335.5 c 128,-1,4
 250 325 250 325 250 304 c 2,5,-1
 250 0 l 1,6,-1
 50 0 l 1,7,-1
 50 500 l 1,8,-1
 150 500 l 1,9,-1
 195 454 l 1,10,11
 256 515 256 515 355 515 c 0,12,13
 454 515 454 515 498 474 c 1,14,15
 559 515 559 515 639.5 515 c 0,16,17
 720 515 720 515 765 484.5 c 128,-1,18
 810 454 810 454 810 400 c 2,19,-1
 810 0 l 1,20,-1
 610 0 l 1,21,-1
 610 350 l 1,22,-1
 596 350 l 2,23,24
 575 350 575 350 563 348 c 128,-1,25
 551 346 551 346 541 337 c 128,-1,26
 531 328 531 328 530 310 c 1,27,-1
 530 0 l 1,28,-1
 330 0 l 1,29,-1
 330 350 l 1,0,-1
EndSplineSet
EndChar

StartChar: macron
Encoding: 175 175 145
Width: 399
Flags: HMW
HStem: 568 127<79 103 103 297 297 321 50 349>
LayerCount: 2
Fore
SplineSet
349 568 m 1,0,-1
 103 568 l 2,1,2
 69 568 69 568 59.5 580.5 c 128,-1,3
 50 593 50 593 50 632 c 2,4,-1
 50 695 l 1,5,-1
 297 695 l 2,6,7
 332 695 332 695 340.5 683 c 128,-1,8
 349 671 349 671 349 632 c 2,9,-1
 349 568 l 1,0,-1
EndSplineSet
EndChar

StartChar: minus
Encoding: 8722 8722 146
Width: 600
Flags: HMW
HStem: 240 144<72 527 72 527>
LayerCount: 2
Fore
SplineSet
72 240 m 1,0,-1
 72 384 l 1,1,-1
 527 384 l 1,2,-1
 527 240 l 1,3,-1
 72 240 l 1,0,-1
EndSplineSet
EndChar

StartChar: mu
Encoding: 181 181 147
Width: 590
Flags: HMW
HStem: -165 21G<40 170 40 40> 0 131<240 271 271 274 202 271> 480 20G<40 240 240 240 340 340> 495 20G<540 540>
VStem: 40 200<131 500 131 500 131 500> 340 200<173 500 500 500>
LayerCount: 2
Fore
SplineSet
240 500 m 1,0,-1
 240 131 l 1,1,-1
 271 131 l 2,2,3
 307 131 307 131 323.5 138.5 c 128,-1,4
 340 146 340 146 340 173 c 2,5,-1
 340 500 l 1,6,-1
 540 515 l 1,7,-1
 540 0 l 1,8,-1
 440 0 l 1,9,-1
 397 43 l 1,10,11
 360 0 360 0 274 0 c 2,12,-1
 202 0 l 1,13,-1
 170 -165 l 1,14,-1
 40 -165 l 1,15,-1
 40 500 l 1,16,-1
 240 500 l 1,0,-1
EndSplineSet
EndChar

StartChar: multiply
Encoding: 215 215 148
Width: 600
Flags: HMW
HStem: 75 21G<164 164 434 434> 529 20G<164 164 434 434>
LayerCount: 2
Fore
SplineSet
164 75 m 1,0,-1
 62 177 l 1,1,-1
 197 312 l 1,2,-1
 62 447 l 1,3,-1
 164 549 l 1,4,-1
 299 414 l 1,5,-1
 434 549 l 1,6,-1
 536 447 l 1,7,-1
 401 312 l 1,8,-1
 536 177 l 1,9,-1
 434 75 l 1,10,-1
 299 210 l 1,11,-1
 164 75 l 1,0,-1
EndSplineSet
EndChar

StartChar: n
Encoding: 110 110 149
Width: 595
Flags: HMW
HStem: 0 21G<50 250 50 50 350 550 350 350> 350 165<300 447 319 447> 480 20G<50 150 150 150>
VStem: 50 200<0 312 0 500 0 500> 350 200<0 350 350 350>
LayerCount: 2
Fore
SplineSet
150 500 m 1,0,-1
 200 450 l 1,1,2
 293 515 293 515 400 515 c 0,3,4
 470 515 470 515 510 484.5 c 128,-1,5
 550 454 550 454 550 400 c 2,6,-1
 550 0 l 1,7,-1
 350 0 l 1,8,-1
 350 350 l 1,9,-1
 319 350 l 2,10,11
 285 350 285 350 267.5 342.5 c 128,-1,12
 250 335 250 335 250 312 c 2,13,-1
 250 0 l 1,14,-1
 50 0 l 1,15,-1
 50 500 l 1,16,-1
 150 500 l 1,0,-1
EndSplineSet
EndChar

StartChar: nine
Encoding: 57 57 150
Width: 600
Flags: HMW
HStem: -15 168<257.5 271.5 231 404> 218 158<299 299> 489 151<288 308 308 349>
VStem: 34 215<376 447 376 517> 349 215<204.5 217 217 217 418 421 204.5 489 204.5 489>
LayerCount: 2
Fore
SplineSet
249 447 m 2,0,-1
 249 376 l 1,1,-1
 290 376 l 2,2,3
 323 376 323 376 336 383.5 c 128,-1,4
 349 391 349 391 349 418 c 2,5,-1
 349 489 l 1,6,-1
 308 489 l 2,7,8
 275 489 275 489 262 481.5 c 128,-1,9
 249 474 249 474 249 447 c 2,0,-1
349 217 m 1,10,-1
 299 218 l 2,11,12
 138.50617284 221.209876543 138.50617284 221.209876543 85 273.5 c 0,13,14
 34 323.340909091 34 323.340909091 34 425 c 0,15,16
 34 557.435897436 34 557.435897436 113 602 c 0,17,18
 152 624 152 624 195.5 632 c 128,-1,19
 239 640 239 640 299 640 c 0,20,21
 450 640 450 640 507 562 c 128,-1,22
 564 484 564 484 564 312.5 c 128,-1,23
 564 141 564 141 507 63 c 128,-1,24
 450 -15 450 -15 307 -15 c 128,-1,25
 164 -15 164 -15 53 11 c 1,26,-1
 81 176 l 1,27,28
 176 153 176 153 239.25 153 c 128,-1,29
 302.5 153 302.5 153 349 159 c 1,30,-1
 349 217 l 1,10,-1
EndSplineSet
EndChar

StartChar: numbersign
Encoding: 35 35 152
Width: 746
Flags: HMW
HStem: -40 21G<62 113 62 62 326 377 326 326> 645 20G<374 425 425 425 638 689 689 689>
LayerCount: 2
Fore
SplineSet
425 665 m 1,0,-1
 349 474 l 1,1,-1
 529 474 l 1,2,-1
 595 640 l 2,3,4
 600 650 600 650 604 654 c 0,5,6
 615 665 615 665 638 665 c 2,7,-1
 689 665 l 1,8,-1
 613 474 l 1,9,-1
 746 474 l 1,10,-1
 728 426 l 2,11,12
 717.957264957 401.897435897 717.957264957 401.897435897 705.5 398.5 c 0,13,14
 700 397 700 397 689 395 c 1,15,-1
 582 395 l 1,16,-1
 516 228 l 1,17,-1
 649 228 l 1,18,-1
 631 181 l 1,19,20
 623 163 623 163 615 157.5 c 128,-1,21
 607 152 607 152 592 150 c 1,22,-1
 485 150 l 1,23,-1
 420 -15 l 2,24,25
 415 -25 415 -25 411 -29 c 0,26,27
 400 -40 400 -40 377 -40 c 2,28,-1
 326 -40 l 1,29,-1
 401 150 l 1,30,-1
 221 150 l 1,31,-1
 156 -15 l 2,32,33
 151 -25 151 -25 147 -29 c 0,34,35
 136 -40 136 -40 113 -40 c 2,36,-1
 62 -40 l 1,37,-1
 137 150 l 1,38,-1
 0 150 l 1,39,-1
 19 197 l 2,40,41
 26 215 26 215 34.5 220.5 c 128,-1,42
 43 226 43 226 58 228 c 1,43,-1
 168 228 l 1,44,-1
 234 395 l 1,45,-1
 97 395 l 1,46,-1
 116 443 l 2,47,48
 126.042735043 467.102564103 126.042735043 467.102564103 138.5 470.5 c 0,49,50
 144 472 144 472 155 474 c 1,51,-1
 265 474 l 1,52,-1
 331 640 l 2,53,54
 336 650 336 650 340 654 c 0,55,56
 351 665 351 665 374 665 c 2,57,-1
 425 665 l 1,0,-1
318 395 m 1,58,-1
 252 228 l 1,59,-1
 432 228 l 1,60,-1
 498 395 l 1,61,-1
 318 395 l 1,58,-1
EndSplineSet
EndChar

StartChar: o
Encoding: 111 111 153
Width: 590
Flags: HMW
HStem: -15 146<245 276 276 296 245 390> 369 146<294 314 314 345>
VStem: 30 215<162.5 327 131 337.5> 345 215<173 337.5 162.5 369 162.5 369>
LayerCount: 2
Fore
SplineSet
30 250 m 128,-1,1
 30 384 30 384 92.5 449.5 c 128,-1,2
 155 515 155 515 295 515 c 128,-1,3
 435 515 435 515 497.5 449.5 c 128,-1,4
 560 384 560 384 560 250 c 128,-1,5
 560 116 560 116 497.5 50.5 c 128,-1,6
 435 -15 435 -15 295 -15 c 128,-1,7
 155 -15 155 -15 92.5 50.5 c 128,-1,0
 30 116 30 116 30 250 c 128,-1,1
245 327 m 2,8,-1
 245 131 l 1,9,-1
 276 131 l 2,10,11
 312 131 312 131 328.5 138.5 c 128,-1,12
 345 146 345 146 345 173 c 2,13,-1
 345 369 l 1,14,-1
 314 369 l 2,15,16
 278 369 278 369 261.5 361.5 c 128,-1,17
 245 354 245 354 245 327 c 2,8,-1
EndSplineSet
EndChar

StartChar: ocircumflex
Encoding: 244 244 155
Width: 590
Flags: HMW
HStem: -15 146<245 276 276 296 245 390> 369 146<294 314 314 345> 537 21G<201 201 387 387> 720 20G<270 318 318 321.5>
VStem: 30 215<162.5 327 131 337.5> 345 215<173 337.5 162.5 369 162.5 369>
LayerCount: 2
Fore
SplineSet
30 250 m 128,-1,1
 30 384 30 384 92.5 449.5 c 128,-1,2
 155 515 155 515 295 515 c 128,-1,3
 435 515 435 515 497.5 449.5 c 128,-1,4
 560 384 560 384 560 250 c 128,-1,5
 560 116 560 116 497.5 50.5 c 128,-1,6
 435 -15 435 -15 295 -15 c 128,-1,7
 155 -15 155 -15 92.5 50.5 c 128,-1,0
 30 116 30 116 30 250 c 128,-1,1
245 327 m 2,8,-1
 245 131 l 1,9,-1
 276 131 l 2,10,11
 312 131 312 131 328.5 138.5 c 128,-1,12
 345 146 345 146 345 173 c 2,13,-1
 345 369 l 1,14,-1
 314 369 l 2,15,16
 278 369 278 369 261.5 361.5 c 128,-1,17
 245 354 245 354 245 327 c 2,8,-1
270 740 m 2,18,-1
 318 740 l 2,19,20
 325 740 325 740 334 731 c 1,21,-1
 447 586 l 1,22,-1
 387 537 l 1,23,-1
 294 600 l 1,24,-1
 201 537 l 1,25,-1
 141 586 l 1,26,-1
 254 731 l 1,27,28
 263 740 263 740 270 740 c 2,18,-1
EndSplineSet
EndChar

StartChar: oe
Encoding: 339 339 157
Width: 887
Flags: HMW
HStem: -15 21G<200 390 517 650.5> -15 146<245 276 276 296 245 390> 170 116<562 603 603 623 562 678> 369 146<294 314 314 345 611 631 631 672>
VStem: 30 215<162.5 327 131 337.5> 345 215<173 337.5 162.5 369 162.5 369> 347 215<162.5 170 135 286 286 327 135 337.5> 672 185<328 369 369 369>
LayerCount: 2
Fore
SplineSet
30 250 m 128,-1,1
 30 384 30 384 92.5 449.5 c 128,-1,2
 155 515 155 515 295 515 c 128,-1,3
 435 515 435 515 497.5 449.5 c 128,-1,4
 560 384 560 384 560 250 c 128,-1,5
 560 116 560 116 497.5 50.5 c 128,-1,6
 435 -15 435 -15 295 -15 c 128,-1,7
 155 -15 155 -15 92.5 50.5 c 128,-1,0
 30 116 30 116 30 250 c 128,-1,1
245 327 m 2,8,-1
 245 131 l 1,9,-1
 276 131 l 2,10,11
 312 131 312 131 328.5 138.5 c 128,-1,12
 345 146 345 146 345 173 c 2,13,-1
 345 369 l 1,14,-1
 314 369 l 2,15,16
 278 369 278 369 261.5 361.5 c 128,-1,17
 245 354 245 354 245 327 c 2,8,-1
562 170 m 1,18,-1
 562 135 l 1,19,20
 592 132 592 132 622 132 c 0,21,22
 715 132 715 132 810 162 c 1,23,-1
 834 15 l 1,24,25
 722 -15 722 -15 612 -15 c 0,26,27
 472 -15 472 -15 409.5 50.5 c 128,-1,28
 347 116 347 116 347 250 c 128,-1,29
 347 384 347 384 409.5 449.5 c 128,-1,30
 472 515 472 515 611.5 515 c 0,31,32
 751 515 751 515 804 477 c 128,-1,33
 857 439 857 439 857 335 c 0,34,35
 857 247 857 247 793.5 208.5 c 128,-1,36
 730 170 730 170 562 170 c 1,18,-1
562 327 m 2,37,-1
 562 286 l 1,38,-1
 603 286 l 2,39,40
 639 286 639 286 655.5 293.5 c 128,-1,41
 672 301 672 301 672 328 c 2,42,-1
 672 369 l 1,43,-1
 631 369 l 2,44,45
 595 369 595 369 578.5 361.5 c 128,-1,46
 562 354 562 354 562 327 c 2,37,-1
EndSplineSet
EndChar

StartChar: ogonek
Encoding: 731 731 158
Width: 500
Flags: HMW
HStem: -165 107<215 347> 1 20G<220 300 300 300>
LayerCount: 2
Fore
SplineSet
300 21 m 1,0,-1
 319 0 l 1,1,-1
 265 -26 l 1,2,3
 265 -47 265 -47 271 -52.5 c 128,-1,4
 277 -58 277 -58 298 -58 c 2,5,-1
 347 -58 l 1,6,-1
 358 -146 l 1,7,8
 298 -165 298 -165 248.5 -165 c 0,9,10
 199 -165 199 -165 170.5 -141 c 128,-1,11
 142 -117 142 -117 142 -81 c 0,12,13
 142 -15 142 -15 220 21 c 1,14,-1
 300 21 l 1,0,-1
EndSplineSet
EndChar

StartChar: one
Encoding: 49 49 160
Width: 600
Flags: HMW
HStem: 0 160<66 244 454 566 66 244> 605 20G<296 454 454 454>
VStem: 244 210<160 425 425 425>
LayerCount: 2
Fore
SplineSet
566 0 m 1,0,-1
 66 0 l 1,1,-1
 66 160 l 1,2,-1
 244 160 l 1,3,-1
 244 425 l 1,4,-1
 66 413 l 1,5,-1
 66 573 l 1,6,-1
 296 625 l 1,7,-1
 454 625 l 1,8,-1
 454 160 l 1,9,-1
 566 160 l 1,10,-1
 566 0 l 1,0,-1
EndSplineSet
EndChar

StartChar: onehalf
Encoding: 189 189 161
Width: 971
Flags: HMW
HStem: -40 21G<296 347 296 296> 0 110<746 915 746 915> 227 110<59 154 294 373 59 154> 596 20G<190 294 294 294> 645 20G<608 659 659 659>
VStem: 59 235<227 616 337 616 475 584 584 584> 154 140<337 480 480 480>
LayerCount: 2
Fore
SplineSet
618 270 m 1,0,-1
 599 381 l 1,1,2
 668 398 668 398 733.5 398 c 128,-1,3
 799 398 799 398 824 394 c 128,-1,4
 849 390 849 390 873.5 378 c 0,5,6
 921 354.734693878 921 354.734693878 921 270 c 0,7,8
 921 211 921 211 890 187 c 128,-1,9
 859 163 859 163 746 125 c 1,10,-1
 746 110 l 1,11,-1
 915 110 l 1,12,-1
 915 0 l 1,13,-1
 593 0 l 1,14,-1
 593 82 l 2,15,16
 593 138 593 138 616.5 161.5 c 0,17,18
 627 172 627 172 632.5 178 c 128,-1,19
 638 184 638 184 654.5 193 c 128,-1,20
 671 202 671 202 678 205.5 c 128,-1,21
 685 209 685 209 707.5 219 c 2,22,-1
 778 251 l 1,23,-1
 778 283 l 1,24,25
 756 285 756 285 721 285 c 128,-1,26
 686 285 686 285 618 270 c 1,0,-1
373 227 m 1,27,-1
 59 227 l 1,28,-1
 59 337 l 1,29,-1
 154 337 l 1,30,-1
 154 480 l 1,31,-1
 59 475 l 1,32,-1
 59 584 l 1,33,-1
 190 616 l 1,34,-1
 294 616 l 1,35,-1
 294 337 l 1,36,-1
 373 337 l 1,37,-1
 373 227 l 1,27,-1
659 665 m 1,38,-1
 390 -15 l 2,39,40
 385 -25 385 -25 381 -29 c 0,41,42
 370 -40 370 -40 347 -40 c 2,43,-1
 296 -40 l 1,44,-1
 565 640 l 2,45,46
 570 650 570 650 574 654 c 0,47,48
 585 665 585 665 608 665 c 2,49,-1
 659 665 l 1,38,-1
EndSplineSet
EndChar

StartChar: onequarter
Encoding: 188 188 162
Width: 971
Flags: HMW
HStem: -40 21G<326 377 326 326> 0 21G<762 762 762 896> 60 112<709 762 709 762 896 935> 227 110<59 154 294 373 59 154> 596 20G<190 294 294 294> 645 20G<638 689 689 689>
VStem: 59 235<227 616 337 616 475 584 584 584> 154 140<337 480 480 480> 762 134<0 60 0 60 172 295 295 295>
LayerCount: 2
Fore
SplineSet
762 0 m 1,0,-1
 762 60 l 1,1,-1
 578 60 l 1,2,-1
 578 144 l 1,3,-1
 672 389 l 1,4,-1
 896 389 l 1,5,-1
 896 172 l 1,6,-1
 935 172 l 1,7,-1
 935 60 l 1,8,-1
 896 60 l 1,9,-1
 896 0 l 1,10,-1
 762 0 l 1,0,-1
762 172 m 1,11,-1
 762 295 l 1,12,-1
 754 295 l 1,13,-1
 709 172 l 1,14,-1
 762 172 l 1,11,-1
373 227 m 1,15,-1
 59 227 l 1,16,-1
 59 337 l 1,17,-1
 154 337 l 1,18,-1
 154 480 l 1,19,-1
 59 475 l 1,20,-1
 59 584 l 1,21,-1
 190 616 l 1,22,-1
 294 616 l 1,23,-1
 294 337 l 1,24,-1
 373 337 l 1,25,-1
 373 227 l 1,15,-1
689 665 m 1,26,-1
 420 -15 l 2,27,28
 415 -25 415 -25 411 -29 c 0,29,30
 400 -40 400 -40 377 -40 c 2,31,-1
 326 -40 l 1,32,-1
 595 640 l 2,33,34
 600 650 600 650 604 654 c 0,35,36
 615 665 615 665 638 665 c 2,37,-1
 689 665 l 1,26,-1
EndSplineSet
EndChar

StartChar: onesuperior
Encoding: 185 185 163
Width: 400
Flags: HMW
HStem: 343 110<53 148 288 367 53 148> 712 20G<184 288 288 288>
VStem: 53 235<343 732 453 732 591 700 700 700> 148 140<453 596 596 596>
LayerCount: 2
Fore
SplineSet
367 343 m 1,0,-1
 53 343 l 1,1,-1
 53 453 l 1,2,-1
 148 453 l 1,3,-1
 148 596 l 1,4,-1
 53 591 l 1,5,-1
 53 700 l 1,6,-1
 184 732 l 1,7,-1
 288 732 l 1,8,-1
 288 453 l 1,9,-1
 367 453 l 1,10,-1
 367 343 l 1,0,-1
EndSplineSet
EndChar

StartChar: ordfeminine
Encoding: 170 170 164
Width: 458
Flags: HMW
HStem: 191 109<35 423 83 375> 646 124<200 205>
LayerCount: 2
Fore
SplineSet
43 744 m 1,0,1
 124 770 124 770 222 770 c 128,-1,2
 320 770 320 770 372 740.5 c 128,-1,3
 424 711 424 711 424 635 c 2,4,-1
 424 356 l 1,5,-1
 337 356 l 1,6,-1
 295 398 l 1,7,8
 271 373 271 373 231 358.5 c 128,-1,9
 191 344 191 344 149 344 c 0,10,11
 12 344 12 344 12 475 c 0,12,13
 12 551 12 551 68 578.5 c 128,-1,14
 124 606 124 606 231 606 c 2,15,-1
 255 606 l 1,16,-1
 255 642 l 1,17,18
 228 646 228 646 179 646 c 128,-1,19
 130 646 130 646 62 628 c 1,20,-1
 43 744 l 1,0,1
191 493 m 2,21,-1
 191 462 l 1,22,-1
 207 462 l 2,23,24
 252 462 252 462 255 484 c 1,25,-1
 255 518 l 1,26,-1
 237 518 l 2,27,28
 206.166666667 518 206.166666667 518 198.583333333 511 c 128,-1,29
 191 504 191 504 191 493 c 2,21,-1
35 191 m 1,30,-1
 35 271 l 2,31,32
 35 291 35 291 45.5 295.5 c 128,-1,33
 56 300 56 300 83 300 c 2,34,-1
 423 300 l 1,35,-1
 423 222 l 2,36,37
 423 202 423 202 411.5 196.5 c 128,-1,38
 400 191 400 191 375 191 c 2,39,-1
 35 191 l 1,30,-1
EndSplineSet
EndChar

StartChar: ordmasculine
Encoding: 186 186 165
Width: 472
Flags: HMW
HStem: 191 109<35 423 83 375> 750 20G<156.5 309.5>
VStem: 20 181<486.5 618 472 627.5> 265 181<497 627.5 486.5 643 486.5 643>
LayerCount: 2
Fore
SplineSet
20 557 m 128,-1,1
 20 665 20 665 70 717.5 c 128,-1,2
 120 770 120 770 233 770 c 128,-1,3
 346 770 346 770 396 717.5 c 128,-1,4
 446 665 446 665 446 557 c 128,-1,5
 446 449 446 449 396 396.5 c 128,-1,6
 346 344 346 344 233 344 c 128,-1,7
 120 344 120 344 70 396.5 c 128,-1,0
 20 449 20 449 20 557 c 128,-1,1
201 618 m 2,8,-1
 201 472 l 1,9,-1
 218 472 l 2,10,11
 242 472 242 472 253.5 476.5 c 128,-1,12
 265 481 265 481 265 497 c 2,13,-1
 265 643 l 1,14,-1
 247 643 l 2,15,16
 223 643 223 643 212 638.5 c 128,-1,17
 201 634 201 634 201 618 c 2,8,-1
35 191 m 1,18,-1
 35 271 l 2,19,20
 35 291 35 291 45.5 295.5 c 128,-1,21
 56 300 56 300 83 300 c 2,22,-1
 423 300 l 1,23,-1
 423 222 l 2,24,25
 423 202 423 202 411.5 196.5 c 128,-1,26
 400 191 400 191 375 191 c 2,27,-1
 35 191 l 1,18,-1
EndSplineSet
EndChar

StartChar: oslash
Encoding: 248 248 166
Width: 590
Flags: HMW
HStem: -104 21G<43 114 43 43> -15 146<245 276 276 296 245 390> 369 146<294 314 314 345> 581 20G<475 546 546 546>
VStem: 30 215<162.5 327 131 337.5> 345 215<173 337.5 162.5 369 162.5 369>
LayerCount: 2
Fore
SplineSet
240 100 m 1,0,-1
 412 400 l 1,1,-1
 351 400 l 1,2,-1
 179 100 l 1,3,-1
 240 100 l 1,0,-1
151 85 m 1,4,-1
 251 85 l 1,5,-1
 157 -79 l 2,6,7
 152 -89 152 -89 148 -93 c 0,8,9
 137 -104 137 -104 114 -104 c 2,10,-1
 43 -104 l 1,11,-1
 151 85 l 1,4,-1
444 422 m 1,12,-1
 546 601 l 1,13,-1
 475 601 l 2,14,15
 452 601 452 601 441 590 c 0,16,17
 437 586 437 586 432 576 c 2,18,-1
 344 422 l 1,19,-1
 444 422 l 1,12,-1
30 250 m 128,-1,21
 30 384 30 384 92.5 449.5 c 128,-1,22
 155 515 155 515 295 515 c 128,-1,23
 435 515 435 515 497.5 449.5 c 128,-1,24
 560 384 560 384 560 250 c 128,-1,25
 560 116 560 116 497.5 50.5 c 128,-1,26
 435 -15 435 -15 295 -15 c 128,-1,27
 155 -15 155 -15 92.5 50.5 c 128,-1,20
 30 116 30 116 30 250 c 128,-1,21
245 327 m 2,28,29
 245 354 245 354 261.5 361.5 c 128,-1,30
 278 369 278 369 314 369 c 2,31,-1
 345 369 l 1,32,-1
 345 173 l 2,33,34
 345 146 345 146 328.5 138.5 c 128,-1,35
 312 131 312 131 276 131 c 2,36,-1
 245 131 l 1,37,-1
 245 327 l 2,28,29
EndSplineSet
EndChar

StartChar: otilde
Encoding: 245 245 167
Width: 590
Flags: HMW
HStem: -15 146<245 276 276 296 245 390> 369 146<294 314 314 345> 543 21G<305 338.5> 701 20G<251.5 285>
VStem: 30 215<162.5 327 131 337.5> 345 215<173 337.5 162.5 369 162.5 369>
LayerCount: 2
Fore
SplineSet
30 250 m 128,-1,1
 30 384 30 384 92.5 449.5 c 128,-1,2
 155 515 155 515 295 515 c 128,-1,3
 435 515 435 515 497.5 449.5 c 128,-1,4
 560 384 560 384 560 250 c 128,-1,5
 560 116 560 116 497.5 50.5 c 128,-1,6
 435 -15 435 -15 295 -15 c 128,-1,7
 155 -15 155 -15 92.5 50.5 c 128,-1,0
 30 116 30 116 30 250 c 128,-1,1
245 327 m 2,8,-1
 245 131 l 1,9,-1
 276 131 l 2,10,11
 312 131 312 131 328.5 138.5 c 128,-1,12
 345 146 345 146 345 173 c 2,13,-1
 345 369 l 1,14,-1
 314 369 l 2,15,16
 278 369 278 369 261.5 361.5 c 128,-1,17
 245 354 245 354 245 327 c 2,8,-1
438 716 m 1,18,-1
 488 635 l 1,19,20
 368.874948527 555.270634841 368.874948527 555.270634841 354.304842248 549.13531742 c 0,21,22
 339.734735969 543 339.734735969 543 325.867367984 543 c 0,23,24
 312 543 312 543 303.5 545 c 128,-1,25
 295 547 295 547 285 552.5 c 128,-1,26
 275 558 275 558 269.5 562 c 128,-1,27
 264 566 264 566 251.5 575 c 128,-1,28
 239 584 239 584 234 588 c 1,29,-1
 152 548 l 1,30,-1
 102 629 l 1,31,32
 221.125051473 708.729365159 221.125051473 708.729365159 235.695157752 714.86468258 c 0,33,34
 250.265264031 721 250.265264031 721 264.132632016 721 c 0,35,36
 278 721 278 721 286.5 719 c 128,-1,37
 295 717 295 717 305 711.5 c 128,-1,38
 315 706 315 706 320.5 702 c 128,-1,39
 326 698 326 698 338.5 689 c 128,-1,40
 351 680 351 680 356 676 c 1,41,-1
 438 716 l 1,18,-1
EndSplineSet
EndChar

StartChar: p
Encoding: 112 112 168
Width: 595
Flags: HMW
HStem: -165 21G<50 50> 0 131<250 281 281 301 250 365 250 281> 369 146<308 319 319 350> 480 20G<50 150 150 150>
VStem: 50 200<-150 0 -150 131 131 332> 350 215<198.5 312.5 198.5 369 198.5 369>
LayerCount: 2
Fore
SplineSet
50 500 m 1,0,-1
 150 500 l 1,1,-1
 187 450 l 1,2,3
 231 515 231 515 350 515 c 0,4,5
 411 515 411 515 455 492 c 128,-1,6
 499 469 499 469 522 429 c 0,7,8
 565 354.217391304 565 354.217391304 565 250 c 0,9,10
 565 122.534883721 565 122.534883721 509.5 58 c 0,11,12
 488 33 488 33 451 16.5 c 128,-1,13
 414 0 414 0 365 0 c 2,14,-1
 250 0 l 1,15,-1
 250 -150 l 1,16,-1
 50 -165 l 1,17,-1
 50 500 l 1,0,-1
250 332 m 1,18,-1
 250 131 l 1,19,-1
 281 131 l 2,20,21
 317 131 317 131 333.5 138.5 c 128,-1,22
 350 146 350 146 350 173 c 2,23,-1
 350 369 l 1,24,-1
 319 369 l 2,25,26
 297 369 297 369 284 367 c 128,-1,27
 271 365 271 365 261 356.5 c 128,-1,28
 251 348 251 348 250 332 c 1,18,-1
EndSplineSet
EndChar

StartChar: paragraph
Encoding: 182 182 169
Width: 604
Flags: HMW
HStem: 0 21G<70 70 70 289 319 319 319 514> 465 160<289 319 289 289 514 564 514 514>
VStem: 185 104<86 218 218 218> 319 195<0 465 0 465>
LayerCount: 2
Fore
SplineSet
70 0 m 1,0,-1
 70 50 l 1,1,-1
 185 86 l 1,2,-1
 185 218 l 1,3,4
 30 239 30 239 30 418 c 0,5,6
 30 513 30 513 78 569 c 128,-1,7
 126 625 126 625 245 625 c 2,8,-1
 564 625 l 1,9,-1
 564 465 l 1,10,-1
 514 465 l 1,11,-1
 514 0 l 1,12,-1
 319 0 l 1,13,-1
 319 465 l 1,14,-1
 289 465 l 1,15,-1
 289 0 l 1,16,-1
 70 0 l 1,0,-1
EndSplineSet
EndChar

StartChar: parenleft
Encoding: 40 40 170
Width: 314
Flags: HMW
HStem: -136 21G<274 274> 600 20G<274 274>
VStem: 20 180<184 300>
LayerCount: 2
Fore
SplineSet
274 620 m 1,0,-1
 284 473 l 1,1,2
 267 466 267 466 255.5 456.5 c 128,-1,3
 244 447 244 447 229.5 424 c 0,4,5
 200 377.206896552 200 377.206896552 200 242 c 0,6,7
 200 104 200 104 230 58 c 0,8,9
 245 35 245 35 255.5 27 c 128,-1,10
 266 19 266 19 284 11 c 1,11,-1
 274 -136 l 1,12,13
 20 -103 20 -103 20 242 c 128,-1,14
 20 587 20 587 274 620 c 1,0,-1
EndSplineSet
Position2: "'case' Case-Sensitive Forms in Latin lookup 0 subtable" dx=0 dy=70 dh=0 dv=0
EndChar

StartChar: parenright
Encoding: 41 41 171
Width: 314
Flags: HMW
HStem: -146 21G<40 40> 590 20G<40 40>
VStem: 114 180<174 290 174 326.5>
LayerCount: 2
Fore
SplineSet
30 463 m 1,0,-1
 40 610 l 1,1,2
 294 577 294 577 294 232 c 128,-1,3
 294 -113 294 -113 40 -146 c 1,4,-1
 30 1 l 1,5,6
 48 9 48 9 58.5 17 c 128,-1,7
 69 25 69 25 84 48 c 0,8,9
 114 94 114 94 114 232 c 0,10,11
 114 367.206896552 114 367.206896552 84.5 414 c 0,12,13
 70 437 70 437 58.5 446.5 c 128,-1,14
 47 456 47 456 30 463 c 1,0,-1
EndSplineSet
Position2: "'case' Case-Sensitive Forms in Latin lookup 0 subtable" dx=0 dy=70 dh=0 dv=0
EndChar

StartChar: percent
Encoding: 37 37 172
Width: 862
Flags: HMW
HStem: -15 21G<590.5 723.5> 0 21G<200 265 200 200> 270 85 605 20G<594 659 659 659> 620 20G<138.5 271.5>
VStem: 20 158<394 494 387 516> 232 158<416 516 394 523 394 523> 472 158<109 209 102 231> 684 158<131 231 109 238 109 238>
LayerCount: 2
Fore
SplineSet
659 625 m 1,0,-1
 314 25 l 2,1,2
 304 8 304 8 296.5 4 c 128,-1,3
 289 0 289 0 265 0 c 2,4,-1
 200 0 l 1,5,-1
 545 600 l 2,6,7
 555 617 555 617 562.5 621 c 128,-1,8
 570 625 570 625 594 625 c 2,9,-1
 659 625 l 1,0,-1
472 170 m 128,-1,11
 472 264 472 264 515.5 309.5 c 128,-1,12
 559 355 559 355 657 355 c 128,-1,13
 755 355 755 355 798.5 309.5 c 128,-1,14
 842 264 842 264 842 170 c 128,-1,15
 842 76 842 76 798.5 30.5 c 128,-1,16
 755 -15 755 -15 657 -15 c 128,-1,17
 559 -15 559 -15 515.5 30.5 c 128,-1,10
 472 76 472 76 472 170 c 128,-1,11
630 209 m 2,18,-1
 630 102 l 1,19,-1
 652 102 l 2,20,21
 673 102 673 102 678.5 106.5 c 128,-1,22
 684 111 684 111 684 131 c 2,23,-1
 684 238 l 1,24,-1
 662 238 l 2,25,26
 641 238 641 238 635.5 233.5 c 128,-1,27
 630 229 630 229 630 209 c 2,18,-1
20 455 m 128,-1,29
 20 549 20 549 63.5 594.5 c 128,-1,30
 107 640 107 640 205 640 c 128,-1,31
 303 640 303 640 346.5 594.5 c 128,-1,32
 390 549 390 549 390 455 c 128,-1,33
 390 361 390 361 346.5 315.5 c 128,-1,34
 303 270 303 270 205 270 c 128,-1,35
 107 270 107 270 63.5 315.5 c 128,-1,28
 20 361 20 361 20 455 c 128,-1,29
178 494 m 2,36,-1
 178 387 l 1,37,-1
 200 387 l 2,38,39
 221 387 221 387 226.5 391.5 c 128,-1,40
 232 396 232 396 232 416 c 2,41,-1
 232 523 l 1,42,-1
 210 523 l 2,43,44
 189 523 189 523 183.5 518.5 c 128,-1,45
 178 514 178 514 178 494 c 2,36,-1
EndSplineSet
EndChar

StartChar: period
Encoding: 46 46 173
Width: 267
Flags: HMW
HStem: -6 21G<94.5 183> 186 20G<94.5 183>
VStem: 30 217<61 137>
LayerCount: 2
Fore
SplineSet
30 99 m 128,-1,1
 30 158 30 158 52 182 c 128,-1,2
 74 206 74 206 138.5 206 c 0,3,4
 203 206 203 206 225 182 c 128,-1,5
 247 158 247 158 247 99 c 128,-1,6
 247 40 247 40 225 17 c 128,-1,7
 203 -6 203 -6 138.5 -6 c 0,8,9
 74 -6 74 -6 52 17 c 128,-1,0
 30 40 30 40 30 99 c 128,-1,1
EndSplineSet
EndChar

StartChar: periodcentered
Encoding: 183 183 174
Width: 277
Flags: HMW
HStem: 144 21G<94.5 183> 151 200 336 20G<94.5 183>
VStem: 30 217<211 287>
LayerCount: 2
Fore
SplineSet
30 249 m 128,-1,1
 30 308 30 308 52 332 c 128,-1,2
 74 356 74 356 138.5 356 c 0,3,4
 203 356 203 356 225 332 c 128,-1,5
 247 308 247 308 247 249 c 128,-1,6
 247 190 247 190 225 167 c 128,-1,7
 203 144 203 144 138.5 144 c 0,8,9
 74 144 74 144 52 167 c 128,-1,0
 30 190 30 190 30 249 c 128,-1,1
EndSplineSet
EndChar

StartChar: perthousand
Encoding: 8240 8240 175
Width: 1145
Flags: HMW
HStem: -15 117<630 652 652 666 630 690 913 935 935 949> 0 21G<200 265 200 200> 238 117<648 662 662 684 931 945 945 967> 270 85 605 20G<594 659 659 659> 620 20G<138.5 271.5>
VStem: 20 158<394 494 387 516> 232 158<416 516 394 523 394 523> 472 158<109 209 102 231> 684 229<131 209 102 238 102 238> 967 158<131 231 109 238 109 238>
LayerCount: 2
Fore
SplineSet
472 170 m 128,-1,1
 472 264 472 264 515.5 309.5 c 128,-1,2
 559 355 559 355 657 355 c 128,-1,3
 755 355 755 355 798 309 c 1,4,5
 843 355 843 355 940.5 355 c 0,6,7
 1038 355 1038 355 1081.5 309.5 c 128,-1,8
 1125 264 1125 264 1125 170 c 128,-1,9
 1125 76 1125 76 1081.5 30.5 c 128,-1,10
 1038 -15 1038 -15 940.5 -15 c 0,11,12
 843 -15 843 -15 798 31 c 1,13,14
 755 -15 755 -15 657 -15 c 128,-1,15
 559 -15 559 -15 515.5 30.5 c 128,-1,0
 472 76 472 76 472 170 c 128,-1,1
20 455 m 128,-1,17
 20 549 20 549 63.5 594.5 c 128,-1,18
 107 640 107 640 205 640 c 128,-1,19
 303 640 303 640 346.5 594.5 c 128,-1,20
 390 549 390 549 390 455 c 128,-1,21
 390 361 390 361 346.5 315.5 c 128,-1,22
 303 270 303 270 205 270 c 128,-1,23
 107 270 107 270 63.5 315.5 c 128,-1,16
 20 361 20 361 20 455 c 128,-1,17
659 625 m 1,24,-1
 314 25 l 2,25,26
 304 8 304 8 296.5 4 c 128,-1,27
 289 0 289 0 265 0 c 2,28,-1
 200 0 l 1,29,-1
 545 600 l 2,30,31
 555 617 555 617 562.5 621 c 128,-1,32
 570 625 570 625 594 625 c 2,33,-1
 659 625 l 1,24,-1
630 209 m 2,34,-1
 630 102 l 1,35,-1
 652 102 l 2,36,37
 673 102 673 102 678.5 106.5 c 128,-1,38
 684 111 684 111 684 131 c 2,39,-1
 684 238 l 1,40,-1
 662 238 l 2,41,42
 641 238 641 238 635.5 233.5 c 128,-1,43
 630 229 630 229 630 209 c 2,34,-1
913 209 m 2,44,-1
 913 102 l 1,45,-1
 935 102 l 2,46,47
 956 102 956 102 961.5 106.5 c 128,-1,48
 967 111 967 111 967 131 c 2,49,-1
 967 238 l 1,50,-1
 945 238 l 2,51,52
 924 238 924 238 918.5 233.5 c 128,-1,53
 913 229 913 229 913 209 c 2,44,-1
178 494 m 2,54,-1
 178 387 l 1,55,-1
 200 387 l 2,56,57
 221 387 221 387 226.5 391.5 c 128,-1,58
 232 396 232 396 232 416 c 2,59,-1
 232 523 l 1,60,-1
 210 523 l 2,61,62
 189 523 189 523 183.5 518.5 c 128,-1,63
 178 514 178 514 178 494 c 2,54,-1
EndSplineSet
EndChar

StartChar: plus
Encoding: 43 43 176
Width: 600
Flags: HMW
HStem: 84 21G<227 371 227 227> 240 144<72 227 72 227 371 527> 519 20G<227 371 371 371>
VStem: 227 144<84 240 84 240 384 539>
LayerCount: 2
Fore
SplineSet
72 240 m 1,0,-1
 72 384 l 1,1,-1
 227 384 l 1,2,-1
 227 539 l 1,3,-1
 371 539 l 1,4,-1
 371 384 l 1,5,-1
 527 384 l 1,6,-1
 527 240 l 1,7,-1
 371 240 l 1,8,-1
 371 84 l 1,9,-1
 227 84 l 1,10,-1
 227 240 l 1,11,-1
 72 240 l 1,0,-1
EndSplineSet
EndChar

StartChar: plusminus
Encoding: 177 177 177
Width: 600
Flags: HMW
HStem: 0 144<72 527 72 527> 185 21G<227 371 227 227> 341 144<72 227 72 227 371 527> 620 20G<227 371 371 371>
VStem: 227 144<185 341 185 341 485 640>
LayerCount: 2
Fore
SplineSet
72 341 m 1,0,-1
 72 485 l 1,1,-1
 227 485 l 1,2,-1
 227 640 l 1,3,-1
 371 640 l 1,4,-1
 371 485 l 1,5,-1
 527 485 l 1,6,-1
 527 341 l 1,7,-1
 371 341 l 1,8,-1
 371 185 l 1,9,-1
 227 185 l 1,10,-1
 227 341 l 1,11,-1
 72 341 l 1,0,-1
72 0 m 1,12,-1
 72 144 l 1,13,-1
 527 144 l 1,14,-1
 527 0 l 1,15,-1
 72 0 l 1,12,-1
EndSplineSet
EndChar

StartChar: q
Encoding: 113 113 178
Width: 595
Flags: HMW
HStem: -165 21G<345 345> -15 146<245 265.5> 369 146<294 294.5 179.5 314 179.5 345> 480 20G<445 545 545 545>
VStem: 30 215<189.5 325> 345 200<-151 0 0 0 173 369 369 369>
LayerCount: 2
Fore
SplineSet
445 500 m 1,0,-1
 545 500 l 1,1,-1
 545 -151 l 1,2,-1
 345 -165 l 1,3,-1
 345 0 l 1,4,5
 306 -15 306 -15 245 -15 c 128,-1,6
 184 -15 184 -15 140 8.5 c 128,-1,7
 96 32 96 32 73 72.5 c 0,8,9
 30 148.217391304 30 148.217391304 30 259.608695652 c 128,-1,10
 30 371 30 371 86.5 443 c 128,-1,11
 143 515 143 515 265 515 c 0,12,13
 352 515 352 515 417 472 c 1,14,-1
 445 500 l 1,0,-1
245 327 m 2,15,-1
 245 131 l 1,16,-1
 276 131 l 2,17,18
 312 131 312 131 328.5 138.5 c 128,-1,19
 345 146 345 146 345 173 c 2,20,-1
 345 369 l 1,21,-1
 314 369 l 2,22,23
 278 369 278 369 261.5 361.5 c 128,-1,24
 245 354 245 354 245 327 c 2,15,-1
EndSplineSet
EndChar

StartChar: question
Encoding: 63 63 179
Width: 528
Flags: HMW
HStem: -7 156<171 262.5> 489 151<213.5 251>
VStem: 123 205
LayerCount: 2
Fore
SplineSet
318 302 m 1,0,-1
 301 175 l 1,1,-1
 131 175 l 1,2,-1
 116 363 l 1,3,4
 116 381 116 381 128 391.5 c 128,-1,5
 140 402 140 402 181 416 c 2,6,-1
 288 453 l 1,7,-1
 288 487 l 1,8,9
 262 489 262 489 228.5 489 c 128,-1,10
 195 489 195 489 140 482.5 c 128,-1,11
 85 476 85 476 64 469 c 1,12,-1
 40 612 l 1,13,14
 149 640 149 640 248 640 c 0,15,16
 394.121212121 640 394.121212121 640 442 600.5 c 0,17,18
 488 562.55 488 562.55 488 484.775 c 128,-1,19
 488 407 488 407 449.5 370.5 c 128,-1,20
 411 334 411 334 318 302 c 1,0,-1
105 70 m 128,-1,22
 105 113 105 113 128 131 c 128,-1,23
 151 149 151 149 217 149 c 128,-1,24
 283 149 283 149 305.5 131 c 128,-1,25
 328 113 328 113 328 70 c 128,-1,26
 328 27 328 27 305.5 10 c 128,-1,27
 283 -7 283 -7 216.5 -7 c 128,-1,28
 150 -7 150 -7 127.5 10 c 128,-1,21
 105 27 105 27 105 70 c 128,-1,22
EndSplineSet
EndChar

StartChar: questiondown
Encoding: 191 191 180
Width: 528
Flags: HMW
HStem: -15 151<277 314.5> 476 156<265.5 357>
VStem: 200 204
LayerCount: 2
Fore
SplineSet
210 323 m 1,0,-1
 227 450 l 1,1,-1
 397 450 l 1,2,-1
 412 262 l 1,3,4
 412 244 412 244 400 233.5 c 128,-1,5
 388 223 388 223 347 209 c 2,6,-1
 240 172 l 1,7,-1
 240 138 l 1,8,9
 266 136 266 136 299.5 136 c 128,-1,10
 333 136 333 136 388 142.5 c 128,-1,11
 443 149 443 149 464 156 c 1,12,-1
 488 13 l 1,13,14
 379 -15 379 -15 280 -15 c 0,15,16
 133.878787879 -15 133.878787879 -15 86 24.5 c 0,17,18
 40 62.45 40 62.45 40 140.225 c 128,-1,19
 40 218 40 218 78.5 254.5 c 128,-1,20
 117 291 117 291 210 323 c 1,0,-1
423 555 m 128,-1,22
 423 512 423 512 400 494 c 128,-1,23
 377 476 377 476 311 476 c 128,-1,24
 245 476 245 476 222.5 494 c 128,-1,25
 200 512 200 512 200 555 c 128,-1,26
 200 598 200 598 222.5 615 c 128,-1,27
 245 632 245 632 311.5 632 c 128,-1,28
 378 632 378 632 400.5 615 c 128,-1,21
 423 598 423 598 423 555 c 128,-1,22
EndSplineSet
EndChar

StartChar: quotedbl
Encoding: 34 34 181
Width: 500
Flags: HMW
HStem: 300 21G<75 175 75 75 325 325 325 425> 630 20G<62 188 188 202.5 312 438 438 452.5>
LayerCount: 2
Fore
SplineSet
175 300 m 1,0,-1
 75 300 l 1,1,2
 25 561 25 561 25 565 c 2,3,-1
 25 623 l 2,4,5
 25 650 25 650 62 650 c 2,6,-1
 188 650 l 2,7,8
 225 650 225 650 225 623 c 2,9,-1
 225 565 l 2,10,11
 225 561 225 561 175 300 c 1,0,-1
425 300 m 1,12,-1
 325 300 l 1,13,14
 275 561 275 561 275 565 c 2,15,-1
 275 623 l 2,16,17
 275 650 275 650 312 650 c 2,18,-1
 438 650 l 2,19,20
 475 650 475 650 475 623 c 2,21,-1
 475 565 l 2,22,23
 475 561 475 561 425 300 c 1,12,-1
EndSplineSet
EndChar

StartChar: quotedblbase
Encoding: 8222 8222 182
Width: 525
Flags: HMW
HStem: -149 21G<157 157 407 407> 188 20G<105.5 194 355.5 444>
VStem: 41 217<89 91 91 101 89 139> 291 217<91 101 91 139>
LayerCount: 2
Fore
SplineSet
53.5 47.5 m 128,-1,1
 41 65 41 65 41 112.5 c 128,-1,2
 41 160 41 160 63 184 c 128,-1,3
 85 208 85 208 149.5 208 c 128,-1,4
 214 208 214 208 236 184 c 128,-1,5
 258 160 258 160 258 101 c 2,6,-1
 258 89 l 1,7,8
 255.071038251 45.0655737705 255.071038251 45.0655737705 233 2.5 c 0,9,10
 226 -11 226 -11 225 -13 c 2,11,-1
 157 -149 l 1,12,-1
 68 -120 l 1,13,-1
 101 24 l 1,14,0
 66 30 66 30 53.5 47.5 c 128,-1,1
303.5 47.5 m 128,-1,16
 291 65 291 65 291 112.5 c 128,-1,17
 291 160 291 160 313 184 c 128,-1,18
 335 208 335 208 399.5 208 c 128,-1,19
 464 208 464 208 486 184 c 128,-1,20
 508 160 508 160 508 101 c 2,21,-1
 508 91 l 1,22,23
 505.396825397 51.9523809524 505.396825397 51.9523809524 497.698412698 33.4761904762 c 0,24,25
 483.888888889 0.333333333334 483.888888889 0.333333333334 475 -13 c 1,26,-1
 407 -149 l 1,27,-1
 318 -120 l 1,28,-1
 351 24 l 1,29,15
 316 30 316 30 303.5 47.5 c 128,-1,16
EndSplineSet
EndChar

StartChar: quotedblleft
Encoding: 8220 8220 183
Width: 525
Flags: HMW
HStem: 313 21G<81 169.5 331 419.5> 650 20G<118 118 368 368>
VStem: 17 217<420 432 432 432> 267 217<420 428 428 432 432 432>
LayerCount: 2
Fore
SplineSet
267 420 m 2,0,-1
 267 432 l 1,1,2
 269.444444444 468.666666667 269.444444444 468.666666667 277.222222222 487.333333333 c 128,-1,3
 285 506 285 506 291.5 518 c 128,-1,4
 298 530 298 530 300 534 c 2,5,-1
 368 670 l 1,6,-1
 457 641 l 1,7,-1
 424 496 l 1,8,9
 458 490 458 490 471 472.5 c 128,-1,10
 484 455 484 455 484 408 c 128,-1,11
 484 361 484 361 462 337 c 128,-1,12
 440 313 440 313 375.5 313 c 128,-1,13
 311 313 311 313 289 337 c 128,-1,14
 267 361 267 361 267 420 c 2,0,-1
221 472.5 m 128,-1,16
 234 455 234 455 234 408 c 128,-1,17
 234 361 234 361 212 337 c 128,-1,18
 190 313 190 313 125.5 313 c 128,-1,19
 61 313 61 313 39 337 c 128,-1,20
 17 361 17 361 17 420 c 2,21,-1
 17 432 l 1,22,23
 19.4444444444 468.666666667 19.4444444444 468.666666667 27.2222222222 487.333333333 c 128,-1,24
 35 506 35 506 41.5 518 c 128,-1,25
 48 530 48 530 50 534 c 2,26,-1
 118 670 l 1,27,-1
 207 641 l 1,28,-1
 174 496 l 1,29,15
 208 490 208 490 221 472.5 c 128,-1,16
EndSplineSet
EndChar

StartChar: quotedblright
Encoding: 8221 8221 184
Width: 525
Flags: HMW
HStem: 301 21G<157 157 407 407> 638 20G<105.5 194 355.5 444>
VStem: 41 217<539 541 541 551 539 589> 291 217<541 551 541 589>
LayerCount: 2
Fore
SplineSet
53.5 497.5 m 128,-1,1
 41 515 41 515 41 562.5 c 128,-1,2
 41 610 41 610 63 634 c 128,-1,3
 85 658 85 658 149.5 658 c 128,-1,4
 214 658 214 658 236 634 c 128,-1,5
 258 610 258 610 258 551 c 2,6,-1
 258 539 l 1,7,8
 255.071038251 495.06557377 255.071038251 495.06557377 233 452.5 c 0,9,10
 226 439 226 439 225 437 c 2,11,-1
 157 301 l 1,12,-1
 68 330 l 1,13,-1
 101 474 l 1,14,0
 66 480 66 480 53.5 497.5 c 128,-1,1
303.5 497.5 m 128,-1,16
 291 515 291 515 291 562.5 c 128,-1,17
 291 610 291 610 313 634 c 128,-1,18
 335 658 335 658 399.5 658 c 128,-1,19
 464 658 464 658 486 634 c 128,-1,20
 508 610 508 610 508 551 c 2,21,-1
 508 541 l 1,22,23
 505.396825397 501.952380952 505.396825397 501.952380952 497.698412698 483.476190476 c 0,24,25
 483.888888889 450.333333333 483.888888889 450.333333333 475 437 c 1,26,-1
 407 301 l 1,27,-1
 318 330 l 1,28,-1
 351 474 l 1,29,15
 316 480 316 480 303.5 497.5 c 128,-1,16
EndSplineSet
EndChar

StartChar: quoteleft
Encoding: 8216 8216 185
Width: 275
Flags: HMW
HStem: 313 21G<81 169.5> 650 20G<118 118>
VStem: 17 217<420 432 432 432>
LayerCount: 2
Fore
SplineSet
221 472.5 m 128,-1,1
 234 455 234 455 234 408 c 128,-1,2
 234 361 234 361 212 337 c 128,-1,3
 190 313 190 313 125.5 313 c 128,-1,4
 61 313 61 313 39 337 c 128,-1,5
 17 361 17 361 17 420 c 2,6,-1
 17 432 l 1,7,8
 19.4444444444 468.666666667 19.4444444444 468.666666667 27.2222222222 487.333333333 c 128,-1,9
 35 506 35 506 41.5 518 c 128,-1,10
 48 530 48 530 50 534 c 2,11,-1
 118 670 l 1,12,-1
 207 641 l 1,13,-1
 174 496 l 1,14,0
 208 490 208 490 221 472.5 c 128,-1,1
EndSplineSet
EndChar

StartChar: quoteright
Encoding: 8217 8217 186
Width: 275
Flags: HMW
HStem: 301 21G<157 157> 638 20G<105.5 194>
VStem: 41 217<539 542 542 551 539 589>
LayerCount: 2
Fore
SplineSet
258 551 m 2,0,-1
 258 539 l 1,1,2
 255.071038251 495.06557377 255.071038251 495.06557377 233 452.5 c 0,3,4
 226 439 226 439 225 437 c 2,5,-1
 157 301 l 1,6,-1
 68 330 l 1,7,-1
 101 474 l 1,8,9
 66 480 66 480 53.5 497.5 c 128,-1,10
 41 515 41 515 41 562.5 c 128,-1,11
 41 610 41 610 63 634 c 128,-1,12
 85 658 85 658 149.5 658 c 128,-1,13
 214 658 214 658 236 634 c 128,-1,14
 258 610 258 610 258 551 c 2,0,-1
EndSplineSet
EndChar

StartChar: quotesinglbase
Encoding: 8218 8218 187
Width: 275
Flags: HMW
HStem: -149 21G<157 157> 188 20G<105.5 194>
VStem: 41 217<89 92 92 101 89 139>
LayerCount: 2
Fore
SplineSet
258 101 m 2,0,-1
 258 89 l 1,1,2
 255.071038251 45.0655737705 255.071038251 45.0655737705 233 2.5 c 0,3,4
 226 -11 226 -11 225 -13 c 2,5,-1
 157 -149 l 1,6,-1
 68 -120 l 1,7,-1
 101 24 l 1,8,9
 66 30 66 30 53.5 47.5 c 128,-1,10
 41 65 41 65 41 112.5 c 128,-1,11
 41 160 41 160 63 184 c 128,-1,12
 85 208 85 208 149.5 208 c 128,-1,13
 214 208 214 208 236 184 c 128,-1,14
 258 160 258 160 258 101 c 2,0,-1
EndSplineSet
EndChar

StartChar: quotesingle
Encoding: 39 39 188
Width: 250
Flags: HMW
HStem: 300 21G<75 175 75 75> 630 20G<62 188 188 202.5>
LayerCount: 2
Fore
SplineSet
175 300 m 1,0,-1
 75 300 l 1,1,2
 25 561 25 561 25 565 c 2,3,-1
 25 623 l 2,4,5
 25 650 25 650 62 650 c 2,6,-1
 188 650 l 2,7,8
 225 650 225 650 225 623 c 2,9,-1
 225 565 l 2,10,11
 225 561 225 561 175 300 c 1,0,-1
EndSplineSet
EndChar

StartChar: r
Encoding: 114 114 189
Width: 375
Flags: HMW
HStem: 0 21G<50 250 50 50> 480 20G<50 150 150 150> 495 20G<353 353>
VStem: 50 200<0 286 0 500>
LayerCount: 2
Fore
SplineSet
50 500 m 1,0,-1
 150 500 l 1,1,-1
 205 444 l 1,2,3
 264 498 264 498 353 515 c 1,4,-1
 365 326 l 1,5,6
 341 325 341 325 302.5 314 c 128,-1,7
 264 303 264 303 250 286 c 1,8,-1
 250 0 l 1,9,-1
 50 0 l 1,10,-1
 50 500 l 1,0,-1
EndSplineSet
EndChar

StartChar: registered
Encoding: 174 174 190
Width: 563
Flags: HMW
HStem: 179 21G<191.5 372> 616 20G<209.5 354> 662 20G<191.5 372>
VStem: 30 232<348 368 281 448 448 498 281 513.5> 160 102<281 368 281 448 448 498>
LayerCount: 2
Fore
SplineSet
30 431 m 128,-1,1
 30 558 30 558 89.5 620 c 128,-1,2
 149 682 149 682 281.5 682 c 0,3,4
 414 682 414 682 473.5 620 c 128,-1,5
 533 558 533 558 533 431 c 128,-1,6
 533 304 533 304 473.5 241.5 c 128,-1,7
 414 179 414 179 281.5 179 c 0,8,9
 149 179 149 179 89.5 241.5 c 128,-1,0
 30 304 30 304 30 431 c 128,-1,1
80 431 m 128,-1,11
 80 316 80 316 126 270.5 c 128,-1,12
 172 225 172 225 282 225 c 128,-1,13
 392 225 392 225 437.5 270.5 c 128,-1,14
 483 316 483 316 483 431 c 128,-1,15
 483 546 483 546 437.5 591 c 128,-1,16
 392 636 392 636 282 636 c 128,-1,17
 172 636 172 636 126 591 c 128,-1,10
 80 546 80 546 80 431 c 128,-1,11
425 281 m 1,18,-1
 313 281 l 1,19,-1
 274 368 l 1,20,-1
 262 368 l 1,21,-1
 262 281 l 1,22,-1
 160 281 l 1,23,-1
 160 581 l 1,24,-1
 311 581 l 2,25,26
 416 581 416 581 416 475 c 0,27,28
 416 405 416 405 373 380 c 1,29,-1
 425 281 l 1,18,-1
262 498 m 1,30,-1
 262 448 l 1,31,-1
 279 448 l 2,32,33
 307 448 307 448 307 463 c 2,34,-1
 307 483 l 2,35,36
 307 498 307 498 279 498 c 2,37,-1
 262 498 l 1,30,-1
EndSplineSet
EndChar

StartChar: ring
Encoding: 730 730 191
Width: 265
Flags: HMW
HStem: 527 21G<91 174.5> 689 21G<121.5 135 135 174> 738 20G<91 174.5>
VStem: 17 231<604.5 681>
LayerCount: 2
Fore
SplineSet
44 555.5 m 128,-1,1
 17 584 17 584 17 642.5 c 128,-1,2
 17 701 17 701 44 729.5 c 128,-1,3
 71 758 71 758 132.5 758 c 128,-1,4
 194 758 194 758 221 729.5 c 128,-1,5
 248 701 248 701 248 642.5 c 128,-1,6
 248 584 248 584 221 555.5 c 128,-1,7
 194 527 194 527 132.5 527 c 128,-1,0
 71 527 71 527 44 555.5 c 128,-1,1
90 664 m 2,8,-1
 90 596 l 1,9,-1
 132 596 l 2,10,11
 147 596 147 596 154.5 597 c 0,12,13
 174 599.6 174 599.6 174 622 c 2,14,-1
 174 689 l 1,15,-1
 135 689 l 2,16,17
 105.166666667 689 105.166666667 689 97.5833333333 682 c 128,-1,18
 90 675 90 675 90 664 c 2,8,-1
EndSplineSet
EndChar

StartChar: s
Encoding: 115 115 192
Width: 526
Flags: HMW
HStem: -15 145<212 245.5 200.5 314> 166 168<233 314> 370 145<289.5 297.5 199 326.5>
CounterMasks: 1 e0
LayerCount: 2
Fore
SplineSet
273.75 515 m 128,-1,1
 386 515 386 515 480 484 c 1,2,-1
 457 348 l 1,3,4
 379 370 379 370 301 370 c 0,5,6
 277 370 277 370 233 366 c 1,7,-1
 233 334 l 1,8,9
 395 334 395 334 453 286 c 0,10,11
 482 262 482 262 494 233.5 c 128,-1,12
 506 205 506 205 506 164.5 c 128,-1,13
 506 124 506 124 496.5 92 c 128,-1,14
 487 60 487 60 467.5 41 c 128,-1,15
 448 22 448 22 427 10 c 128,-1,16
 406 -2 406 -2 372.5 -7 c 0,17,18
 318.9 -15 318.9 -15 249 -15 c 0,19,20
 125 -15 125 -15 25 14 c 1,21,-1
 50 156 l 1,22,23
 134 130 134 130 232 130 c 0,24,25
 277 130 277 130 314 134 c 1,26,-1
 314 166 l 1,27,28
 154 166 154 166 93.5 208 c 128,-1,29
 33 250 33 250 33 347.454545455 c 128,-1,30
 33 444.909090909 33 444.909090909 97.25 479.954545455 c 128,-1,0
 161.5 515 161.5 515 273.75 515 c 128,-1,1
EndSplineSet
EndChar

StartChar: section
Encoding: 167 167 194
Width: 588
Flags: HMW
HStem: -121 152<241 340 72 344> 65 151<280 340> 277 155<265 326 246 376> 466 152<265 336.5 236 492 265 265>
LayerCount: 2
Fore
SplineSet
280 216 m 2,0,-1
 360 216 l 1,1,-1
 360 242 l 2,2,3
 360 265 360 265 354.5 271 c 128,-1,4
 349 277 349 277 326 277 c 2,5,-1
 246 277 l 1,6,-1
 246 252 l 2,7,8
 246 229 246 229 251.5 222.5 c 128,-1,9
 257 216 257 216 280 216 c 2,0,-1
50 -91 m 1,10,-1
 72 31 l 1,11,-1
 340 31 l 1,12,-1
 340 65 l 1,13,14
 131.514285714 65 131.514285714 65 82.5 138 c 0,15,16
 59 173 59 173 59 236 c 128,-1,17
 59 299 59 299 82 342 c 1,18,19
 59 375 59 375 59 430 c 128,-1,20
 59 485 59 485 72.5 520.5 c 128,-1,21
 86 556 86 556 105.5 575 c 128,-1,22
 125 594 125 594 160.5 604 c 128,-1,23
 196 614 196 614 225 616 c 128,-1,24
 254 618 254 618 302 618 c 0,25,26
 418 618 418 618 514 593 c 1,27,-1
 492 466 l 1,28,-1
 265 466 l 1,29,-1
 265 432 l 1,30,31
 427 432 427 432 485 386 c 0,32,33
 514 363 514 363 526 334.5 c 128,-1,34
 538 306 538 306 538 252 c 128,-1,35
 538 198 538 198 513 155 c 1,36,37
 538 119 538 119 538 72.5 c 128,-1,38
 538 26 538 26 530 -3 c 128,-1,39
 522 -32 522 -32 510 -51.5 c 128,-1,40
 498 -71 498 -71 476.5 -84.5 c 128,-1,41
 455 -98 455 -98 436 -105 c 128,-1,42
 417 -112 417 -112 386.5 -115.5 c 0,43,44
 338.571428571 -121 338.571428571 -121 278 -121 c 0,45,46
 153 -121 153 -121 50 -91 c 1,10,-1
EndSplineSet
EndChar

StartChar: semicolon
Encoding: 59 59 195
Width: 277
Flags: HMW
HStem: -151 21G<146 146> 206 88<94.5 183> 486 20G<94.5 183>
VStem: 30 217<87 89 89 90 90 99 87 137 361 437>
LayerCount: 2
Fore
SplineSet
247 99 m 2,0,-1
 247 87 l 1,1,2
 244.071038251 43.0655737705 244.071038251 43.0655737705 222 0.5 c 0,3,4
 215 -13 215 -13 214 -15 c 2,5,-1
 146 -151 l 1,6,-1
 57 -122 l 1,7,-1
 90 22 l 1,8,9
 55 28 55 28 42.5 45.5 c 128,-1,10
 30 63 30 63 30 110.5 c 128,-1,11
 30 158 30 158 52 182 c 128,-1,12
 74 206 74 206 138.5 206 c 128,-1,13
 203 206 203 206 225 182 c 128,-1,14
 247 158 247 158 247 99 c 2,0,-1
30 399 m 128,-1,16
 30 458 30 458 52 482 c 128,-1,17
 74 506 74 506 138.5 506 c 128,-1,18
 203 506 203 506 225 482 c 128,-1,19
 247 458 247 458 247 399 c 128,-1,20
 247 340 247 340 225 317 c 128,-1,21
 203 294 203 294 138.5 294 c 128,-1,22
 74 294 74 294 52 317 c 128,-1,15
 30 340 30 340 30 399 c 128,-1,16
EndSplineSet
EndChar

StartChar: seven
Encoding: 55 55 196
Width: 600
Flags: HMW
HStem: 0 21G<135 361 135 135> 605 20G<59 554 554 554>
LayerCount: 2
Fore
SplineSet
554 500 m 1,0,-1
 361 0 l 1,1,-1
 135 0 l 1,2,-1
 314 451 l 1,3,-1
 74 448 l 1,4,-1
 59 625 l 1,5,-1
 554 625 l 1,6,-1
 554 500 l 1,0,-1
EndSplineSet
EndChar

StartChar: six
Encoding: 54 54 197
Width: 600
Flags: HMW
HStem: -15 151<250 291 291 311 250 372.5> 257 158<289 300 300 309 309 350> 475 165<344.5 374.5 219.5 380.5>
VStem: 35 215<204 215 136 415 415 420.5> 350 215<178 257 257 257>
LayerCount: 2
Fore
SplineSet
350 178 m 2,0,-1
 350 257 l 1,1,-1
 309 257 l 2,2,3
 276 257 276 257 263 249.5 c 128,-1,4
 250 242 250 242 250 215 c 2,5,-1
 250 136 l 1,6,-1
 291 136 l 2,7,8
 324 136 324 136 337 143.5 c 128,-1,9
 350 151 350 151 350 178 c 2,0,-1
565 200 m 128,-1,11
 565 134 565 134 545 89.5 c 128,-1,12
 525 45 525 45 486 23 c 128,-1,13
 447 1 447 1 403.5 -7 c 128,-1,14
 360 -15 360 -15 300 -15 c 0,15,16
 149 -15 149 -15 92 63 c 128,-1,17
 35 141 35 141 35 312 c 0,18,19
 35 399 35 399 48 456 c 128,-1,20
 61 513 61 513 95 556.5 c 0,21,22
 160.264367816 640 160.264367816 640 349 640 c 0,23,24
 387 640 387 640 449.5 631.5 c 128,-1,25
 512 623 512 623 542 614 c 1,26,-1
 512 461 l 1,27,28
 431 475 431 475 357.5 475 c 128,-1,29
 284 475 284 475 250 466 c 1,30,-1
 250 415 l 1,31,-1
 300 415 l 2,32,33
 360 415 360 415 403.5 407 c 128,-1,34
 447 399 447 399 486 377 c 128,-1,35
 525 355 525 355 545 310.5 c 128,-1,10
 565 266 565 266 565 200 c 128,-1,11
EndSplineSet
EndChar

StartChar: slash
Encoding: 47 47 198
Width: 503
Flags: HMW
HStem: -40 21G<0 71 0 0> 645 20G<432 503 503 503>
LayerCount: 2
Fore
SplineSet
503 665 m 1,0,-1
 114 -15 l 2,1,2
 109 -25 109 -25 105 -29 c 0,3,4
 94 -40 94 -40 71 -40 c 2,5,-1
 0 -40 l 1,6,-1
 389 640 l 2,7,8
 394 650 394 650 398 654 c 0,9,10
 409 665 409 665 432 665 c 2,11,-1
 503 665 l 1,0,-1
EndSplineSet
EndChar

StartChar: sterling
Encoding: 163 163 200
Width: 586
Flags: HMW
HStem: 0 160<299 521 299 546> 262 107<40 104 40 116 318 460> 477 164<378 380.5 276 397 276 495>
LayerCount: 2
Fore
SplineSet
460 262 m 1,0,-1
 308 262 l 1,1,-1
 299 160 l 1,2,-1
 521 160 l 1,3,-1
 546 0 l 1,4,-1
 40 0 l 1,5,-1
 40 100 l 1,6,-1
 90 135 l 1,7,-1
 104 262 l 1,8,-1
 40 262 l 1,9,-1
 40 369 l 1,10,-1
 116 369 l 1,11,-1
 124 443 l 2,12,13
 134 540 134 540 189.5 590.5 c 128,-1,14
 245 641 245 641 342.5 641 c 0,15,16
 440 641 440 641 525 622 c 1,17,-1
 495 477 l 1,18,-1
 397 477 l 2,19,20
 363 477 363 477 345 468 c 128,-1,21
 327 459 327 459 324 428 c 2,22,-1
 318 369 l 1,23,-1
 470 369 l 1,24,-1
 460 262 l 1,0,-1
EndSplineSet
EndChar

StartChar: t
Encoding: 116 116 201
Width: 364
Flags: HMW
HStem: -11 21G<250 320> 371 129<20 70 20 70 270 339> 610 20G<270 270>
VStem: 70 200<143 371 143 371 143 371 500 580 580 580>
LayerCount: 2
Fore
SplineSet
20 371 m 1,0,-1
 20 500 l 1,1,-1
 70 500 l 1,2,-1
 70 580 l 1,3,-1
 270 630 l 1,4,-1
 270 500 l 1,5,-1
 339 500 l 1,6,-1
 339 371 l 1,7,-1
 270 371 l 1,8,-1
 270 143 l 1,9,10
 296 138 296 138 329 136 c 1,11,-1
 320 -11 l 1,12,13
 183.285714286 -11 183.285714286 -11 141.5 4 c 0,14,15
 91.3288135593 22.0101694915 91.3288135593 22.0101694915 78 52 c 0,16,17
 70 70 70 70 70 94 c 2,18,-1
 70 371 l 1,19,-1
 20 371 l 1,0,-1
EndSplineSet
EndChar

StartChar: thorn
Encoding: 254 254 202
Width: 420
Flags: HMW
HStem: -165 21G<-47 -47> -15 146<202 204 153 292> 369 146<203 338.5 232.5 253> 645 20G<153 153>
VStem: -47 200<-150 -13 -150 131 131 332 499 650 650 650> 253 215<173 312.5 152.5 369 152.5 369>
LayerCount: 2
Fore
SplineSet
-47 650 m 1,0,-1
 153 665 l 1,1,-1
 153 499 l 1,2,3
 191 515 191 515 252.5 515 c 128,-1,4
 314 515 314 515 358 492 c 128,-1,5
 402 469 402 469 425 429 c 0,6,7
 468 354.217391304 468 354.217391304 468 250 c 0,8,9
 468 109 468 109 403 47 c 128,-1,10
 338 -15 338 -15 212 -15 c 0,11,12
 185 -15 185 -15 153 -13 c 1,13,-1
 153 -150 l 1,14,-1
 -47 -165 l 1,15,-1
 -47 650 l 1,0,-1
153 332 m 1,16,-1
 153 131 l 1,17,-1
 184 131 l 2,18,19
 220 131 220 131 236.5 138.5 c 128,-1,20
 253 146 253 146 253 173 c 2,21,-1
 253 369 l 1,22,-1
 222 369 l 2,23,24
 200 369 200 369 187 367 c 128,-1,25
 174 365 174 365 164 356.5 c 128,-1,26
 154 348 154 348 153 332 c 1,16,-1
EndSplineSet
EndChar

StartChar: three
Encoding: 51 51 203
Width: 600
Flags: HMW
HStem: -15 168<236.5 271.5 223.5 350.5> 475 165<253.5 274>
VStem: 349 199<446 470 470 470> 349 215<159 217 91.5 223 91.5 223 91.5 470>
LayerCount: 2
Fore
SplineSet
349 405 m 1,0,-1
 349 470 l 1,1,2
 319 475 319 475 252 475 c 128,-1,3
 185 475 185 475 85 454 c 1,4,-1
 59 602 l 1,5,6
 181 640 181 640 295 640 c 0,7,8
 392.578947368 640 392.578947368 640 436.789473684 628 c 128,-1,9
 481 616 481 616 501.5 599 c 0,10,11
 548 560.43902439 548 560.43902439 548 481 c 0,12,13
 548 381 548 381 465 337 c 1,14,-1
 465 332 l 1,15,16
 564 291 564 291 564 183 c 0,17,18
 564 130 564 130 547.5 92.5 c 128,-1,19
 531 55 531 55 506 34.5 c 128,-1,20
 481 14 481 14 440.5 2.5 c 0,21,22
 378.869565217 -15 378.869565217 -15 268.434782609 -15 c 128,-1,23
 158 -15 158 -15 47 11 c 1,24,-1
 75 176 l 1,25,26
 170 153 170 153 236.25 153 c 128,-1,27
 302.5 153 302.5 153 349 159 c 1,28,-1
 349 223 l 1,29,-1
 177 240 l 1,30,-1
 177 385 l 1,31,-1
 349 405 l 1,0,-1
EndSplineSet
EndChar

StartChar: threequarters
Encoding: 190 190 204
Width: 971
Flags: HMW
HStem: -40 21G<307 358 307 307> 0 21G<762 762 762 896> 60 112<709 762 709 762 896 935> 512 113<183.5 205> 645 20G<619 670 670 670>
VStem: 132 246<286 466 286 466> 762 134<0 60 0 60 172 295 295 295>
LayerCount: 2
Fore
SplineSet
762 0 m 1,0,-1
 762 60 l 1,1,-1
 578 60 l 1,2,-1
 578 144 l 1,3,-1
 672 389 l 1,4,-1
 896 389 l 1,5,-1
 896 172 l 1,6,-1
 935 172 l 1,7,-1
 935 60 l 1,8,-1
 896 60 l 1,9,-1
 896 0 l 1,10,-1
 762 0 l 1,0,-1
762 172 m 1,11,-1
 762 295 l 1,12,-1
 754 295 l 1,13,-1
 709 172 l 1,14,-1
 762 172 l 1,11,-1
235 478 m 1,15,-1
 235 510 l 1,16,17
 207 512 207 512 198 512 c 0,18,19
 139 512 139 512 78 498 c 1,20,-1
 59 608 l 1,21,22
 128 625 128 625 188.5 625 c 128,-1,23
 249 625 249 625 274 621.5 c 128,-1,24
 299 618 299 618 322.5 608 c 0,25,26
 369 588.212765957 369 588.212765957 369 526.106382979 c 128,-1,27
 369 464 369 464 327 434 c 1,28,29
 378 408 378 408 378 344 c 0,30,31
 378 250 378 250 301.5 229 c 0,32,33
 261.428571429 218 261.428571429 218 191.714285714 218 c 128,-1,34
 122 218 122 218 53 235 c 1,35,-1
 72 349 l 1,36,37
 139 333 139 333 178.5 333 c 128,-1,38
 218 333 218 333 235 335 c 1,39,-1
 235 366 l 1,40,-1
 132 377 l 1,41,-1
 132 466 l 1,42,-1
 235 478 l 1,15,-1
670 665 m 1,43,-1
 401 -15 l 2,44,45
 396 -25 396 -25 392 -29 c 0,46,47
 381 -40 381 -40 358 -40 c 2,48,-1
 307 -40 l 1,49,-1
 576 640 l 2,50,51
 581 650 581 650 585 654 c 0,52,53
 596 665 596 665 619 665 c 2,54,-1
 670 665 l 1,43,-1
EndSplineSet
EndChar

StartChar: threesuperior
Encoding: 179 179 205
Width: 400
Flags: HMW
HStem: 334 21G<157.5 229.5> 628 113<167.5 189>
VStem: 116 246<402 582 402 582>
LayerCount: 2
Fore
SplineSet
219 594 m 1,0,-1
 219 626 l 1,1,2
 191 628 191 628 182 628 c 0,3,4
 123 628 123 628 62 614 c 1,5,-1
 43 724 l 1,6,7
 112 741 112 741 172.5 741 c 128,-1,8
 233 741 233 741 258 737.5 c 128,-1,9
 283 734 283 734 306.5 724 c 0,10,11
 353 704.212765957 353 704.212765957 353 642.106382979 c 128,-1,12
 353 580 353 580 311 550 c 1,13,14
 362 524 362 524 362 460 c 0,15,16
 362 366 362 366 285.5 345 c 0,17,18
 245.428571429 334 245.428571429 334 175.714285714 334 c 128,-1,19
 106 334 106 334 37 351 c 1,20,-1
 56 465 l 1,21,22
 123 449 123 449 162.5 449 c 128,-1,23
 202 449 202 449 219 451 c 1,24,-1
 219 482 l 1,25,-1
 116 493 l 1,26,-1
 116 582 l 1,27,-1
 219 594 l 1,0,-1
EndSplineSet
EndChar

StartChar: tilde
Encoding: 732 732 206
Width: 458
Flags: HMW
HStem: 543 21G<239 272.5> 701 20G<185.5 219>
LayerCount: 2
Fore
SplineSet
372 716 m 1,0,-1
 422 635 l 1,1,2
 302.874948527 555.270634841 302.874948527 555.270634841 288.304842248 549.13531742 c 0,3,4
 273.734735969 543 273.734735969 543 259.867367984 543 c 0,5,6
 246 543 246 543 237.5 545 c 128,-1,7
 229 547 229 547 219 552.5 c 128,-1,8
 209 558 209 558 203.5 562 c 128,-1,9
 198 566 198 566 185.5 575 c 128,-1,10
 173 584 173 584 168 588 c 1,11,-1
 86 548 l 1,12,-1
 36 629 l 1,13,14
 155.125051473 708.729365159 155.125051473 708.729365159 169.695157752 714.86468258 c 0,15,16
 184.265264031 721 184.265264031 721 198.132632016 721 c 0,17,18
 212 721 212 721 220.5 719 c 128,-1,19
 229 717 229 717 239 711.5 c 128,-1,20
 249 706 249 706 254.5 702 c 128,-1,21
 260 698 260 698 272.5 689 c 128,-1,22
 285 680 285 680 290 676 c 1,23,-1
 372 716 l 1,0,-1
EndSplineSet
EndChar

StartChar: trademark
Encoding: 8482 8482 207
Width: 807
Flags: HMW
HStem: 343 21G<100 240 100 100 323 461 323 323 510 510 510 605 654 654 654 792> 617 115<15 100 15 326 240 326 240 240>
VStem: 100 140<343 617 343 617> 335 129 650 129
LayerCount: 2
Fore
SplineSet
461 343 m 1,0,-1
 323 343 l 1,1,-1
 348 732 l 1,2,-1
 523 732 l 1,3,-1
 554 584 l 1,4,-1
 561 584 l 1,5,-1
 592 732 l 1,6,-1
 767 732 l 1,7,-1
 792 343 l 1,8,-1
 654 343 l 1,9,-1
 646 491 l 1,10,-1
 640 491 l 1,11,-1
 605 343 l 1,12,-1
 510 343 l 1,13,-1
 474 491 l 1,14,-1
 468 491 l 1,15,-1
 461 343 l 1,0,-1
326 617 m 1,16,-1
 240 617 l 1,17,-1
 240 343 l 1,18,-1
 100 343 l 1,19,-1
 100 617 l 1,20,-1
 15 617 l 1,21,-1
 15 732 l 1,22,-1
 326 732 l 1,23,-1
 326 617 l 1,16,-1
EndSplineSet
EndChar

StartChar: two
Encoding: 50 50 208
Width: 600
Flags: HMW
HStem: 0 160<266 548 266 548> 475 165<258.5 274>
LayerCount: 2
Fore
SplineSet
75 453 m 1,0,-1
 49 602 l 1,1,2
 175 640 175 640 300 640 c 0,3,4
 350 640 350 640 383.5 637 c 128,-1,5
 417 634 417 634 453 622 c 128,-1,6
 489 610 489 610 510 589 c 0,7,8
 558 541 558 541 558 442 c 128,-1,9
 558 343 558 343 502 296 c 128,-1,10
 446 249 446 249 266 188 c 1,11,-1
 266 160 l 1,12,-1
 548 160 l 1,13,-1
 548 0 l 1,14,-1
 35 0 l 1,15,-1
 35 125 l 2,16,17
 35 181.411764706 35 181.411764706 56.5 232 c 0,18,19
 68.6193548387 260.516129032 68.6193548387 260.516129032 119 302.5 c 0,20,21
 145.538461538 324.615384615 145.538461538 324.615384615 191.269230769 345.807692308 c 128,-1,22
 237 367 237 367 277.5 385.5 c 128,-1,23
 318 404 318 404 343 416 c 1,24,-1
 343 470 l 1,25,26
 298 475 298 475 260 475 c 0,27,28
 168 475 168 475 75 453 c 1,0,-1
EndSplineSet
EndChar

StartChar: twosuperior
Encoding: 178 178 209
Width: 400
Flags: HMW
HStem: 343 110<189 358 189 358> 608 20G<160 184.5> 721 20G<176 247.5>
LayerCount: 2
Fore
SplineSet
61 613 m 1,0,-1
 42 724 l 1,1,2
 111 741 111 741 176.5 741 c 128,-1,3
 242 741 242 741 267 737 c 128,-1,4
 292 733 292 733 316.5 721 c 0,5,6
 364 697.734693878 364 697.734693878 364 613 c 0,7,8
 364 554 364 554 333 530 c 128,-1,9
 302 506 302 506 189 468 c 1,10,-1
 189 453 l 1,11,-1
 358 453 l 1,12,-1
 358 343 l 1,13,-1
 36 343 l 1,14,-1
 36 425 l 2,15,16
 36 481 36 481 59.5 504.5 c 0,17,18
 70 515 70 515 75.5 521 c 128,-1,19
 81 527 81 527 97.5 536 c 128,-1,20
 114 545 114 545 121 548.5 c 128,-1,21
 128 552 128 552 150.5 562 c 2,22,-1
 221 594 l 1,23,-1
 221 626 l 1,24,25
 199 628 199 628 164 628 c 128,-1,26
 129 628 129 628 61 613 c 1,0,-1
EndSplineSet
EndChar

StartChar: u
Encoding: 117 117 210
Width: 590
Flags: HMW
HStem: -15 146<240 247> 0 21G<440 540 440 440> 480 20G<40 240 240 240 340 540 540 540>
VStem: 40 200<150 500 131 500> 340 200<173 500 0 500>
LayerCount: 2
Fore
SplineSet
240 500 m 1,0,-1
 240 131 l 1,1,-1
 271 131 l 2,2,3
 307 131 307 131 323.5 138.5 c 128,-1,4
 340 146 340 146 340 173 c 2,5,-1
 340 500 l 1,6,-1
 540 500 l 1,7,-1
 540 0 l 1,8,-1
 440 0 l 1,9,-1
 382 57 l 1,10,11
 322 -15 322 -15 211 -15 c 0,12,13
 122 -15 122 -15 81 23 c 128,-1,14
 40 61 40 61 40 150 c 2,15,-1
 40 500 l 1,16,-1
 240 500 l 1,0,-1
EndSplineSet
EndChar

StartChar: ucircumflex
Encoding: 251 251 212
Width: 590
Flags: HMW
HStem: -15 146<240 247> 0 21G<440 540 440 440> 480 20G<40 240 240 240 340 540 540 540> 537 21G<201 201 387 387> 720 20G<270 318 318 321.5>
VStem: 40 200<150 500 131 500> 340 200<173 500 0 500>
LayerCount: 2
Fore
SplineSet
240 500 m 1,0,-1
 240 131 l 1,1,-1
 271 131 l 2,2,3
 307 131 307 131 323.5 138.5 c 128,-1,4
 340 146 340 146 340 173 c 2,5,-1
 340 500 l 1,6,-1
 540 500 l 1,7,-1
 540 0 l 1,8,-1
 440 0 l 1,9,-1
 382 57 l 1,10,11
 322 -15 322 -15 211 -15 c 0,12,13
 122 -15 122 -15 81 23 c 128,-1,14
 40 61 40 61 40 150 c 2,15,-1
 40 500 l 1,16,-1
 240 500 l 1,0,-1
270 740 m 2,17,-1
 318 740 l 2,18,19
 325 740 325 740 334 731 c 1,20,-1
 447 586 l 1,21,-1
 387 537 l 1,22,-1
 294 600 l 1,23,-1
 201 537 l 1,24,-1
 141 586 l 1,25,-1
 254 731 l 1,26,27
 263 740 263 740 270 740 c 2,17,-1
EndSplineSet
EndChar

StartChar: ugrave
Encoding: 249 249 214
Width: 590
Flags: HMW
HStem: -15 146<240 247> 0 21G<440 540 440 440> 480 20G<40 240 240 240 340 540 540 540> 539 21G<368 368> 719 20G<205.5 211>
VStem: 40 200<150 500 131 500> 340 200<173 500 0 500>
LayerCount: 2
Fore
SplineSet
240 500 m 1,0,-1
 240 131 l 1,1,-1
 271 131 l 2,2,3
 307 131 307 131 323.5 138.5 c 128,-1,4
 340 146 340 146 340 173 c 2,5,-1
 340 500 l 1,6,-1
 540 500 l 1,7,-1
 540 0 l 1,8,-1
 440 0 l 1,9,-1
 382 57 l 1,10,11
 322 -15 322 -15 211 -15 c 0,12,13
 122 -15 122 -15 81 23 c 128,-1,14
 40 61 40 61 40 150 c 2,15,-1
 40 500 l 1,16,-1
 240 500 l 1,0,-1
368 539 m 1,17,-1
 194 574 l 2,18,19
 178 577 178 577 168 586 c 2,20,-1
 123 625 l 1,21,22
 119 631 119 631 119 637.25 c 0,23,24
 119 643.5 119 643.5 128 654 c 2,25,-1
 191 728 l 2,26,27
 200 739 200 739 207 739 c 0,28,29
 214 739 214 739 220 735 c 2,30,-1
 409 596 l 1,31,-1
 368 539 l 1,17,-1
EndSplineSet
EndChar

StartChar: underscore
Encoding: 95 95 215
Width: 595
Flags: HMW
HStem: -135 150<25 570 94 501>
LayerCount: 2
Fore
SplineSet
25 -135 m 1,0,-1
 25 -27 l 2,1,2
 25 0 25 0 41.5 7.5 c 128,-1,3
 58 15 58 15 94 15 c 2,4,-1
 570 15 l 1,5,-1
 570 -93 l 2,6,7
 570 -120 570 -120 553.5 -127.5 c 128,-1,8
 537 -135 537 -135 501 -135 c 2,9,-1
 25 -135 l 1,0,-1
EndSplineSet
EndChar

StartChar: v
Encoding: 118 118 216
Width: 520
Flags: HMW
HStem: 0 21G<125 125 125 395> 480 20G<0 200 200 200 320 520 520 520>
LayerCount: 2
Fore
SplineSet
125 0 m 1,0,-1
 0 500 l 1,1,-1
 200 500 l 1,2,-1
 255 175 l 1,3,-1
 265 175 l 1,4,-1
 320 500 l 1,5,-1
 520 500 l 1,6,-1
 395 0 l 1,7,-1
 125 0 l 1,0,-1
EndSplineSet
EndChar

StartChar: w
Encoding: 119 119 217
Width: 800
Flags: HMW
HStem: 0 21G<114 114 114 350 440 440 440 686> 480 20G<14 210 210 210 325 475 475 475 590 786 786 786>
LayerCount: 2
Fore
SplineSet
114 0 m 1,0,-1
 14 500 l 1,1,-1
 210 500 l 1,2,-1
 251 203 l 1,3,-1
 262 203 l 1,4,-1
 325 500 l 1,5,-1
 475 500 l 1,6,-1
 531 203 l 1,7,-1
 542 203 l 1,8,-1
 590 500 l 1,9,-1
 786 500 l 1,10,-1
 686 0 l 1,11,-1
 440 0 l 1,12,-1
 401 215 l 1,13,-1
 393 215 l 1,14,-1
 350 0 l 1,15,-1
 114 0 l 1,0,-1
EndSplineSet
EndChar

StartChar: x
Encoding: 120 120 218
Width: 540
Flags: HMW
HStem: 0 21G<0 208 0 0 332 540 332 332> 480 20G<5 213 213 213 327 535 535 535>
LayerCount: 2
Fore
SplineSet
213 500 m 1,0,-1
 269 376 l 1,1,-1
 275 376 l 1,2,-1
 327 500 l 1,3,-1
 535 500 l 1,4,-1
 410 244 l 1,5,-1
 540 0 l 1,6,-1
 332 0 l 1,7,-1
 270 135 l 1,8,-1
 265 135 l 1,9,-1
 208 0 l 1,10,-1
 0 0 l 1,11,-1
 130 258 l 1,12,-1
 5 500 l 1,13,-1
 213 500 l 1,0,-1
EndSplineSet
EndChar

StartChar: y
Encoding: 121 121 219
Width: 520
Flags: HMW
HStem: -165 21G<10 204 10 10> 480 20G<0 200 200 200 320 520 520 520>
LayerCount: 2
Fore
SplineSet
112 52 m 1,0,-1
 0 500 l 1,1,-1
 200 500 l 1,2,-1
 255 175 l 1,3,-1
 265 175 l 1,4,-1
 320 500 l 1,5,-1
 520 500 l 1,6,-1
 395 0 l 1,7,8
 367 -98 367 -98 325 -131.5 c 128,-1,9
 283 -165 283 -165 204 -165 c 2,10,-1
 10 -165 l 1,11,-1
 10 -35 l 1,12,-1
 104 -17 l 1,13,14
 175.740932642 -1.40414507772 175.740932642 -1.40414507772 198 19 c 0,15,16
 210 30 210 30 218 46 c 1,17,-1
 217 52 l 1,18,-1
 112 52 l 1,0,-1
EndSplineSet
EndChar

StartChar: ydieresis
Encoding: 255 255 221
Width: 520
Flags: HMW
HStem: -165 21G<10 204 10 10> 480 20G<0 200 200 200 320 520 520 520> 552 156<118.5 183 337.5 402>
VStem: 71 159<601 657> 290 159<601 657>
LayerCount: 2
Fore
SplineSet
112 52 m 1,0,-1
 0 500 l 1,1,-1
 200 500 l 1,2,-1
 255 175 l 1,3,-1
 265 175 l 1,4,-1
 320 500 l 1,5,-1
 520 500 l 1,6,-1
 395 0 l 1,7,8
 367 -98 367 -98 325 -131.5 c 128,-1,9
 283 -165 283 -165 204 -165 c 2,10,-1
 10 -165 l 1,11,-1
 10 -35 l 1,12,-1
 104 -17 l 1,13,14
 175.740932642 -1.40414507772 175.740932642 -1.40414507772 198 19 c 0,15,16
 210 30 210 30 218 46 c 1,17,-1
 217 52 l 1,18,-1
 112 52 l 1,0,-1
87.5 569 m 128,-1,20
 71 586 71 586 71 629.5 c 128,-1,21
 71 673 71 673 87.5 690.5 c 128,-1,22
 104 708 104 708 150.5 708 c 128,-1,23
 197 708 197 708 213.5 690.5 c 128,-1,24
 230 673 230 673 230 629.5 c 128,-1,25
 230 586 230 586 214 569 c 128,-1,26
 198 552 198 552 151 552 c 128,-1,19
 104 552 104 552 87.5 569 c 128,-1,20
306.5 569 m 128,-1,28
 290 586 290 586 290 629.5 c 128,-1,29
 290 673 290 673 306.5 690.5 c 128,-1,30
 323 708 323 708 369.5 708 c 128,-1,31
 416 708 416 708 432.5 690.5 c 128,-1,32
 449 673 449 673 449 629.5 c 128,-1,33
 449 586 449 586 433 569 c 128,-1,34
 417 552 417 552 370 552 c 128,-1,27
 323 552 323 552 306.5 569 c 128,-1,28
EndSplineSet
EndChar

StartChar: yen
Encoding: 165 165 222
Width: 560
Flags: HMW
HStem: 0 21G<180 380 180 180> 105 107<40 164 40 180 40 164 395 520> 262 107<40 106 40 146 40 106 454 520> 605 20G<10 221 221 221 339 550 550 550>
VStem: 180 200<0 105 0 105>
LayerCount: 2
Fore
SplineSet
221 625 m 1,0,-1
 277 391 l 1,1,-1
 283 391 l 1,2,-1
 339 625 l 1,3,-1
 550 625 l 1,4,-1
 454 369 l 1,5,-1
 520 369 l 1,6,-1
 520 262 l 1,7,-1
 414 262 l 1,8,-1
 395 212 l 1,9,-1
 520 212 l 1,10,-1
 520 105 l 1,11,-1
 380 105 l 1,12,-1
 380 0 l 1,13,-1
 180 0 l 1,14,-1
 180 105 l 1,15,-1
 40 105 l 1,16,-1
 40 212 l 1,17,-1
 164 212 l 1,18,-1
 146 262 l 1,19,-1
 40 262 l 1,20,-1
 40 369 l 1,21,-1
 106 369 l 1,22,-1
 10 625 l 1,23,-1
 221 625 l 1,0,-1
EndSplineSet
EndChar

StartChar: z
Encoding: 122 122 223
Width: 530
Flags: HMW
HStem: 0 150<309 505 309 505> 350 150<60 218 60 60>
LayerCount: 2
Fore
SplineSet
25 100 m 1,0,-1
 221 344 l 1,1,-1
 218 350 l 1,2,-1
 60 350 l 1,3,-1
 45 500 l 1,4,-1
 499 500 l 1,5,-1
 499 400 l 1,6,-1
 306 156 l 1,7,-1
 309 150 l 1,8,-1
 505 150 l 1,9,-1
 505 0 l 1,10,-1
 25 0 l 1,11,-1
 25 100 l 1,0,-1
EndSplineSet
EndChar

StartChar: zero
Encoding: 48 48 225
Width: 600
Flags: HMW
HStem: -15 161<239 281 281 308 239 412> 479 161<288 315 315 362>
VStem: 33 206<204 420.5> 362 206<204 420.5 204 479 204 479>
LayerCount: 2
Fore
SplineSet
44 169 m 128,-1,1
 33 226 33 226 33 312.5 c 128,-1,2
 33 399 33 399 44 456 c 128,-1,3
 55 513 55 513 83.5 556.5 c 128,-1,4
 112 600 112 600 165.5 620 c 128,-1,5
 219 640 219 640 301 640 c 128,-1,6
 383 640 383 640 436 620 c 128,-1,7
 489 600 489 600 518 556.5 c 128,-1,8
 547 513 547 513 557.5 456 c 128,-1,9
 568 399 568 399 568 312 c 128,-1,10
 568 225 568 225 557.5 168.5 c 128,-1,11
 547 112 547 112 518 68.5 c 128,-1,12
 489 25 489 25 436 5 c 128,-1,13
 383 -15 383 -15 301 -15 c 128,-1,14
 219 -15 219 -15 165.5 5 c 128,-1,15
 112 25 112 25 83.5 68.5 c 128,-1,0
 55 112 55 112 44 169 c 128,-1,1
239 426 m 2,16,-1
 239 146 l 1,17,-1
 281 146 l 2,18,19
 326 146 326 146 344 155.5 c 128,-1,20
 362 165 362 165 362 199 c 2,21,-1
 362 479 l 1,22,-1
 315 479 l 2,23,24
 271 479 271 479 255 470 c 128,-1,25
 239 461 239 461 239 426 c 2,16,-1
EndSplineSet
EndChar

StartChar: lessequal
Encoding: 8804 8804 227
Width: 600
Flags: HMW
HStem: -15 120<107 493 107 493> 567 20G<432 432>
LayerCount: 2
Fore
SplineSet
432 587 m 1,0,-1
 499 453 l 1,1,-1
 274 364 l 1,2,-1
 274 359 l 1,3,-1
 499 271 l 1,4,-1
 432 137 l 1,5,-1
 107 282 l 1,6,-1
 107 442 l 1,7,-1
 432 587 l 1,0,-1
107 -15 m 1,8,-1
 107 105 l 1,9,-1
 493 105 l 1,10,-1
 493 -15 l 1,11,-1
 107 -15 l 1,8,-1
EndSplineSet
EndChar

StartChar: greaterequal
Encoding: 8805 8805 228
Width: 600
Flags: HMW
HStem: -15 120<107 493 107 493> 567 20G<168 168>
LayerCount: 2
Fore
SplineSet
101 453 m 1,0,-1
 168 587 l 1,1,-1
 493 442 l 1,2,-1
 493 282 l 1,3,-1
 168 137 l 1,4,-1
 101 271 l 1,5,-1
 326 359 l 1,6,-1
 326 364 l 1,7,-1
 101 453 l 1,0,-1
493 105 m 1,8,-1
 493 -15 l 1,9,-1
 107 -15 l 1,10,-1
 107 105 l 1,11,-1
 493 105 l 1,8,-1
EndSplineSet
EndChar

StartChar: approxequal
Encoding: 8776 8776 229
Width: 600
Flags: HMW
HStem: 83 144<152 212> 158 144<387 447> 321 144<152 212> 396 144<387 447>
LayerCount: 2
Fore
SplineSet
72 121 m 1,0,-1
 72 265 l 1,1,2
 115 227 115 227 163.5 227 c 0,3,4
 212 227 212 227 299.5 264.5 c 128,-1,5
 387 302 387 302 435 302 c 0,6,7
 483 302 483 302 527 265 c 1,8,-1
 527 121 l 1,9,10
 483 158 483 158 435 158 c 0,11,12
 387 158 387 158 299.5 120.5 c 128,-1,13
 212 83 212 83 163.5 83 c 0,14,15
 115 83 115 83 72 121 c 1,0,-1
72 359 m 1,16,-1
 72 503 l 1,17,18
 115 465 115 465 163.5 465 c 0,19,20
 212 465 212 465 299.5 502.5 c 128,-1,21
 387 540 387 540 435 540 c 0,22,23
 483 540 483 540 527 503 c 1,24,-1
 527 359 l 1,25,26
 483 396 483 396 435 396 c 0,27,28
 387 396 387 396 299.5 358.5 c 128,-1,29
 212 321 212 321 163.5 321 c 0,30,31
 115 321 115 321 72 359 c 1,16,-1
EndSplineSet
EndChar

StartChar: lozenge
Encoding: 9674 9674 230
Width: 700
Flags: HMW
HStem: -150 21G<249 452 249 249> 605 20G<249 452 452 452>
LayerCount: 2
Fore
SplineSet
452 -150 m 1,0,-1
 249 -150 l 1,1,-1
 51 237 l 1,2,-1
 249 625 l 1,3,-1
 452 625 l 1,4,-1
 649 237 l 1,5,-1
 452 -150 l 1,0,-1
242 238 m 1,6,-1
 343 40 l 1,7,-1
 358 40 l 1,8,-1
 457 236 l 1,9,-1
 358 431 l 1,10,-1
 343 431 l 1,11,-1
 242 238 l 1,6,-1
EndSplineSet
EndChar

StartChar: infinity
Encoding: 8734 8734 231
Width: 905
Flags: HMW
HStem: -15 166<243 263 243 340 562.5 593 593 613> 349 166<292 312 312 337.5 207 385 642 662>
VStem: 50 193<162.5 307 151 337.5> 662 193<193 337.5 162.5 349 162.5 349>
LayerCount: 2
Fore
SplineSet
603 -15 m 0,0,1
 525.8 -15 525.8 -15 485.5 4.5 c 0,2,3
 470 12 470 12 470 17 c 1,4,-1
 492 79 l 1,5,-1
 483 84 l 1,6,7
 445 31 445 31 402.5 8 c 128,-1,8
 360 -15 360 -15 302 -15 c 0,9,10
 169 -15 169 -15 109.5 50.5 c 128,-1,11
 50 116 50 116 50 250 c 128,-1,12
 50 384 50 384 108 449.5 c 128,-1,13
 166 515 166 515 295 515 c 0,14,15
 374.6 515 374.6 515 417.5 495.5 c 0,16,17
 434 488 434 488 434 483 c 1,18,-1
 411 421 l 1,19,-1
 420 416 l 1,20,21
 460 469 460 469 505 492 c 128,-1,22
 550 515 550 515 610 515 c 0,23,24
 739 515 739 515 797 449.5 c 128,-1,25
 855 384 855 384 855 250 c 128,-1,26
 855 116 855 116 795.5 50.5 c 128,-1,27
 736 -15 736 -15 603 -15 c 0,0,1
662 193 m 2,28,-1
 662 349 l 1,29,30
 627 349 627 349 606.5 340.5 c 128,-1,31
 586 332 586 332 576 307 c 2,32,-1
 520 151 l 1,33,-1
 593 151 l 2,34,35
 629 151 629 151 645.5 158.5 c 128,-1,36
 662 166 662 166 662 193 c 2,28,-1
243 307 m 2,37,-1
 243 151 l 1,38,39
 278 151 278 151 298.5 159.5 c 128,-1,40
 319 168 319 168 329 193 c 2,41,-1
 385 349 l 1,42,-1
 312 349 l 2,43,44
 276 349 276 349 259.5 341.5 c 128,-1,45
 243 334 243 334 243 307 c 2,37,-1
EndSplineSet
EndChar

StartChar: integral
Encoding: 8747 8747 232
Width: 373
Flags: HMW
HStem: -158 21G<-19 25.5> 612 20G<333 379>
VStem: 96 172
LayerCount: 2
Fore
SplineSet
281 429 m 2,0,-1
 255 -41 l 2,1,2
 253 -78 253 -78 223.5 -103 c 128,-1,3
 194 -128 194 -128 147.5 -139 c 0,4,5
 67.1818181818 -158 67.1818181818 -158 -19 -158 c 1,6,-1
 -25 -41 l 1,7,8
 63.5509838998 -21.518783542 63.5509838998 -21.518783542 77 6.5 c 0,9,10
 83 19 83 19 84 45 c 2,11,-1
 109 515 l 2,12,13
 111 552 111 552 139 577 c 128,-1,14
 167 602 167 602 212.5 613 c 0,15,16
 291.090909091 632 291.090909091 632 379 632 c 1,17,-1
 385 515 l 1,18,19
 317 499 317 499 300 483 c 128,-1,20
 283 467 283 467 281 429 c 2,0,-1
EndSplineSet
EndChar

StartChar: summation
Encoding: 8721 8721 233
Width: 654
Flags: HMW
HStem: -150 150<294 576> 605 20G<91 598 598 598>
LayerCount: 2
Fore
SplineSet
598 0 m 1,0,-1
 576 -150 l 1,1,-1
 62 -150 l 1,2,-1
 43 -98 l 1,3,-1
 254 211 l 1,4,-1
 72 573 l 1,5,-1
 91 625 l 1,6,-1
 598 625 l 1,7,-1
 580 500 l 1,8,-1
 396 475 l 2,9,10
 352 469 352 469 352 448 c 0,11,12
 352 438 352 438 358 425 c 2,13,-1
 453 247 l 1,14,-1
 286 14 l 1,15,-1
 294 0 l 1,16,-1
 598 0 l 1,0,-1
EndSplineSet
EndChar

StartChar: pi
Encoding: 960 960 234
Width: 657
Flags: HMW
HStem: -11 21G<527 592> 0 21G<83 235 83 83> 350 150<345 352 345 345 55 589> 516 20G<483 483>
VStem: 352 200<143 350 143 350 143 350>
LayerCount: 2
Fore
SplineSet
55 500 m 1,0,-1
 477 500 l 1,1,2
 481 517 481 517 483 536 c 1,3,-1
 630 529 l 1,4,5
 630 416.058823529 630 416.058823529 611.5 384.5 c 0,6,7
 591.275862069 350 591.275862069 350 552 350 c 1,8,-1
 552 143 l 1,9,10
 584 137 584 137 601 136 c 1,11,-1
 592 -11 l 1,12,13
 463.714285714 -11 463.714285714 -11 423 4 c 0,14,15
 372.494077834 22.6074450085 372.494077834 22.6074450085 360 51.5 c 0,16,17
 352 70 352 70 352 94 c 2,18,-1
 352 350 l 1,19,-1
 345 350 l 1,20,21
 297 348 297 348 291 312 c 2,22,-1
 235 0 l 1,23,-1
 83 0 l 1,24,-1
 108 366 l 1,25,-1
 55 378 l 1,26,-1
 55 500 l 1,0,-1
EndSplineSet
EndChar

StartChar: partialdiff
Encoding: 8706 8706 235
Width: 590
Flags: HMW
HStem: -15 21G<181 364.5> 605 20G<211 364 364 364>
LayerCount: 2
Fore
SplineSet
333 455 m 1,0,-1
 367 454 l 1,1,-1
 370 481 l 1,2,-1
 211 522 l 1,3,-1
 211 625 l 1,4,-1
 364 625 l 1,5,6
 448 589 448 589 500.5 506 c 128,-1,7
 553 423 553 423 553 319 c 0,8,9
 553 176.132352941 553 176.132352941 486 84.5 c 0,10,11
 452 38 452 38 393.5 11.5 c 128,-1,12
 335 -15 335 -15 258 -15 c 0,13,14
 144 -15 144 -15 91 33.5 c 128,-1,15
 38 82 38 82 38 179 c 0,16,17
 38 455 38 455 333 455 c 1,0,-1
252 279 m 2,18,-1
 232 131 l 1,19,-1
 261 131 l 2,20,21
 283 131 283 131 295.5 133 c 128,-1,22
 308 135 308 135 319.5 145 c 128,-1,23
 331 155 331 155 333 173 c 2,24,-1
 353 321 l 1,25,-1
 323 321 l 2,26,27
 289 321 289 321 272 313.5 c 128,-1,28
 255 306 255 306 252 279 c 2,18,-1
EndSplineSet
EndChar

StartChar: product
Encoding: 8719 8719 236
Width: 800
Flags: HMW
HStem: -150 21G<123 300 123 123 474 674 474 474> 475 150<410 474 410 410 53 711> 641 20G<605 605>
VStem: 474 200<-150 475 -150 475>
LayerCount: 2
Fore
SplineSet
53 625 m 1,0,-1
 599 625 l 1,1,2
 603 642 603 642 605 661 c 1,3,-1
 752 654 l 1,4,5
 752 541.058823529 752 541.058823529 733.5 509.5 c 0,6,7
 713.275862069 475 713.275862069 475 674 475 c 1,8,-1
 674 -150 l 1,9,-1
 474 -150 l 1,10,-1
 474 475 l 1,11,-1
 410 475 l 1,12,13
 380 474 380 474 365.5 464 c 128,-1,14
 351 454 351 454 349 425 c 2,15,-1
 300 -150 l 1,16,-1
 123 -150 l 1,17,-1
 140 484 l 1,18,-1
 53 503 l 1,19,-1
 53 625 l 1,0,-1
EndSplineSet
EndChar

StartChar: Omega
Encoding: 8486 8486 237
Width: 703
Flags: HMW
HStem: 0 147 480 160<281 303 303 474>
VStem: 29 200<325.5 430 277 448> 474 203<325 448 325 480 325 480>
LayerCount: 2
Fore
SplineSet
303 250 m 1,0,-1
 288 0 l 1,1,-1
 15 0 l 1,2,-1
 15 143 l 1,3,-1
 165 152 l 1,4,-1
 171 166 l 1,5,6
 92 194 92 194 60.5 245 c 128,-1,7
 29 296 29 296 29 365 c 128,-1,8
 29 434 29 434 43 478.5 c 128,-1,9
 57 523 57 523 91 561.5 c 0,10,11
 160.324675325 640 160.324675325 640 353 640 c 0,12,13
 572.542857143 640 572.542857143 640 639.5 531 c 0,14,15
 677 469.953488372 677 469.953488372 677 382.476744186 c 128,-1,16
 677 295 677 295 644.5 243.5 c 128,-1,17
 612 192 612 192 532 164 c 1,18,-1
 538 152 l 1,19,-1
 688 143 l 1,20,-1
 688 0 l 1,21,-1
 415 0 l 1,22,-1
 400 250 l 1,23,24
 425 250 425 250 438 252 c 128,-1,25
 451 254 451 254 462 264 c 128,-1,26
 473 274 473 274 474 293 c 1,27,-1
 474 480 l 1,28,-1
 303 480 l 2,29,30
 264 480 264 480 246.5 471 c 128,-1,31
 229 462 229 462 229 430 c 2,32,-1
 229 300 l 2,33,34
 229 268 229 268 246.5 259 c 128,-1,35
 264 250 264 250 303 250 c 1,0,-1
EndSplineSet
EndChar

StartChar: Delta
Encoding: 8710 8710 238
Width: 703
Flags: HMW
HStem: 0 150<219 384 384 394 219 654> 605 20G<250 453 453 453>
LayerCount: 2
Fore
SplineSet
250 625 m 1,0,-1
 453 625 l 1,1,-1
 673 52 l 1,2,-1
 654 0 l 1,3,-1
 49 0 l 1,4,-1
 30 52 l 1,5,-1
 250 625 l 1,0,-1
219 150 m 1,6,-1
 384 150 l 2,7,8
 413 150 413 150 413 173 c 0,9,10
 413 182 413 182 411 187 c 2,11,-1
 327 445 l 1,12,-1
 317 445 l 1,13,-1
 219 150 l 1,6,-1
EndSplineSet
EndChar

StartChar: radical
Encoding: 8730 8730 239
Width: 544
Flags: HMW
HStem: 0 21G<162 375 162 162> 480 20G<0 207 207 207> 552 98<514 514 514 594>
LayerCount: 2
Fore
SplineSet
514 552 m 1,0,-1
 375 0 l 1,1,-1
 162 0 l 1,2,-1
 0 500 l 1,3,-1
 207 500 l 1,4,-1
 298 180 l 1,5,-1
 308 180 l 1,6,-1
 410 650 l 1,7,-1
 607 650 l 1,8,-1
 594 552 l 1,9,-1
 514 552 l 1,0,-1
EndSplineSet
EndChar

StartChar: asciitilde
Encoding: 126 126 240
Width: 600
Flags: HMW
HStem: 202 21G<118 118> 203 151<364 402.5 353.5 445> 268 86 268 155<197 226.5 151 239.5>
LayerCount: 2
Fore
SplineSet
509 237.5 m 128,-1,1
 462 203 462 203 410.5 203 c 128,-1,2
 359 203 359 203 297 235.5 c 128,-1,3
 235 268 235 268 213 268 c 128,-1,4
 191 268 191 268 169 251.5 c 128,-1,5
 147 235 147 235 118 202 c 1,6,-1
 12 293 l 1,7,8
 54.9226804124 349.579896907 54.9226804124 349.579896907 82.9613402062 375.789948454 c 0,9,10
 133.465116279 423 133.465116279 423 190 423 c 0,11,12
 228 423 228 423 291.5 388.5 c 128,-1,13
 355 354 355 354 385 354 c 0,14,15
 433 354 433 354 481 420 c 1,16,-1
 588 330 l 1,17,0
 556 272 556 272 509 237.5 c 128,-1,1
EndSplineSet
EndChar

StartChar: asciicircum
Encoding: 94 94 241
Width: 600
Flags: HMW
HStem: 218 21G<192 192 414 414> 567 20G<212 394 394 394>
LayerCount: 2
Fore
SplineSet
548 262 m 1,0,-1
 414 218 l 1,1,-1
 306 442 l 1,2,-1
 300 442 l 1,3,-1
 192 218 l 1,4,-1
 58 262 l 1,5,-1
 212 587 l 1,6,-1
 394 587 l 1,7,-1
 548 262 l 1,0,-1
EndSplineSet
EndChar

StartChar: A
Encoding: 65 65 242
Width: 609
Flags: HMW
HStem: 0 21G<-12 199 -12 -12 410 410 410 621> 99 159<258 350 258 387 222 350> 605 20G<150 459 459 459>
LayerCount: 2
Fore
SplineSet
199 0 m 1,0,-1
 -12 0 l 1,1,-1
 150 625 l 1,2,-1
 459 625 l 1,3,-1
 621 0 l 1,4,-1
 410 0 l 1,5,-1
 387 99 l 1,6,-1
 222 99 l 1,7,-1
 199 0 l 1,0,-1
299 433 m 1,8,-1
 258 258 l 1,9,-1
 350 258 l 1,10,-1
 310 433 l 1,11,-1
 299 433 l 1,8,-1
EndSplineSet
EndChar

StartChar: AE
Encoding: 198 198 243
Width: 811
Flags: HMW
HStem: 0 160<579 791 579 791> 99 159<258 350 258 387 222 350> 236 145<560 700 560 560> 465 160<500 715 500 500>
LayerCount: 2
Fore
SplineSet
199 0 m 1,0,-1
 -12 0 l 1,1,-1
 150 625 l 1,2,-1
 740 625 l 1,3,-1
 715 465 l 1,4,-1
 500 465 l 1,5,-1
 522 381 l 1,6,-1
 700 381 l 1,7,-1
 700 236 l 1,8,-1
 560 236 l 1,9,-1
 579 160 l 1,10,-1
 791 160 l 1,11,-1
 791 0 l 1,12,-1
 410 0 l 1,13,-1
 387 99 l 1,14,-1
 222 99 l 1,15,-1
 199 0 l 1,0,-1
299 433 m 1,16,-1
 258 258 l 1,17,-1
 350 258 l 1,18,-1
 310 433 l 1,19,-1
 299 433 l 1,16,-1
EndSplineSet
EndChar

